G04 ---------------------------- Layer name :TOP SILK LAYER*
G04 EasyEDA v5.5.15, Tue, 03 Jul 2018 18:31:12 GMT*
G04 565f939dbb094c109ad1478ea9632299*
G04 Gerber Generator version 0.2*
G04 Scale: 100 percent, Rotated: No, Reflected: No *
G04 Dimensions in inches *
G04 leading zeros omitted , absolute positions ,2 integer and 4 decimal *
%FSLAX24Y24*%
%MOIN*%
G90*
G70D02*

%ADD10C,0.010000*%
%ADD11C,0.008000*%
%ADD23C,0.007992*%
%ADD24C,0.005000*%
%ADD25C,0.007000*%
%ADD26C,0.006000*%
%ADD27C,0.004000*%

%LPD*%
G54D10*
G01X13800Y4400D02*
G01X14500Y4400D01*
G01X14500Y5400D01*
G01X13800Y5400D01*
G01X13200Y5400D02*
G01X12500Y5400D01*
G01X12500Y4400D01*
G01X13200Y4400D01*
G01X9500Y3800D02*
G01X9500Y3100D01*
G01X10500Y3100D01*
G01X10500Y3800D01*
G01X10500Y4400D02*
G01X10500Y5100D01*
G01X9500Y5100D01*
G01X9500Y4400D01*
G54D11*
G01X8050Y1700D02*
G01X7300Y1700D01*
G01X7300Y700D01*
G01X13300Y700D01*
G01X13300Y1700D01*
G54D23*
G01X13300Y1700D02*
G01X8050Y1700D01*
G54D11*
G01X2800Y12700D02*
G01X3800Y12700D01*
G01X3800Y8700D01*
G01X2800Y8700D01*
G01X2800Y9450D01*
G54D23*
G01X2800Y12700D02*
G01X2800Y9450D01*
G54D10*
G01X14746Y2090D02*
G01X14747Y2090D01*
G01X19252Y14225D02*
G01X19252Y12650D01*
G01X19252Y11153D01*
G01X15315Y11153D01*
G01X15315Y12650D01*
G01X15315Y14225D01*
G01X19252Y14225D01*
G01X15906Y11153D02*
G01X15906Y11665D01*
G01X16693Y11665D01*
G01X16693Y11153D01*
G01X17875Y11153D02*
G01X17875Y11665D01*
G01X18661Y11665D01*
G01X18661Y11153D01*
G01X16315Y9236D02*
G01X18303Y9236D01*
G01X18303Y1401D01*
G01X18284Y1382D01*
G01X16335Y1382D01*
G01X16296Y1342D01*
G01X16296Y9198D01*
G01X4642Y917D02*
G01X4642Y3240D01*
G01X2359Y3240D01*
G01X2359Y917D01*
G01X4642Y917D01*
G01X5600Y7000D02*
G01X6000Y7000D01*
G01X5800Y7300D02*
G01X5800Y6700D01*
G01X5800Y9800D02*
G01X5100Y9800D01*
G01X5100Y8800D01*
G01X5800Y8800D01*
G01X6400Y8800D02*
G01X7100Y8800D01*
G01X7100Y9800D01*
G01X6400Y9800D01*
G01X5800Y11300D02*
G01X5100Y11300D01*
G01X5100Y10300D01*
G01X5800Y10300D01*
G01X6400Y10300D02*
G01X7100Y10300D01*
G01X7100Y11300D01*
G01X6400Y11300D01*
G01X14731Y13159D02*
G01X9931Y13159D01*
G01X9931Y11900D01*
G01X9931Y6309D01*
G01X14731Y6309D01*
G01X14731Y11900D01*
G01X14731Y13159D01*
G01X12840Y10880D02*
G01X10960Y10880D01*
G01X10960Y8909D01*
G01X12840Y8909D01*
G01X12840Y10880D01*
G01X14181Y8830D02*
G01X13240Y8830D01*
G01X13240Y7809D01*
G01X14181Y7809D01*
G01X14181Y8830D01*
G01X12840Y8359D02*
G01X10960Y8359D01*
G01X10960Y6390D01*
G01X12840Y6390D01*
G01X12840Y8359D01*
G54D24*
G01X13019Y4098D02*
G01X13019Y4119D01*
G01X13040Y4159D01*
G01X13060Y4180D01*
G01X13102Y4200D01*
G01X13184Y4200D01*
G01X13225Y4180D01*
G01X13244Y4159D01*
G01X13265Y4119D01*
G01X13265Y4078D01*
G01X13244Y4036D01*
G01X13205Y3975D01*
G01X13000Y3771D01*
G01X13285Y3771D01*
G01X13421Y4200D02*
G01X13421Y3771D01*
G01X13707Y4200D02*
G01X13421Y3913D01*
G01X13523Y4015D02*
G01X13707Y3771D01*
G01X13863Y4098D02*
G01X13863Y4119D01*
G01X13884Y4159D01*
G01X13903Y4180D01*
G01X13944Y4200D01*
G01X14027Y4200D01*
G01X14068Y4180D01*
G01X14088Y4159D01*
G01X14109Y4119D01*
G01X14109Y4078D01*
G01X14088Y4036D01*
G01X14047Y3975D01*
G01X13843Y3771D01*
G01X14128Y3771D01*
G01X8981Y3534D02*
G01X8961Y3575D01*
G01X8900Y3636D01*
G01X9329Y3636D01*
G01X8900Y4058D02*
G01X9329Y3853D01*
G01X8900Y3771D02*
G01X8900Y4058D01*
G01X8900Y4315D02*
G01X8920Y4254D01*
G01X8981Y4213D01*
G01X9084Y4193D01*
G01X9145Y4193D01*
G01X9247Y4213D01*
G01X9309Y4254D01*
G01X9329Y4315D01*
G01X9329Y4356D01*
G01X9309Y4418D01*
G01X9247Y4459D01*
G01X9145Y4479D01*
G01X9084Y4479D01*
G01X8981Y4459D01*
G01X8920Y4418D01*
G01X8900Y4356D01*
G01X8900Y4315D01*
G01X8900Y4614D02*
G01X9329Y4614D01*
G01X8900Y4614D02*
G01X8900Y4798D01*
G01X8920Y4859D01*
G01X8940Y4880D01*
G01X8981Y4900D01*
G01X9022Y4900D01*
G01X9063Y4880D01*
G01X9084Y4859D01*
G01X9104Y4798D01*
G01X9104Y4614D01*
G01X9104Y4757D02*
G01X9329Y4900D01*
G54D25*
G01X8906Y5898D02*
G01X8885Y5938D01*
G01X8844Y5980D01*
G01X8805Y6000D01*
G01X8722Y6000D01*
G01X8681Y5980D01*
G01X8640Y5938D01*
G01X8619Y5898D01*
G01X8600Y5836D01*
G01X8600Y5734D01*
G01X8619Y5673D01*
G01X8640Y5632D01*
G01X8681Y5590D01*
G01X8722Y5571D01*
G01X8805Y5571D01*
G01X8844Y5590D01*
G01X8885Y5632D01*
G01X8906Y5673D01*
G01X9042Y5919D02*
G01X9082Y5938D01*
G01X9143Y6000D01*
G01X9143Y5571D01*
G01X7300Y9419D02*
G01X7340Y9438D01*
G01X7402Y9500D01*
G01X7402Y9071D01*
G01X7660Y9500D02*
G01X7598Y9480D01*
G01X7557Y9419D01*
G01X7536Y9315D01*
G01X7536Y9255D01*
G01X7557Y9153D01*
G01X7598Y9090D01*
G01X7660Y9071D01*
G01X7701Y9071D01*
G01X7761Y9090D01*
G01X7802Y9153D01*
G01X7823Y9255D01*
G01X7823Y9315D01*
G01X7802Y9419D01*
G01X7761Y9480D01*
G01X7701Y9500D01*
G01X7660Y9500D01*
G01X7959Y9500D02*
G01X7959Y9071D01*
G01X8244Y9500D02*
G01X7959Y9213D01*
G01X8060Y9315D02*
G01X8244Y9071D01*
G01X7300Y10919D02*
G01X7340Y10938D01*
G01X7402Y11000D01*
G01X7402Y10571D01*
G01X7660Y11000D02*
G01X7598Y10980D01*
G01X7557Y10919D01*
G01X7536Y10815D01*
G01X7536Y10755D01*
G01X7557Y10653D01*
G01X7598Y10590D01*
G01X7660Y10571D01*
G01X7701Y10571D01*
G01X7761Y10590D01*
G01X7802Y10653D01*
G01X7823Y10755D01*
G01X7823Y10815D01*
G01X7802Y10919D01*
G01X7761Y10980D01*
G01X7701Y11000D01*
G01X7660Y11000D01*
G01X7959Y11000D02*
G01X7959Y10571D01*
G01X8244Y11000D02*
G01X7959Y10713D01*
G01X8060Y10815D02*
G01X8244Y10571D01*
G54D26*
G01X11110Y12384D02*
G01X11110Y12096D01*
G01X11110Y12384D02*
G01X11288Y12384D01*
G01X11110Y12246D02*
G01X11219Y12246D01*
G01X11110Y12096D02*
G01X11288Y12096D01*
G01X11568Y12342D02*
G01X11542Y12369D01*
G01X11501Y12384D01*
G01X11446Y12384D01*
G01X11406Y12369D01*
G01X11377Y12342D01*
G01X11377Y12315D01*
G01X11392Y12288D01*
G01X11406Y12275D01*
G01X11432Y12261D01*
G01X11514Y12234D01*
G01X11542Y12219D01*
G01X11556Y12205D01*
G01X11568Y12178D01*
G01X11568Y12138D01*
G01X11542Y12111D01*
G01X11501Y12096D01*
G01X11446Y12096D01*
G01X11406Y12111D01*
G01X11377Y12138D01*
G01X11659Y12384D02*
G01X11659Y12096D01*
G01X11659Y12384D02*
G01X11781Y12384D01*
G01X11822Y12369D01*
G01X11835Y12355D01*
G01X11850Y12328D01*
G01X11850Y12288D01*
G01X11835Y12261D01*
G01X11822Y12246D01*
G01X11781Y12234D01*
G01X11659Y12234D01*
G01X12022Y12384D02*
G01X11981Y12369D01*
G01X11953Y12328D01*
G01X11939Y12261D01*
G01X11939Y12219D01*
G01X11953Y12151D01*
G01X11981Y12111D01*
G01X12022Y12096D01*
G01X12048Y12096D01*
G01X12089Y12111D01*
G01X12117Y12151D01*
G01X12131Y12219D01*
G01X12131Y12261D01*
G01X12117Y12328D01*
G01X12089Y12369D01*
G01X12048Y12384D01*
G01X12022Y12384D01*
G01X12247Y12384D02*
G01X12397Y12384D01*
G01X12315Y12275D01*
G01X12356Y12275D01*
G01X12385Y12261D01*
G01X12397Y12246D01*
G01X12411Y12205D01*
G01X12411Y12178D01*
G01X12397Y12138D01*
G01X12371Y12111D01*
G01X12330Y12096D01*
G01X12289Y12096D01*
G01X12247Y12111D01*
G01X12235Y12125D01*
G01X12221Y12151D01*
G54D11*
G01X4073Y12599D02*
G01X4473Y12599D01*
G01X4255Y12308D01*
G01X4363Y12308D01*
G01X4436Y12272D01*
G01X4473Y12236D01*
G01X4509Y12127D01*
G01X4509Y12054D01*
G01X4473Y11945D01*
G01X4400Y11872D01*
G01X4290Y11836D01*
G01X4182Y11836D01*
G01X4073Y11872D01*
G01X4036Y11908D01*
G01X4000Y11981D01*
G01X4785Y12018D02*
G01X4748Y11981D01*
G01X4785Y11945D01*
G01X4822Y11981D01*
G01X4785Y12018D01*
G01X5135Y12599D02*
G01X5535Y12599D01*
G01X5315Y12308D01*
G01X5425Y12308D01*
G01X5497Y12272D01*
G01X5535Y12236D01*
G01X5571Y12127D01*
G01X5571Y12054D01*
G01X5535Y11945D01*
G01X5461Y11872D01*
G01X5352Y11836D01*
G01X5243Y11836D01*
G01X5135Y11872D01*
G01X5097Y11908D01*
G01X5061Y11981D01*
G01X5810Y12599D02*
G01X6102Y11836D01*
G01X6393Y12599D02*
G01X6102Y11836D01*
G01X7375Y12345D02*
G01X7302Y12308D01*
G01X7228Y12236D01*
G01X7193Y12127D01*
G01X7193Y12054D01*
G01X7228Y11945D01*
G01X7302Y11872D01*
G01X7375Y11836D01*
G01X7484Y11836D01*
G01X7556Y11872D01*
G01X7628Y11945D01*
G01X7664Y12054D01*
G01X7664Y12127D01*
G01X7628Y12236D01*
G01X7556Y12308D01*
G01X7484Y12345D01*
G01X7375Y12345D01*
G01X7905Y12345D02*
G01X7905Y11836D01*
G01X7905Y12199D02*
G01X8014Y12308D01*
G01X8086Y12345D01*
G01X8196Y12345D01*
G01X8268Y12308D01*
G01X8305Y12199D01*
G01X8305Y11836D01*
G01X8544Y12599D02*
G01X8544Y11836D01*
G01X8822Y12345D02*
G01X9039Y11836D01*
G01X9257Y12345D02*
G01X9039Y11836D01*
G01X8967Y11690D01*
G01X8894Y11618D01*
G01X8822Y11581D01*
G01X8785Y11581D01*
G01X9535Y12599D02*
G01X9535Y12090D01*
G01X9535Y11908D02*
G01X9497Y11872D01*
G01X9535Y11836D01*
G01X9571Y11872D01*
G01X9535Y11908D01*
G54D27*
G01X490Y5746D02*
G01X463Y5773D01*
G01X423Y5786D01*
G01X367Y5786D01*
G01X326Y5773D01*
G01X300Y5746D01*
G01X300Y5717D01*
G01X313Y5690D01*
G01X326Y5678D01*
G01X355Y5663D01*
G01X436Y5636D01*
G01X463Y5623D01*
G01X476Y5609D01*
G01X490Y5582D01*
G01X490Y5540D01*
G01X463Y5513D01*
G01X423Y5500D01*
G01X367Y5500D01*
G01X326Y5513D01*
G01X300Y5540D01*
G01X580Y5786D02*
G01X580Y5500D01*
G01X580Y5636D02*
G01X621Y5678D01*
G01X648Y5690D01*
G01X690Y5690D01*
G01X717Y5678D01*
G01X730Y5636D01*
G01X730Y5500D01*
G01X888Y5690D02*
G01X861Y5678D01*
G01X834Y5650D01*
G01X821Y5609D01*
G01X821Y5582D01*
G01X834Y5540D01*
G01X861Y5513D01*
G01X888Y5500D01*
G01X930Y5500D01*
G01X957Y5513D01*
G01X984Y5540D01*
G01X998Y5582D01*
G01X998Y5609D01*
G01X984Y5650D01*
G01X957Y5678D01*
G01X930Y5690D01*
G01X888Y5690D01*
G01X1088Y5690D02*
G01X1088Y5500D01*
G01X1088Y5609D02*
G01X1101Y5650D01*
G01X1128Y5678D01*
G01X1155Y5690D01*
G01X1196Y5690D01*
G01X1328Y5786D02*
G01X1328Y5555D01*
G01X1342Y5513D01*
G01X1369Y5500D01*
G01X1396Y5500D01*
G01X1286Y5690D02*
G01X1382Y5690D01*
G01X1886Y5746D02*
G01X1859Y5773D01*
G01X1819Y5786D01*
G01X1765Y5786D01*
G01X1723Y5773D01*
G01X1696Y5746D01*
G01X1696Y5717D01*
G01X1709Y5690D01*
G01X1723Y5678D01*
G01X1751Y5663D01*
G01X1832Y5636D01*
G01X1859Y5623D01*
G01X1873Y5609D01*
G01X1886Y5582D01*
G01X1886Y5540D01*
G01X1859Y5513D01*
G01X1819Y5500D01*
G01X1765Y5500D01*
G01X1723Y5513D01*
G01X1696Y5540D01*
G01X2044Y5690D02*
G01X2017Y5678D01*
G01X1990Y5650D01*
G01X1976Y5609D01*
G01X1976Y5582D01*
G01X1990Y5540D01*
G01X2017Y5513D01*
G01X2044Y5500D01*
G01X2086Y5500D01*
G01X2113Y5513D01*
G01X2140Y5540D01*
G01X2155Y5582D01*
G01X2155Y5609D01*
G01X2140Y5650D01*
G01X2113Y5678D01*
G01X2086Y5690D01*
G01X2044Y5690D01*
G01X2244Y5786D02*
G01X2244Y5500D01*
G01X2498Y5786D02*
G01X2498Y5500D01*
G01X2498Y5650D02*
G01X2471Y5678D01*
G01X2444Y5690D01*
G01X2403Y5690D01*
G01X2375Y5678D01*
G01X2348Y5650D01*
G01X2334Y5609D01*
G01X2334Y5582D01*
G01X2348Y5540D01*
G01X2375Y5513D01*
G01X2403Y5500D01*
G01X2444Y5500D01*
G01X2471Y5513D01*
G01X2498Y5540D01*
G01X2588Y5609D02*
G01X2751Y5609D01*
G01X2751Y5636D01*
G01X2738Y5663D01*
G01X2725Y5678D01*
G01X2696Y5690D01*
G01X2655Y5690D01*
G01X2628Y5678D01*
G01X2601Y5650D01*
G01X2588Y5609D01*
G01X2588Y5582D01*
G01X2601Y5540D01*
G01X2628Y5513D01*
G01X2655Y5500D01*
G01X2696Y5500D01*
G01X2725Y5513D01*
G01X2751Y5540D01*
G01X2842Y5690D02*
G01X2842Y5500D01*
G01X2842Y5609D02*
G01X2855Y5650D01*
G01X2882Y5678D01*
G01X2909Y5690D01*
G01X2951Y5690D01*
G01X3251Y5786D02*
G01X3251Y5500D01*
G01X3251Y5786D02*
G01X3373Y5786D01*
G01X3415Y5773D01*
G01X3428Y5759D01*
G01X3442Y5732D01*
G01X3442Y5705D01*
G01X3428Y5678D01*
G01X3415Y5663D01*
G01X3373Y5650D01*
G01X3251Y5650D02*
G01X3373Y5650D01*
G01X3415Y5636D01*
G01X3428Y5623D01*
G01X3442Y5596D01*
G01X3442Y5555D01*
G01X3428Y5528D01*
G01X3415Y5513D01*
G01X3373Y5500D01*
G01X3251Y5500D01*
G01X3532Y5690D02*
G01X3532Y5500D01*
G01X3532Y5609D02*
G01X3544Y5650D01*
G01X3573Y5678D01*
G01X3600Y5690D01*
G01X3640Y5690D01*
G01X3730Y5786D02*
G01X3744Y5773D01*
G01X3757Y5786D01*
G01X3744Y5800D01*
G01X3730Y5786D01*
G01X3744Y5690D02*
G01X3744Y5500D01*
G01X4011Y5786D02*
G01X4011Y5500D01*
G01X4011Y5650D02*
G01X3984Y5678D01*
G01X3957Y5690D01*
G01X3915Y5690D01*
G01X3888Y5678D01*
G01X3861Y5650D01*
G01X3848Y5609D01*
G01X3848Y5582D01*
G01X3861Y5540D01*
G01X3888Y5513D01*
G01X3915Y5500D01*
G01X3957Y5500D01*
G01X3984Y5513D01*
G01X4011Y5540D01*
G01X4265Y5690D02*
G01X4265Y5473D01*
G01X4251Y5432D01*
G01X4238Y5417D01*
G01X4211Y5405D01*
G01X4169Y5405D01*
G01X4142Y5417D01*
G01X4265Y5650D02*
G01X4238Y5678D01*
G01X4211Y5690D01*
G01X4169Y5690D01*
G01X4142Y5678D01*
G01X4115Y5650D01*
G01X4101Y5609D01*
G01X4101Y5582D01*
G01X4115Y5540D01*
G01X4142Y5513D01*
G01X4169Y5500D01*
G01X4211Y5500D01*
G01X4238Y5513D01*
G01X4265Y5540D01*
G01X4355Y5609D02*
G01X4519Y5609D01*
G01X4519Y5636D01*
G01X4505Y5663D01*
G01X4492Y5678D01*
G01X4465Y5690D01*
G01X4423Y5690D01*
G01X4396Y5678D01*
G01X4369Y5650D01*
G01X4355Y5609D01*
G01X4355Y5582D01*
G01X4369Y5540D01*
G01X4396Y5513D01*
G01X4423Y5500D01*
G01X4465Y5500D01*
G01X4492Y5513D01*
G01X4519Y5540D01*
G01X2800Y3800D02*
G01X2800Y3594D01*
G01X2813Y3553D01*
G01X2840Y3526D01*
G01X2882Y3513D01*
G01X2909Y3513D01*
G01X2950Y3526D01*
G01X2976Y3553D01*
G01X2990Y3594D01*
G01X2990Y3800D01*
G01X3080Y3703D02*
G01X3080Y3417D01*
G01X3080Y3663D02*
G01X3107Y3690D01*
G01X3134Y3703D01*
G01X3176Y3703D01*
G01X3203Y3690D01*
G01X3230Y3663D01*
G01X3244Y3621D01*
G01X3244Y3594D01*
G01X3230Y3553D01*
G01X3203Y3526D01*
G01X3176Y3513D01*
G01X3134Y3513D01*
G01X3107Y3526D01*
G01X3080Y3553D01*
G01X3334Y3800D02*
G01X3334Y3513D01*
G01X3492Y3703D02*
G01X3465Y3690D01*
G01X3438Y3663D01*
G01X3425Y3621D01*
G01X3425Y3594D01*
G01X3438Y3553D01*
G01X3465Y3526D01*
G01X3492Y3513D01*
G01X3534Y3513D01*
G01X3561Y3526D01*
G01X3588Y3553D01*
G01X3601Y3594D01*
G01X3601Y3621D01*
G01X3588Y3663D01*
G01X3561Y3690D01*
G01X3534Y3703D01*
G01X3492Y3703D01*
G01X3855Y3703D02*
G01X3855Y3513D01*
G01X3855Y3663D02*
G01X3828Y3690D01*
G01X3801Y3703D01*
G01X3759Y3703D01*
G01X3732Y3690D01*
G01X3705Y3663D01*
G01X3692Y3621D01*
G01X3692Y3594D01*
G01X3705Y3553D01*
G01X3732Y3526D01*
G01X3759Y3513D01*
G01X3801Y3513D01*
G01X3828Y3526D01*
G01X3855Y3553D01*
G01X4109Y3800D02*
G01X4109Y3513D01*
G01X4109Y3663D02*
G01X4082Y3690D01*
G01X4055Y3703D01*
G01X4013Y3703D01*
G01X3986Y3690D01*
G01X3959Y3663D01*
G01X3944Y3621D01*
G01X3944Y3594D01*
G01X3959Y3553D01*
G01X3986Y3526D01*
G01X4013Y3513D01*
G01X4055Y3513D01*
G01X4082Y3526D01*
G01X4109Y3553D01*
G01X15882Y2600D02*
G01X15595Y2600D01*
G01X15882Y2600D02*
G01X15882Y2477D01*
G01X15868Y2436D01*
G01X15854Y2423D01*
G01X15827Y2409D01*
G01X15786Y2409D01*
G01X15759Y2423D01*
G01X15745Y2436D01*
G01X15732Y2477D01*
G01X15732Y2600D01*
G01X15786Y2319D02*
G01X15595Y2319D01*
G01X15704Y2319D02*
G01X15745Y2305D01*
G01X15773Y2278D01*
G01X15786Y2251D01*
G01X15786Y2210D01*
G01X15786Y2052D02*
G01X15773Y2079D01*
G01X15745Y2106D01*
G01X15704Y2120D01*
G01X15677Y2120D01*
G01X15636Y2106D01*
G01X15609Y2079D01*
G01X15595Y2052D01*
G01X15595Y2011D01*
G01X15609Y1984D01*
G01X15636Y1956D01*
G01X15677Y1943D01*
G01X15704Y1943D01*
G01X15745Y1956D01*
G01X15773Y1984D01*
G01X15786Y2011D01*
G01X15786Y2052D01*
G01X15786Y1689D02*
G01X15568Y1689D01*
G01X15527Y1703D01*
G01X15513Y1716D01*
G01X15500Y1744D01*
G01X15500Y1785D01*
G01X15513Y1812D01*
G01X15745Y1689D02*
G01X15773Y1716D01*
G01X15786Y1744D01*
G01X15786Y1785D01*
G01X15773Y1812D01*
G01X15745Y1839D01*
G01X15704Y1853D01*
G01X15677Y1853D01*
G01X15636Y1839D01*
G01X15609Y1812D01*
G01X15595Y1785D01*
G01X15595Y1744D01*
G01X15609Y1716D01*
G01X15636Y1689D01*
G01X15663Y1585D02*
G01X15650Y1599D01*
G01X15636Y1585D01*
G01X15650Y1572D01*
G01X15663Y1585D01*
G01X15882Y1272D02*
G01X15595Y1163D01*
G01X15882Y1054D02*
G01X15595Y1163D01*
G01X15813Y759D02*
G01X15841Y773D01*
G01X15868Y800D01*
G01X15882Y827D01*
G01X15882Y882D01*
G01X15868Y909D01*
G01X15841Y936D01*
G01X15813Y950D01*
G01X15773Y964D01*
G01X15704Y964D01*
G01X15663Y950D01*
G01X15636Y936D01*
G01X15609Y909D01*
G01X15595Y882D01*
G01X15595Y827D01*
G01X15609Y800D01*
G01X15636Y773D01*
G01X15663Y759D01*
G01X15813Y465D02*
G01X15841Y478D01*
G01X15868Y505D01*
G01X15882Y533D01*
G01X15882Y587D01*
G01X15868Y615D01*
G01X15841Y642D01*
G01X15813Y655D01*
G01X15773Y669D01*
G01X15704Y669D01*
G01X15663Y655D01*
G01X15636Y642D01*
G01X15609Y615D01*
G01X15595Y587D01*
G01X15595Y533D01*
G01X15609Y505D01*
G01X15636Y478D01*
G01X15663Y465D01*
G01X2000Y12400D02*
G01X2109Y12113D01*
G01X2217Y12400D02*
G01X2109Y12113D01*
G01X2307Y12400D02*
G01X2307Y12113D01*
G01X2398Y12400D02*
G01X2398Y12113D01*
G01X2398Y12400D02*
G01X2588Y12113D01*
G01X2588Y12400D02*
G01X2588Y12113D01*
G01X2205Y11294D02*
G01X2190Y11323D01*
G01X2163Y11350D01*
G01X2136Y11363D01*
G01X2082Y11363D01*
G01X2055Y11350D01*
G01X2026Y11323D01*
G01X2013Y11294D01*
G01X2000Y11255D01*
G01X2000Y11186D01*
G01X2013Y11144D01*
G01X2026Y11117D01*
G01X2055Y11090D01*
G01X2082Y11076D01*
G01X2136Y11076D01*
G01X2163Y11090D01*
G01X2190Y11117D01*
G01X2205Y11144D01*
G01X2205Y11186D01*
G01X2136Y11186D02*
G01X2205Y11186D01*
G01X2294Y11363D02*
G01X2294Y11076D01*
G01X2294Y11363D02*
G01X2484Y11076D01*
G01X2484Y11363D02*
G01X2484Y11076D01*
G01X2575Y11363D02*
G01X2575Y11076D01*
G01X2575Y11363D02*
G01X2671Y11363D01*
G01X2711Y11350D01*
G01X2738Y11323D01*
G01X2753Y11294D01*
G01X2765Y11255D01*
G01X2765Y11186D01*
G01X2753Y11144D01*
G01X2738Y11117D01*
G01X2711Y11090D01*
G01X2671Y11076D01*
G01X2575Y11076D01*
G01X2190Y10323D02*
G01X2163Y10350D01*
G01X2123Y10363D01*
G01X2067Y10363D01*
G01X2026Y10350D01*
G01X2000Y10323D01*
G01X2000Y10294D01*
G01X2013Y10267D01*
G01X2026Y10255D01*
G01X2055Y10240D01*
G01X2136Y10213D01*
G01X2163Y10200D01*
G01X2176Y10186D01*
G01X2190Y10159D01*
G01X2190Y10117D01*
G01X2163Y10090D01*
G01X2123Y10076D01*
G01X2067Y10076D01*
G01X2026Y10090D01*
G01X2000Y10117D01*
G01X2484Y10294D02*
G01X2471Y10323D01*
G01X2444Y10350D01*
G01X2417Y10363D01*
G01X2363Y10363D01*
G01X2334Y10350D01*
G01X2307Y10323D01*
G01X2294Y10294D01*
G01X2280Y10255D01*
G01X2280Y10186D01*
G01X2294Y10144D01*
G01X2307Y10117D01*
G01X2334Y10090D01*
G01X2363Y10076D01*
G01X2417Y10076D01*
G01X2444Y10090D01*
G01X2471Y10117D01*
G01X2484Y10144D01*
G01X2575Y10363D02*
G01X2575Y10076D01*
G01X2575Y10076D02*
G01X2738Y10076D01*
G01X2190Y9323D02*
G01X2163Y9350D01*
G01X2123Y9363D01*
G01X2067Y9363D01*
G01X2026Y9350D01*
G01X2000Y9323D01*
G01X2000Y9294D01*
G01X2013Y9267D01*
G01X2026Y9255D01*
G01X2055Y9240D01*
G01X2136Y9213D01*
G01X2163Y9200D01*
G01X2176Y9186D01*
G01X2190Y9159D01*
G01X2190Y9117D01*
G01X2163Y9090D01*
G01X2123Y9076D01*
G01X2067Y9076D01*
G01X2026Y9090D01*
G01X2000Y9117D01*
G01X2280Y9363D02*
G01X2280Y9076D01*
G01X2280Y9363D02*
G01X2376Y9363D01*
G01X2417Y9350D01*
G01X2444Y9323D01*
G01X2457Y9294D01*
G01X2471Y9255D01*
G01X2471Y9186D01*
G01X2457Y9144D01*
G01X2444Y9117D01*
G01X2417Y9090D01*
G01X2376Y9076D01*
G01X2280Y9076D01*
G01X2671Y9363D02*
G01X2561Y9076D01*
G01X2671Y9363D02*
G01X2780Y9076D01*
G01X2603Y9173D02*
G01X2738Y9173D01*
G01X16760Y10418D02*
G01X16560Y10418D01*
G01X16668Y10563D01*
G01X16614Y10563D01*
G01X16577Y10581D01*
G01X16560Y10600D01*
G01X16540Y10654D01*
G01X16540Y10691D01*
G01X16560Y10745D01*
G01X16596Y10781D01*
G01X16651Y10800D01*
G01X16705Y10800D01*
G01X16760Y10781D01*
G01X16777Y10763D01*
G01X16796Y10727D01*
G01X16402Y10709D02*
G01X16421Y10727D01*
G01X16402Y10745D01*
G01X16385Y10727D01*
G01X16402Y10709D01*
G01X16228Y10418D02*
G01X16028Y10418D01*
G01X16138Y10563D01*
G01X16082Y10563D01*
G01X16047Y10581D01*
G01X16028Y10600D01*
G01X16010Y10654D01*
G01X16010Y10691D01*
G01X16028Y10745D01*
G01X16064Y10781D01*
G01X16119Y10800D01*
G01X16173Y10800D01*
G01X16228Y10781D01*
G01X16247Y10763D01*
G01X16264Y10727D01*
G01X15890Y10418D02*
G01X15744Y10800D01*
G01X15600Y10418D02*
G01X15744Y10800D01*
G01X18649Y10508D02*
G01X18667Y10471D01*
G01X18704Y10435D01*
G01X18740Y10417D01*
G01X18813Y10417D01*
G01X18849Y10435D01*
G01X18886Y10471D01*
G01X18904Y10508D01*
G01X18922Y10562D01*
G01X18922Y10653D01*
G01X18904Y10708D01*
G01X18886Y10744D01*
G01X18849Y10780D01*
G01X18813Y10799D01*
G01X18740Y10799D01*
G01X18704Y10780D01*
G01X18667Y10744D01*
G01X18649Y10708D01*
G01X18649Y10653D01*
G01X18740Y10653D02*
G01X18649Y10653D01*
G01X18529Y10417D02*
G01X18529Y10799D01*
G01X18529Y10417D02*
G01X18275Y10799D01*
G01X18275Y10417D02*
G01X18275Y10799D01*
G01X18155Y10417D02*
G01X18155Y10799D01*
G01X18155Y10417D02*
G01X18027Y10417D01*
G01X17973Y10435D01*
G01X17937Y10471D01*
G01X17918Y10508D01*
G01X17900Y10562D01*
G01X17900Y10653D01*
G01X17918Y10708D01*
G01X17937Y10744D01*
G01X17973Y10780D01*
G01X18027Y10799D01*
G01X18155Y10799D01*
G01X8500Y500D02*
G01X8500Y213D01*
G01X8500Y500D02*
G01X8622Y500D01*
G01X8664Y486D01*
G01X8677Y472D01*
G01X8690Y445D01*
G01X8690Y418D01*
G01X8677Y391D01*
G01X8664Y377D01*
G01X8622Y363D01*
G01X8500Y363D01*
G01X8594Y363D02*
G01X8690Y213D01*
G01X8781Y500D02*
G01X8972Y213D01*
G01X8972Y500D02*
G01X8781Y213D01*
G01X9594Y500D02*
G01X9594Y213D01*
G01X9500Y500D02*
G01X9690Y500D01*
G01X9781Y500D02*
G01X9972Y213D01*
G01X9972Y500D02*
G01X9781Y213D01*
G01X10400Y500D02*
G01X10509Y213D01*
G01X10618Y500D02*
G01X10509Y213D01*
G01X10913Y431D02*
G01X10898Y459D01*
G01X10872Y486D01*
G01X10844Y500D01*
G01X10789Y500D01*
G01X10763Y486D01*
G01X10735Y459D01*
G01X10722Y431D01*
G01X10707Y391D01*
G01X10707Y322D01*
G01X10722Y281D01*
G01X10735Y254D01*
G01X10763Y227D01*
G01X10789Y213D01*
G01X10844Y213D01*
G01X10872Y227D01*
G01X10898Y254D01*
G01X10913Y281D01*
G01X11206Y431D02*
G01X11193Y459D01*
G01X11165Y486D01*
G01X11139Y500D01*
G01X11085Y500D01*
G01X11056Y486D01*
G01X11030Y459D01*
G01X11015Y431D01*
G01X11002Y391D01*
G01X11002Y322D01*
G01X11015Y281D01*
G01X11030Y254D01*
G01X11056Y227D01*
G01X11085Y213D01*
G01X11139Y213D01*
G01X11165Y227D01*
G01X11193Y254D01*
G01X11206Y281D01*
G01X12605Y431D02*
G01X12590Y459D01*
G01X12564Y486D01*
G01X12535Y500D01*
G01X12481Y500D01*
G01X12455Y486D01*
G01X12427Y459D01*
G01X12414Y431D01*
G01X12400Y391D01*
G01X12400Y322D01*
G01X12414Y281D01*
G01X12427Y254D01*
G01X12455Y227D01*
G01X12481Y213D01*
G01X12535Y213D01*
G01X12564Y227D01*
G01X12590Y254D01*
G01X12605Y281D01*
G01X12605Y322D01*
G01X12535Y322D02*
G01X12605Y322D01*
G01X12694Y500D02*
G01X12694Y213D01*
G01X12694Y500D02*
G01X12885Y213D01*
G01X12885Y500D02*
G01X12885Y213D01*
G01X12975Y500D02*
G01X12975Y213D01*
G01X12975Y500D02*
G01X13071Y500D01*
G01X13111Y486D01*
G01X13139Y459D01*
G01X13152Y431D01*
G01X13165Y391D01*
G01X13165Y322D01*
G01X13152Y281D01*
G01X13139Y254D01*
G01X13111Y227D01*
G01X13071Y213D01*
G01X12975Y213D01*
G54D11*
G01X490Y4863D02*
G01X417Y4863D01*
G01X344Y4826D01*
G01X309Y4717D01*
G01X309Y4100D01*
G01X200Y4609D02*
G01X455Y4609D01*
G01X730Y4609D02*
G01X730Y4100D01*
G01X730Y4390D02*
G01X767Y4500D01*
G01X840Y4571D01*
G01X913Y4609D01*
G01X1021Y4609D01*
G01X1261Y4390D02*
G01X1698Y4390D01*
G01X1698Y4463D01*
G01X1661Y4536D01*
G01X1625Y4571D01*
G01X1553Y4609D01*
G01X1444Y4609D01*
G01X1371Y4571D01*
G01X1298Y4500D01*
G01X1261Y4390D01*
G01X1261Y4317D01*
G01X1298Y4209D01*
G01X1371Y4136D01*
G01X1444Y4100D01*
G01X1553Y4100D01*
G01X1625Y4136D01*
G01X1698Y4209D01*
G01X1938Y4863D02*
G01X1975Y4826D01*
G01X2011Y4863D01*
G01X1975Y4900D01*
G01X1938Y4863D01*
G01X1975Y4609D02*
G01X1975Y4100D01*
G01X2542Y4863D02*
G01X2469Y4863D01*
G01X2396Y4826D01*
G01X2359Y4717D01*
G01X2359Y4100D01*
G01X2251Y4609D02*
G01X2505Y4609D01*
G01X2782Y4609D02*
G01X2782Y4244D01*
G01X2817Y4136D01*
G01X2890Y4100D01*
G01X3000Y4100D01*
G01X3073Y4136D01*
G01X3182Y4244D01*
G01X3182Y4609D02*
G01X3182Y4100D01*
G01X3421Y4609D02*
G01X3421Y4100D01*
G01X3421Y4463D02*
G01X3530Y4571D01*
G01X3603Y4609D01*
G01X3713Y4609D01*
G01X3784Y4571D01*
G01X3821Y4463D01*
G01X3821Y4100D01*
G01X4061Y4863D02*
G01X4061Y4100D01*
G01X4425Y4609D02*
G01X4061Y4244D01*
G01X4207Y4390D02*
G01X4461Y4100D01*
G01X4702Y4426D02*
G01X5356Y4426D01*
G01X5596Y4863D02*
G01X5632Y4826D01*
G01X5668Y4863D01*
G01X5632Y4900D01*
G01X5596Y4863D01*
G01X5632Y4609D02*
G01X5632Y4100D01*
G01X6090Y4609D02*
G01X6018Y4571D01*
G01X5944Y4500D01*
G01X5909Y4390D01*
G01X5909Y4317D01*
G01X5944Y4209D01*
G01X6018Y4136D01*
G01X6090Y4100D01*
G01X6200Y4100D01*
G01X6272Y4136D01*
G01X6344Y4209D01*
G01X6381Y4317D01*
G01X6381Y4390D01*
G01X6344Y4500D01*
G01X6272Y4571D01*
G01X6200Y4609D01*
G01X6090Y4609D01*
G01X6731Y4863D02*
G01X6731Y4244D01*
G01X6767Y4136D01*
G01X6839Y4100D01*
G01X6913Y4100D01*
G01X6622Y4609D02*
G01X6876Y4609D01*
G01X7189Y4282D02*
G01X7152Y4244D01*
G01X7189Y4209D01*
G01X7225Y4244D01*
G01X7189Y4282D01*
G01X7902Y4863D02*
G01X7902Y4100D01*
G01X7902Y4500D02*
G01X7828Y4571D01*
G01X7756Y4609D01*
G01X7647Y4609D01*
G01X7575Y4571D01*
G01X7502Y4500D01*
G01X7464Y4390D01*
G01X7464Y4317D01*
G01X7502Y4209D01*
G01X7575Y4136D01*
G01X7647Y4100D01*
G01X7756Y4100D01*
G01X7828Y4136D01*
G01X7902Y4209D01*
G01X8142Y4390D02*
G01X8577Y4390D01*
G01X8577Y4463D01*
G01X8542Y4536D01*
G01X8505Y4571D01*
G01X8432Y4609D01*
G01X8323Y4609D01*
G01X8251Y4571D01*
G01X8177Y4500D01*
G01X8142Y4390D01*
G01X8142Y4317D01*
G01X8177Y4209D01*
G01X8251Y4136D01*
G01X8323Y4100D01*
G01X8432Y4100D01*
G01X8505Y4136D01*
G01X8577Y4209D01*
G01X400Y6999D02*
G01X400Y6236D01*
G01X400Y6999D02*
G01X726Y6999D01*
G01X836Y6963D01*
G01X873Y6927D01*
G01X909Y6854D01*
G01X909Y6781D01*
G01X873Y6708D01*
G01X836Y6672D01*
G01X726Y6636D01*
G01X400Y6636D01*
G01X655Y6636D02*
G01X909Y6236D01*
G01X1148Y6999D02*
G01X1148Y6236D01*
G01X1148Y6999D02*
G01X1621Y6999D01*
G01X1148Y6636D02*
G01X1440Y6636D01*
G01X1148Y6236D02*
G01X1621Y6236D01*
G01X1861Y6999D02*
G01X2153Y6236D01*
G01X2444Y6999D02*
G01X2153Y6236D01*
G01X2719Y6418D02*
G01X2684Y6381D01*
G01X2719Y6345D01*
G01X2755Y6381D01*
G01X2719Y6418D01*
G01X3592Y6818D02*
G01X3592Y6854D01*
G01X3628Y6927D01*
G01X3665Y6963D01*
G01X3738Y6999D01*
G01X3884Y6999D01*
G01X3955Y6963D01*
G01X3992Y6927D01*
G01X4028Y6854D01*
G01X4028Y6781D01*
G01X3992Y6708D01*
G01X3919Y6599D01*
G01X3555Y6236D01*
G01X4065Y6236D01*
G54D27*
G01X367Y5267D02*
G01X340Y5255D01*
G01X313Y5226D01*
G01X300Y5186D01*
G01X300Y5159D01*
G01X313Y5117D01*
G01X340Y5090D01*
G01X367Y5076D01*
G01X409Y5076D01*
G01X436Y5090D01*
G01X463Y5117D01*
G01X476Y5159D01*
G01X476Y5186D01*
G01X463Y5226D01*
G01X436Y5255D01*
G01X409Y5267D01*
G01X367Y5267D01*
G01X567Y5267D02*
G01X567Y5076D01*
G01X567Y5213D02*
G01X607Y5255D01*
G01X634Y5267D01*
G01X676Y5267D01*
G01X703Y5255D01*
G01X717Y5213D01*
G01X717Y5076D01*
G01X1017Y5363D02*
G01X1017Y5076D01*
G01X1017Y5363D02*
G01X1194Y5363D01*
G01X1017Y5226D02*
G01X1126Y5226D01*
G01X1017Y5076D02*
G01X1194Y5076D01*
G01X1475Y5323D02*
G01X1448Y5350D01*
G01X1407Y5363D01*
G01X1353Y5363D01*
G01X1311Y5350D01*
G01X1284Y5323D01*
G01X1284Y5294D01*
G01X1298Y5267D01*
G01X1311Y5255D01*
G01X1338Y5240D01*
G01X1421Y5213D01*
G01X1448Y5200D01*
G01X1461Y5186D01*
G01X1475Y5159D01*
G01X1475Y5117D01*
G01X1448Y5090D01*
G01X1407Y5076D01*
G01X1353Y5076D01*
G01X1311Y5090D01*
G01X1284Y5117D01*
G01X1565Y5363D02*
G01X1565Y5076D01*
G01X1565Y5363D02*
G01X1688Y5363D01*
G01X1728Y5350D01*
G01X1742Y5336D01*
G01X1755Y5309D01*
G01X1755Y5267D01*
G01X1742Y5240D01*
G01X1728Y5226D01*
G01X1688Y5213D01*
G01X1565Y5213D01*
G01X1846Y5200D02*
G01X2092Y5200D01*
G01X2263Y5363D02*
G01X2223Y5350D01*
G01X2194Y5309D01*
G01X2182Y5240D01*
G01X2182Y5200D01*
G01X2194Y5132D01*
G01X2223Y5090D01*
G01X2263Y5076D01*
G01X2290Y5076D01*
G01X2332Y5090D01*
G01X2359Y5132D01*
G01X2373Y5200D01*
G01X2373Y5240D01*
G01X2359Y5309D01*
G01X2332Y5350D01*
G01X2290Y5363D01*
G01X2263Y5363D01*
G01X2490Y5363D02*
G01X2640Y5363D01*
G01X2557Y5255D01*
G01X2598Y5255D01*
G01X2626Y5240D01*
G01X2640Y5226D01*
G01X2653Y5186D01*
G01X2653Y5159D01*
G01X2640Y5117D01*
G01X2613Y5090D01*
G01X2571Y5076D01*
G01X2530Y5076D01*
G01X2490Y5090D01*
G01X2476Y5105D01*
G01X2463Y5132D01*
G01X2757Y5363D02*
G01X2757Y5173D01*
G01X2757Y5105D02*
G01X2744Y5090D01*
G01X2757Y5076D01*
G01X2771Y5090D01*
G01X2757Y5105D01*
G54D10*
G75*
G01X3813Y2081D02*
G03X3813Y2081I-295J0D01*
G01*
G75*
G01X4207Y2081D02*
G03X4207Y2081I-689J0D01*
G01*
G75*
G01X8675Y7000D02*
G03X8675Y7000I-1575J0D01*
G01*
G36*
G01X16316Y9216D02*
G01X18324Y9216D01*
G01X18303Y7464D01*
G01X16275Y7464D01*
G01X16316Y9216D01*
G37*
G36*
G01X16316Y3056D02*
G01X18303Y3056D01*
G01X18303Y1401D01*
G01X16335Y1401D01*
G01X16316Y3056D01*
G37*
G36*
G01X8100Y8200D02*
G01X8100Y5800D01*
G01X8400Y6100D01*
G01X8600Y6500D01*
G01X8700Y7000D01*
G01X8600Y7400D01*
G01X8500Y7700D01*
G01X8100Y8200D01*
G37*
M00*
M02*
