G04 ---------------------------- Layer name :TOP SOLDER LAYER*
G04 EasyEDA v5.5.15, Tue, 03 Jul 2018 18:31:12 GMT*
G04 565f939dbb094c109ad1478ea9632299*
G04 Gerber Generator version 0.2*
G04 Scale: 100 percent, Rotated: No, Reflected: No *
G04 Dimensions in inches *
G04 leading zeros omitted , absolute positions ,2 integer and 4 decimal *
%FSLAX24Y24*%
%MOIN*%
G90*
G70D02*

%ADD13R,0.071000X0.078900*%
%ADD14R,0.078900X0.071000*%
%ADD15R,0.055240X0.054460*%
%ADD16R,0.067100X0.047400*%
%ADD17C,0.070000*%
%ADD18R,0.070000X0.070000*%
%ADD19C,0.086740*%
%ADD20R,0.126110X0.165480*%
%ADD21R,0.126110X0.244220*%
%ADD22C,0.068000*%

%LPD*%
G54D13*
G01X14050Y4899D03*
G01X12950Y4899D03*
G54D14*
G01X10000Y3550D03*
G01X10000Y4650D03*
G54D17*
G01X12800Y1200D03*
G01X11800Y1200D03*
G01X10800Y1200D03*
G01X9800Y1200D03*
G01X8800Y1200D03*
G54D18*
G01X7800Y1200D03*
G01X3300Y9200D03*
G54D17*
G01X3300Y10200D03*
G01X3300Y11200D03*
G01X3300Y12200D03*
G54D15*
G01X15101Y1223D03*
G01X15101Y1775D03*
G54D19*
G01X16300Y12650D03*
G01X18268Y12650D03*
G54D20*
G01X17300Y9335D03*
G01X17300Y1265D03*
G54D21*
G01X17300Y7523D03*
G01X17300Y3076D03*
G54D19*
G01X4877Y2848D03*
G01X2121Y2848D03*
G01X2121Y1311D03*
G01X4877Y1311D03*
G54D22*
G01X6400Y7000D03*
G01X7800Y7000D03*
G54D13*
G01X5550Y9300D03*
G01X6650Y9300D03*
G01X5550Y10800D03*
G01X6650Y10800D03*
G54D16*
G01X9851Y11590D03*
G01X9851Y10800D03*
G01X9851Y10009D03*
G01X9851Y9230D03*
G01X9851Y8440D03*
G01X9851Y7650D03*
G01X9851Y6869D03*
G01X14810Y11590D03*
G01X14810Y10800D03*
G01X14810Y10009D03*
G01X14810Y9230D03*
G01X14810Y8440D03*
G01X14810Y7650D03*
G01X14810Y6869D03*
M00*
M02*
