;PTH Drill file created by EasyEDA 
M48
INCH,LZ
;Holesize 1 = 0.012 INCH
T01C0.012
;Holesize 2 = 0.035 INCH
T02C0.035
;Holesize 3 = 0.036 INCH
T03C0.036
;Holesize 4 = 0.047 INCH
T04C0.047
;Holesize 5 = 0.051 INCH
T05C0.051
;Holesize 6 = 0.055 INCH
T06C0.055
%
G05
G90
T01
X012864Y004361
T02
X012800Y001200
X011800Y001200
X010800Y001200
X009800Y001200
X008800Y001200
X007800Y001200
X003300Y009200
X003300Y010200
X003300Y011200
X003300Y012200
T03
X006400Y007000
X007800Y007000
T04
X004877Y002848
X002121Y002848
X002121Y001311
X004877Y001311
T05
X016300Y012650
X018268Y012650
T06
X017300Y009335
X017300Y001265
X017300Y007523
X017300Y003076
M30
