G04 ---------------------------- Layer name :TOP LAYER*
G04 EasyEDA v5.5.15, Tue, 03 Jul 2018 18:31:12 GMT*
G04 565f939dbb094c109ad1478ea9632299*
G04 Gerber Generator version 0.2*
G04 Scale: 100 percent, Rotated: No, Reflected: No *
G04 Dimensions in inches *
G04 leading zeros omitted , absolute positions ,2 integer and 4 decimal *
%FSLAX24Y24*%
%MOIN*%
G90*
G70D02*

%ADD10C,0.010000*%
%ADD11C,0.008000*%
%ADD12C,0.024000*%
%ADD13R,0.063000X0.070900*%
%ADD14R,0.070900X0.063000*%
%ADD15R,0.047240X0.046460*%
%ADD16R,0.059100X0.039400*%
%ADD17C,0.062000*%
%ADD18R,0.062000X0.062000*%
%ADD19C,0.078740*%
%ADD20R,0.118110X0.157480*%
%ADD21R,0.118110X0.236220*%
%ADD22C,0.060000*%

%LPD*%
G36*
G01X0Y0D02*
G01X0Y13600D01*
G01X20400Y13600D01*
G01X20400Y0D01*
G01X0Y0D01*
G37*

%LPC*%
G36*
G01X17816Y12846D02*
G01X18072Y12846D01*
G01X18072Y13102D01*
G01X18065Y13100D01*
G01X18022Y13077D01*
G01X17980Y13050D01*
G01X17942Y13020D01*
G01X17907Y12985D01*
G01X17875Y12948D01*
G01X17847Y12907D01*
G01X17824Y12864D01*
G01X17816Y12846D01*
G37*
G36*
G01X787Y200D02*
G01X837Y201D01*
G01X886Y207D01*
G01X935Y218D01*
G01X982Y234D01*
G01X1028Y255D01*
G01X1071Y279D01*
G01X1111Y309D01*
G01X1149Y342D01*
G01X1183Y378D01*
G01X1213Y418D01*
G01X1239Y460D01*
G01X1260Y505D01*
G01X1277Y552D01*
G01X1290Y600D01*
G01X1297Y650D01*
G01X1300Y700D01*
G01X1297Y749D01*
G01X1290Y799D01*
G01X1277Y847D01*
G01X1260Y894D01*
G01X1239Y939D01*
G01X1213Y981D01*
G01X1183Y1021D01*
G01X1149Y1057D01*
G01X1111Y1090D01*
G01X1071Y1120D01*
G01X1028Y1144D01*
G01X982Y1165D01*
G01X935Y1181D01*
G01X886Y1192D01*
G01X837Y1198D01*
G01X787Y1199D01*
G01X737Y1196D01*
G01X688Y1187D01*
G01X640Y1173D01*
G01X594Y1155D01*
G01X550Y1133D01*
G01X508Y1105D01*
G01X469Y1074D01*
G01X433Y1040D01*
G01X401Y1001D01*
G01X373Y960D01*
G01X349Y916D01*
G01X330Y871D01*
G01X315Y823D01*
G01X305Y774D01*
G01X300Y724D01*
G01X300Y675D01*
G01X305Y625D01*
G01X315Y576D01*
G01X330Y528D01*
G01X349Y483D01*
G01X373Y439D01*
G01X401Y398D01*
G01X433Y359D01*
G01X469Y325D01*
G01X508Y294D01*
G01X550Y266D01*
G01X594Y244D01*
G01X640Y226D01*
G01X688Y212D01*
G01X737Y203D01*
G01X787Y200D01*
G37*
G36*
G01X16710Y378D02*
G01X17890Y378D01*
G01X17895Y378D01*
G01X17899Y378D01*
G01X17903Y378D01*
G01X17907Y379D01*
G01X17911Y380D01*
G01X17915Y381D01*
G01X17919Y382D01*
G01X17923Y383D01*
G01X17927Y384D01*
G01X17931Y386D01*
G01X17934Y388D01*
G01X17938Y390D01*
G01X17942Y392D01*
G01X17945Y394D01*
G01X17949Y396D01*
G01X17952Y399D01*
G01X17955Y401D01*
G01X17958Y404D01*
G01X17961Y407D01*
G01X17964Y410D01*
G01X17967Y413D01*
G01X17969Y416D01*
G01X17972Y419D01*
G01X17974Y423D01*
G01X17976Y426D01*
G01X17978Y430D01*
G01X17980Y434D01*
G01X17982Y437D01*
G01X17984Y441D01*
G01X17985Y445D01*
G01X17986Y449D01*
G01X17987Y453D01*
G01X17988Y457D01*
G01X17989Y461D01*
G01X17990Y465D01*
G01X17990Y469D01*
G01X17990Y473D01*
G01X17990Y478D01*
G01X17990Y4257D01*
G01X17990Y4261D01*
G01X17990Y4265D01*
G01X17990Y4269D01*
G01X17989Y4273D01*
G01X17988Y4277D01*
G01X17987Y4281D01*
G01X17986Y4285D01*
G01X17985Y4289D01*
G01X17984Y4293D01*
G01X17982Y4297D01*
G01X17980Y4300D01*
G01X17978Y4304D01*
G01X17976Y4308D01*
G01X17974Y4311D01*
G01X17972Y4315D01*
G01X17969Y4318D01*
G01X17967Y4321D01*
G01X17964Y4324D01*
G01X17961Y4327D01*
G01X17958Y4330D01*
G01X17955Y4333D01*
G01X17952Y4335D01*
G01X17949Y4338D01*
G01X17945Y4340D01*
G01X17942Y4342D01*
G01X17938Y4344D01*
G01X17934Y4346D01*
G01X17931Y4348D01*
G01X17927Y4350D01*
G01X17923Y4351D01*
G01X17919Y4352D01*
G01X17915Y4353D01*
G01X17911Y4354D01*
G01X17907Y4355D01*
G01X17903Y4356D01*
G01X17899Y4356D01*
G01X17895Y4356D01*
G01X17890Y4357D01*
G01X16710Y4357D01*
G01X16705Y4356D01*
G01X16701Y4356D01*
G01X16697Y4356D01*
G01X16693Y4355D01*
G01X16689Y4354D01*
G01X16685Y4353D01*
G01X16681Y4352D01*
G01X16677Y4351D01*
G01X16673Y4350D01*
G01X16669Y4348D01*
G01X16666Y4346D01*
G01X16662Y4344D01*
G01X16658Y4342D01*
G01X16655Y4340D01*
G01X16651Y4338D01*
G01X16648Y4335D01*
G01X16645Y4333D01*
G01X16642Y4330D01*
G01X16639Y4327D01*
G01X16636Y4324D01*
G01X16633Y4321D01*
G01X16631Y4318D01*
G01X16628Y4315D01*
G01X16626Y4311D01*
G01X16624Y4308D01*
G01X16622Y4304D01*
G01X16620Y4300D01*
G01X16618Y4297D01*
G01X16616Y4293D01*
G01X16615Y4289D01*
G01X16614Y4285D01*
G01X16613Y4281D01*
G01X16612Y4277D01*
G01X16611Y4273D01*
G01X16610Y4269D01*
G01X16610Y4265D01*
G01X16610Y4261D01*
G01X16610Y4257D01*
G01X16610Y1456D01*
G01X16185Y1881D01*
G01X16181Y1884D01*
G01X16177Y1888D01*
G01X16173Y1891D01*
G01X16169Y1894D01*
G01X16165Y1897D01*
G01X16161Y1900D01*
G01X16156Y1903D01*
G01X16152Y1905D01*
G01X16148Y1908D01*
G01X16143Y1910D01*
G01X16138Y1912D01*
G01X16134Y1914D01*
G01X16129Y1916D01*
G01X16124Y1917D01*
G01X16119Y1919D01*
G01X16114Y1920D01*
G01X16109Y1921D01*
G01X16104Y1922D01*
G01X16099Y1923D01*
G01X16094Y1924D01*
G01X16089Y1924D01*
G01X16084Y1924D01*
G01X16078Y1925D01*
G01X15436Y1925D01*
G01X15436Y2007D01*
G01X15436Y2011D01*
G01X15436Y2015D01*
G01X15436Y2019D01*
G01X15435Y2023D01*
G01X15434Y2027D01*
G01X15433Y2031D01*
G01X15432Y2035D01*
G01X15431Y2039D01*
G01X15430Y2043D01*
G01X15428Y2047D01*
G01X15426Y2050D01*
G01X15424Y2054D01*
G01X15422Y2058D01*
G01X15420Y2061D01*
G01X15418Y2065D01*
G01X15415Y2068D01*
G01X15413Y2071D01*
G01X15410Y2074D01*
G01X15407Y2077D01*
G01X15404Y2080D01*
G01X15401Y2083D01*
G01X15398Y2085D01*
G01X15395Y2088D01*
G01X15391Y2090D01*
G01X15388Y2092D01*
G01X15384Y2094D01*
G01X15380Y2096D01*
G01X15377Y2098D01*
G01X15373Y2100D01*
G01X15369Y2101D01*
G01X15365Y2102D01*
G01X15361Y2103D01*
G01X15357Y2104D01*
G01X15353Y2105D01*
G01X15349Y2106D01*
G01X15345Y2106D01*
G01X15341Y2106D01*
G01X15336Y2107D01*
G01X14864Y2107D01*
G01X14860Y2106D01*
G01X14856Y2106D01*
G01X14852Y2106D01*
G01X14848Y2105D01*
G01X14844Y2104D01*
G01X14840Y2103D01*
G01X14836Y2102D01*
G01X14832Y2101D01*
G01X14828Y2100D01*
G01X14824Y2098D01*
G01X14821Y2096D01*
G01X14817Y2094D01*
G01X14813Y2092D01*
G01X14810Y2090D01*
G01X14806Y2088D01*
G01X14803Y2085D01*
G01X14800Y2083D01*
G01X14797Y2080D01*
G01X14794Y2077D01*
G01X14791Y2074D01*
G01X14788Y2071D01*
G01X14786Y2068D01*
G01X14783Y2065D01*
G01X14781Y2061D01*
G01X14779Y2058D01*
G01X14777Y2054D01*
G01X14775Y2050D01*
G01X14773Y2047D01*
G01X14771Y2043D01*
G01X14770Y2039D01*
G01X14769Y2035D01*
G01X14768Y2031D01*
G01X14767Y2027D01*
G01X14766Y2023D01*
G01X14765Y2019D01*
G01X14765Y2015D01*
G01X14765Y2011D01*
G01X14764Y2007D01*
G01X14764Y1542D01*
G01X14765Y1538D01*
G01X14765Y1534D01*
G01X14765Y1530D01*
G01X14766Y1526D01*
G01X14767Y1522D01*
G01X14768Y1518D01*
G01X14769Y1514D01*
G01X14770Y1510D01*
G01X14771Y1506D01*
G01X14773Y1502D01*
G01X14774Y1499D01*
G01X14773Y1496D01*
G01X14771Y1492D01*
G01X14770Y1488D01*
G01X14769Y1484D01*
G01X14768Y1480D01*
G01X14767Y1476D01*
G01X14766Y1472D01*
G01X14765Y1468D01*
G01X14765Y1464D01*
G01X14765Y1460D01*
G01X14764Y1455D01*
G01X14764Y992D01*
G01X14765Y987D01*
G01X14765Y983D01*
G01X14765Y979D01*
G01X14766Y975D01*
G01X14767Y971D01*
G01X14768Y967D01*
G01X14769Y963D01*
G01X14770Y959D01*
G01X14771Y955D01*
G01X14773Y951D01*
G01X14775Y948D01*
G01X14777Y944D01*
G01X14779Y940D01*
G01X14781Y937D01*
G01X14783Y933D01*
G01X14786Y930D01*
G01X14788Y927D01*
G01X14791Y924D01*
G01X14794Y921D01*
G01X14797Y918D01*
G01X14800Y915D01*
G01X14802Y913D01*
G01X13093Y913D01*
G01X13114Y936D01*
G01X13138Y969D01*
G01X13160Y1003D01*
G01X13177Y1040D01*
G01X13179Y1044D01*
G01X12955Y1044D01*
G01X12955Y913D01*
G01X12644Y913D01*
G01X12644Y1044D01*
G01X12420Y1044D01*
G01X12430Y1022D01*
G01X12450Y986D01*
G01X12473Y952D01*
G01X12499Y921D01*
G01X12506Y913D01*
G01X12093Y913D01*
G01X12114Y936D01*
G01X12138Y969D01*
G01X12160Y1003D01*
G01X12177Y1040D01*
G01X12191Y1079D01*
G01X12201Y1118D01*
G01X12207Y1159D01*
G01X12210Y1200D01*
G01X12207Y1240D01*
G01X12201Y1281D01*
G01X12191Y1320D01*
G01X12177Y1359D01*
G01X12160Y1396D01*
G01X12138Y1430D01*
G01X12114Y1463D01*
G01X12086Y1493D01*
G01X12055Y1520D01*
G01X12022Y1544D01*
G01X11987Y1564D01*
G01X11949Y1581D01*
G01X11911Y1594D01*
G01X11871Y1603D01*
G01X11865Y1604D01*
G01X15668Y5406D01*
G01X15671Y5410D01*
G01X15675Y5414D01*
G01X15678Y5418D01*
G01X15681Y5422D01*
G01X15684Y5426D01*
G01X15687Y5430D01*
G01X15690Y5435D01*
G01X15692Y5439D01*
G01X15695Y5443D01*
G01X15697Y5448D01*
G01X15699Y5453D01*
G01X15701Y5457D01*
G01X15703Y5462D01*
G01X15704Y5467D01*
G01X15706Y5472D01*
G01X15707Y5477D01*
G01X15708Y5482D01*
G01X15709Y5487D01*
G01X15710Y5492D01*
G01X15711Y5497D01*
G01X15711Y5502D01*
G01X15711Y5507D01*
G01X15711Y5513D01*
G01X15711Y8886D01*
G01X15711Y8891D01*
G01X15711Y8896D01*
G01X15711Y8901D01*
G01X15710Y8906D01*
G01X15709Y8911D01*
G01X15708Y8916D01*
G01X15707Y8921D01*
G01X15706Y8926D01*
G01X15704Y8931D01*
G01X15703Y8936D01*
G01X15701Y8941D01*
G01X15699Y8945D01*
G01X15697Y8950D01*
G01X15695Y8955D01*
G01X15692Y8959D01*
G01X15690Y8964D01*
G01X15687Y8968D01*
G01X15684Y8972D01*
G01X15681Y8976D01*
G01X15678Y8980D01*
G01X15674Y8984D01*
G01X15671Y8988D01*
G01X15667Y8992D01*
G01X15322Y9336D01*
G01X15320Y9338D01*
G01X15319Y9339D01*
G01X15318Y9340D01*
G01X15317Y9341D01*
G01X15315Y9343D01*
G01X15313Y9344D01*
G01X15312Y9345D01*
G01X15311Y9346D01*
G01X15309Y9347D01*
G01X15307Y9349D01*
G01X15306Y9350D01*
G01X15305Y9350D01*
G01X15303Y9352D01*
G01X15301Y9353D01*
G01X15300Y9354D01*
G01X15299Y9355D01*
G01X15297Y9356D01*
G01X15295Y9357D01*
G01X15294Y9358D01*
G01X15293Y9359D01*
G01X15290Y9360D01*
G01X15288Y9361D01*
G01X15287Y9362D01*
G01X15286Y9362D01*
G01X15284Y9363D01*
G01X15282Y9365D01*
G01X15281Y9365D01*
G01X15280Y9366D01*
G01X15277Y9367D01*
G01X15275Y9368D01*
G01X15274Y9368D01*
G01X15273Y9369D01*
G01X15270Y9370D01*
G01X15268Y9370D01*
G01X15267Y9371D01*
G01X15266Y9371D01*
G01X15263Y9372D01*
G01X15261Y9373D01*
G01X15260Y9373D01*
G01X15259Y9373D01*
G01X15256Y9374D01*
G01X15254Y9375D01*
G01X15252Y9375D01*
G01X15251Y9375D01*
G01X15249Y9376D01*
G01X15246Y9377D01*
G01X15245Y9377D01*
G01X15244Y9377D01*
G01X15241Y9377D01*
G01X15239Y9378D01*
G01X15238Y9378D01*
G01X15237Y9378D01*
G01X15234Y9378D01*
G01X15231Y9379D01*
G01X15231Y9379D01*
G01X15229Y9379D01*
G01X15226Y9379D01*
G01X15224Y9379D01*
G01X15223Y9379D01*
G01X15222Y9379D01*
G01X15219Y9379D01*
G01X15217Y9380D01*
G01X15206Y9380D01*
G01X15206Y9426D01*
G01X15206Y9431D01*
G01X15206Y9435D01*
G01X15205Y9439D01*
G01X15205Y9443D01*
G01X15204Y9447D01*
G01X15203Y9451D01*
G01X15202Y9455D01*
G01X15201Y9459D01*
G01X15199Y9463D01*
G01X15198Y9467D01*
G01X15196Y9470D01*
G01X15194Y9474D01*
G01X15192Y9478D01*
G01X15190Y9481D01*
G01X15187Y9485D01*
G01X15185Y9488D01*
G01X15182Y9491D01*
G01X15180Y9494D01*
G01X15177Y9497D01*
G01X15174Y9500D01*
G01X15171Y9503D01*
G01X15167Y9505D01*
G01X15164Y9508D01*
G01X15161Y9510D01*
G01X15157Y9512D01*
G01X15154Y9514D01*
G01X15150Y9516D01*
G01X15146Y9518D01*
G01X15142Y9520D01*
G01X15138Y9521D01*
G01X15135Y9522D01*
G01X15131Y9523D01*
G01X15127Y9524D01*
G01X15122Y9525D01*
G01X15118Y9526D01*
G01X15114Y9526D01*
G01X15110Y9526D01*
G01X15106Y9526D01*
G01X14555Y9526D01*
G01X14555Y9713D01*
G01X15106Y9713D01*
G01X15110Y9713D01*
G01X15114Y9713D01*
G01X15118Y9713D01*
G01X15122Y9714D01*
G01X15127Y9715D01*
G01X15131Y9716D01*
G01X15135Y9717D01*
G01X15138Y9718D01*
G01X15142Y9719D01*
G01X15146Y9721D01*
G01X15150Y9723D01*
G01X15154Y9725D01*
G01X15157Y9727D01*
G01X15161Y9729D01*
G01X15164Y9731D01*
G01X15167Y9734D01*
G01X15171Y9736D01*
G01X15174Y9739D01*
G01X15177Y9742D01*
G01X15180Y9745D01*
G01X15182Y9748D01*
G01X15185Y9751D01*
G01X15187Y9754D01*
G01X15190Y9758D01*
G01X15192Y9761D01*
G01X15194Y9765D01*
G01X15196Y9769D01*
G01X15198Y9772D01*
G01X15199Y9776D01*
G01X15201Y9780D01*
G01X15202Y9784D01*
G01X15203Y9788D01*
G01X15204Y9792D01*
G01X15205Y9796D01*
G01X15205Y9800D01*
G01X15206Y9804D01*
G01X15206Y9808D01*
G01X15206Y9813D01*
G01X15206Y10207D01*
G01X15206Y10211D01*
G01X15206Y10215D01*
G01X15205Y10219D01*
G01X15205Y10223D01*
G01X15204Y10227D01*
G01X15203Y10231D01*
G01X15202Y10235D01*
G01X15201Y10239D01*
G01X15199Y10243D01*
G01X15198Y10247D01*
G01X15196Y10250D01*
G01X15194Y10254D01*
G01X15192Y10258D01*
G01X15190Y10261D01*
G01X15187Y10265D01*
G01X15185Y10268D01*
G01X15182Y10271D01*
G01X15180Y10274D01*
G01X15177Y10277D01*
G01X15174Y10280D01*
G01X15171Y10283D01*
G01X15167Y10285D01*
G01X15164Y10288D01*
G01X15161Y10290D01*
G01X15157Y10292D01*
G01X15154Y10294D01*
G01X15150Y10296D01*
G01X15146Y10298D01*
G01X15142Y10300D01*
G01X15138Y10301D01*
G01X15135Y10302D01*
G01X15131Y10303D01*
G01X15127Y10304D01*
G01X15122Y10305D01*
G01X15118Y10306D01*
G01X15114Y10306D01*
G01X15110Y10306D01*
G01X15106Y10307D01*
G01X14555Y10307D01*
G01X14555Y10503D01*
G01X15106Y10503D01*
G01X15110Y10503D01*
G01X15114Y10503D01*
G01X15118Y10503D01*
G01X15122Y10504D01*
G01X15127Y10505D01*
G01X15131Y10506D01*
G01X15135Y10507D01*
G01X15138Y10508D01*
G01X15142Y10509D01*
G01X15146Y10511D01*
G01X15150Y10513D01*
G01X15154Y10515D01*
G01X15157Y10517D01*
G01X15161Y10519D01*
G01X15164Y10521D01*
G01X15167Y10524D01*
G01X15171Y10526D01*
G01X15174Y10529D01*
G01X15177Y10532D01*
G01X15180Y10535D01*
G01X15182Y10538D01*
G01X15185Y10541D01*
G01X15187Y10544D01*
G01X15190Y10548D01*
G01X15192Y10551D01*
G01X15194Y10555D01*
G01X15196Y10559D01*
G01X15198Y10562D01*
G01X15199Y10566D01*
G01X15201Y10570D01*
G01X15202Y10574D01*
G01X15203Y10578D01*
G01X15204Y10582D01*
G01X15205Y10586D01*
G01X15205Y10590D01*
G01X15206Y10594D01*
G01X15206Y10598D01*
G01X15206Y10603D01*
G01X15206Y10996D01*
G01X15206Y11001D01*
G01X15206Y11005D01*
G01X15205Y11009D01*
G01X15205Y11013D01*
G01X15204Y11017D01*
G01X15203Y11021D01*
G01X15202Y11025D01*
G01X15201Y11029D01*
G01X15199Y11033D01*
G01X15198Y11037D01*
G01X15196Y11040D01*
G01X15194Y11044D01*
G01X15192Y11048D01*
G01X15190Y11051D01*
G01X15187Y11055D01*
G01X15185Y11058D01*
G01X15182Y11061D01*
G01X15180Y11064D01*
G01X15177Y11067D01*
G01X15174Y11070D01*
G01X15171Y11073D01*
G01X15167Y11075D01*
G01X15164Y11078D01*
G01X15161Y11080D01*
G01X15157Y11082D01*
G01X15154Y11084D01*
G01X15150Y11086D01*
G01X15146Y11088D01*
G01X15142Y11090D01*
G01X15138Y11091D01*
G01X15135Y11092D01*
G01X15131Y11093D01*
G01X15127Y11094D01*
G01X15122Y11095D01*
G01X15118Y11096D01*
G01X15114Y11096D01*
G01X15110Y11096D01*
G01X15106Y11096D01*
G01X14515Y11096D01*
G01X14511Y11096D01*
G01X14507Y11096D01*
G01X14503Y11096D01*
G01X14499Y11095D01*
G01X14494Y11094D01*
G01X14490Y11093D01*
G01X14486Y11092D01*
G01X14483Y11091D01*
G01X14479Y11090D01*
G01X14475Y11088D01*
G01X14471Y11086D01*
G01X14467Y11084D01*
G01X14464Y11082D01*
G01X14460Y11080D01*
G01X14457Y11078D01*
G01X14454Y11075D01*
G01X14450Y11073D01*
G01X14447Y11070D01*
G01X14444Y11067D01*
G01X14441Y11064D01*
G01X14439Y11061D01*
G01X14436Y11058D01*
G01X14434Y11055D01*
G01X14431Y11051D01*
G01X14429Y11048D01*
G01X14427Y11044D01*
G01X14425Y11040D01*
G01X14423Y11037D01*
G01X14422Y11033D01*
G01X14420Y11029D01*
G01X14419Y11025D01*
G01X14418Y11021D01*
G01X14417Y11017D01*
G01X14416Y11013D01*
G01X14416Y11009D01*
G01X14415Y11005D01*
G01X14415Y11001D01*
G01X14415Y10996D01*
G01X14415Y10950D01*
G01X14405Y10950D01*
G01X14403Y10949D01*
G01X14401Y10949D01*
G01X14399Y10949D01*
G01X14397Y10949D01*
G01X14395Y10949D01*
G01X14393Y10949D01*
G01X14391Y10949D01*
G01X14390Y10949D01*
G01X14388Y10949D01*
G01X14386Y10948D01*
G01X14384Y10948D01*
G01X14382Y10948D01*
G01X14380Y10948D01*
G01X14378Y10947D01*
G01X14377Y10947D01*
G01X14375Y10947D01*
G01X14373Y10946D01*
G01X14371Y10946D01*
G01X14369Y10945D01*
G01X14367Y10945D01*
G01X14366Y10944D01*
G01X14364Y10944D01*
G01X14362Y10943D01*
G01X14360Y10943D01*
G01X14358Y10942D01*
G01X14357Y10942D01*
G01X14355Y10941D01*
G01X14353Y10940D01*
G01X14352Y10940D01*
G01X14350Y10939D01*
G01X14348Y10938D01*
G01X14346Y10938D01*
G01X14345Y10937D01*
G01X14343Y10936D01*
G01X14341Y10935D01*
G01X14339Y10935D01*
G01X14338Y10934D01*
G01X14336Y10933D01*
G01X14334Y10932D01*
G01X14333Y10931D01*
G01X14331Y10930D01*
G01X14330Y10929D01*
G01X14328Y10928D01*
G01X14326Y10927D01*
G01X14325Y10926D01*
G01X14323Y10926D01*
G01X14322Y10925D01*
G01X14320Y10923D01*
G01X14318Y10922D01*
G01X14317Y10921D01*
G01X14316Y10920D01*
G01X14314Y10919D01*
G01X14312Y10918D01*
G01X14311Y10917D01*
G01X14310Y10916D01*
G01X14308Y10914D01*
G01X14307Y10913D01*
G01X14305Y10912D01*
G01X14304Y10911D01*
G01X14302Y10909D01*
G01X14301Y10908D01*
G01X14300Y10907D01*
G01X14298Y10906D01*
G01X14297Y10904D01*
G01X14296Y10903D01*
G01X14295Y10902D01*
G01X14293Y10900D01*
G01X14292Y10899D01*
G01X14291Y10897D01*
G01X14290Y10896D01*
G01X14288Y10894D01*
G01X14287Y10893D01*
G01X14286Y10892D01*
G01X14285Y10890D01*
G01X14284Y10888D01*
G01X14283Y10887D01*
G01X14282Y10886D01*
G01X14281Y10884D01*
G01X14279Y10882D01*
G01X14278Y10881D01*
G01X14278Y10879D01*
G01X14277Y10878D01*
G01X14276Y10876D01*
G01X14275Y10875D01*
G01X14274Y10873D01*
G01X14273Y10871D01*
G01X14272Y10870D01*
G01X14271Y10868D01*
G01X14270Y10866D01*
G01X14269Y10865D01*
G01X14269Y10863D01*
G01X14268Y10861D01*
G01X14267Y10859D01*
G01X14266Y10858D01*
G01X14266Y10856D01*
G01X14265Y10854D01*
G01X14264Y10852D01*
G01X14264Y10851D01*
G01X14263Y10849D01*
G01X14262Y10847D01*
G01X14262Y10846D01*
G01X14261Y10844D01*
G01X14261Y10842D01*
G01X14260Y10840D01*
G01X14260Y10838D01*
G01X14259Y10837D01*
G01X14259Y10835D01*
G01X14258Y10833D01*
G01X14258Y10831D01*
G01X14257Y10829D01*
G01X14257Y10827D01*
G01X14257Y10826D01*
G01X14256Y10824D01*
G01X14256Y10822D01*
G01X14256Y10820D01*
G01X14256Y10818D01*
G01X14255Y10816D01*
G01X14255Y10814D01*
G01X14255Y10813D01*
G01X14255Y10811D01*
G01X14255Y10809D01*
G01X14255Y10807D01*
G01X14255Y10805D01*
G01X14255Y10803D01*
G01X14255Y10801D01*
G01X14255Y10800D01*
G01X14255Y8951D01*
G01X14255Y8945D01*
G01X14255Y8940D01*
G01X14255Y8935D01*
G01X14256Y8929D01*
G01X14257Y8924D01*
G01X14258Y8919D01*
G01X14259Y8914D01*
G01X14261Y8908D01*
G01X14262Y8903D01*
G01X14264Y8898D01*
G01X14266Y8893D01*
G01X14268Y8888D01*
G01X14270Y8884D01*
G01X14273Y8879D01*
G01X14275Y8874D01*
G01X14278Y8870D01*
G01X14281Y8865D01*
G01X14284Y8861D01*
G01X14288Y8857D01*
G01X14291Y8853D01*
G01X14294Y8849D01*
G01X14298Y8845D01*
G01X14440Y8702D01*
G01X14439Y8701D01*
G01X14436Y8698D01*
G01X14434Y8695D01*
G01X14431Y8691D01*
G01X14429Y8688D01*
G01X14427Y8684D01*
G01X14425Y8680D01*
G01X14423Y8677D01*
G01X14422Y8673D01*
G01X14420Y8669D01*
G01X14419Y8665D01*
G01X14418Y8661D01*
G01X14417Y8657D01*
G01X14416Y8653D01*
G01X14416Y8649D01*
G01X14415Y8645D01*
G01X14415Y8641D01*
G01X14415Y8636D01*
G01X14415Y8242D01*
G01X14415Y8238D01*
G01X14415Y8234D01*
G01X14416Y8230D01*
G01X14416Y8226D01*
G01X14417Y8222D01*
G01X14418Y8218D01*
G01X14419Y8214D01*
G01X14420Y8210D01*
G01X14422Y8206D01*
G01X14423Y8202D01*
G01X14425Y8199D01*
G01X14427Y8195D01*
G01X14429Y8191D01*
G01X14431Y8188D01*
G01X14434Y8184D01*
G01X14436Y8181D01*
G01X14439Y8178D01*
G01X14441Y8175D01*
G01X14444Y8172D01*
G01X14447Y8169D01*
G01X14450Y8166D01*
G01X14454Y8164D01*
G01X14457Y8161D01*
G01X14460Y8159D01*
G01X14464Y8157D01*
G01X14467Y8155D01*
G01X14471Y8153D01*
G01X14475Y8151D01*
G01X14479Y8149D01*
G01X14483Y8148D01*
G01X14486Y8147D01*
G01X14490Y8146D01*
G01X14494Y8145D01*
G01X14499Y8144D01*
G01X14503Y8143D01*
G01X14507Y8143D01*
G01X14511Y8143D01*
G01X14515Y8142D01*
G01X15067Y8142D01*
G01X15067Y7946D01*
G01X14515Y7946D01*
G01X14511Y7946D01*
G01X14507Y7946D01*
G01X14503Y7946D01*
G01X14499Y7945D01*
G01X14494Y7944D01*
G01X14490Y7943D01*
G01X14486Y7942D01*
G01X14483Y7941D01*
G01X14479Y7940D01*
G01X14475Y7938D01*
G01X14471Y7936D01*
G01X14467Y7934D01*
G01X14464Y7932D01*
G01X14460Y7930D01*
G01X14457Y7928D01*
G01X14454Y7925D01*
G01X14450Y7923D01*
G01X14447Y7920D01*
G01X14444Y7917D01*
G01X14441Y7914D01*
G01X14439Y7911D01*
G01X14436Y7908D01*
G01X14434Y7905D01*
G01X14431Y7901D01*
G01X14429Y7898D01*
G01X14427Y7894D01*
G01X14425Y7890D01*
G01X14423Y7887D01*
G01X14422Y7883D01*
G01X14420Y7879D01*
G01X14419Y7875D01*
G01X14418Y7871D01*
G01X14417Y7867D01*
G01X14416Y7863D01*
G01X14416Y7859D01*
G01X14415Y7855D01*
G01X14415Y7851D01*
G01X14415Y7846D01*
G01X14415Y7453D01*
G01X14415Y7448D01*
G01X14415Y7444D01*
G01X14416Y7440D01*
G01X14416Y7436D01*
G01X14417Y7432D01*
G01X14418Y7428D01*
G01X14419Y7424D01*
G01X14420Y7420D01*
G01X14422Y7416D01*
G01X14423Y7412D01*
G01X14425Y7409D01*
G01X14427Y7405D01*
G01X14429Y7401D01*
G01X14431Y7398D01*
G01X14434Y7394D01*
G01X14436Y7391D01*
G01X14439Y7388D01*
G01X14441Y7385D01*
G01X14444Y7382D01*
G01X14447Y7379D01*
G01X14450Y7376D01*
G01X14454Y7374D01*
G01X14457Y7371D01*
G01X14460Y7369D01*
G01X14464Y7367D01*
G01X14467Y7365D01*
G01X14471Y7363D01*
G01X14475Y7361D01*
G01X14479Y7359D01*
G01X14483Y7358D01*
G01X14486Y7357D01*
G01X14490Y7356D01*
G01X14494Y7355D01*
G01X14499Y7354D01*
G01X14503Y7353D01*
G01X14507Y7353D01*
G01X14511Y7353D01*
G01X14515Y7353D01*
G01X15067Y7353D01*
G01X15067Y7167D01*
G01X14958Y7167D01*
G01X14958Y6968D01*
G01X15067Y6968D01*
G01X15067Y6771D01*
G01X14958Y6771D01*
G01X14958Y6711D01*
G01X14848Y6711D01*
G01X14843Y6711D01*
G01X14838Y6711D01*
G01X14833Y6711D01*
G01X14828Y6710D01*
G01X14823Y6709D01*
G01X14818Y6708D01*
G01X14813Y6707D01*
G01X14808Y6706D01*
G01X14803Y6704D01*
G01X14798Y6703D01*
G01X14793Y6701D01*
G01X14789Y6699D01*
G01X14784Y6697D01*
G01X14779Y6695D01*
G01X14775Y6692D01*
G01X14771Y6690D01*
G01X14766Y6687D01*
G01X14762Y6684D01*
G01X14758Y6681D01*
G01X14754Y6678D01*
G01X14750Y6675D01*
G01X14746Y6671D01*
G01X14742Y6668D01*
G01X14663Y6588D01*
G01X14663Y6771D01*
G01X14415Y6771D01*
G01X14415Y6673D01*
G01X14415Y6668D01*
G01X14415Y6664D01*
G01X14416Y6660D01*
G01X14416Y6656D01*
G01X14417Y6652D01*
G01X14418Y6648D01*
G01X14419Y6644D01*
G01X14420Y6640D01*
G01X14422Y6636D01*
G01X14423Y6632D01*
G01X14425Y6629D01*
G01X14427Y6625D01*
G01X14429Y6621D01*
G01X14431Y6618D01*
G01X14434Y6614D01*
G01X14436Y6611D01*
G01X14439Y6608D01*
G01X14441Y6605D01*
G01X14444Y6602D01*
G01X14447Y6599D01*
G01X14450Y6596D01*
G01X14454Y6594D01*
G01X14457Y6591D01*
G01X14460Y6589D01*
G01X14464Y6587D01*
G01X14467Y6585D01*
G01X14471Y6583D01*
G01X14475Y6581D01*
G01X14479Y6579D01*
G01X14483Y6578D01*
G01X14486Y6577D01*
G01X14490Y6576D01*
G01X14494Y6575D01*
G01X14499Y6574D01*
G01X14503Y6573D01*
G01X14507Y6573D01*
G01X14511Y6573D01*
G01X14515Y6573D01*
G01X14647Y6573D01*
G01X13423Y5349D01*
G01X13420Y5345D01*
G01X13416Y5341D01*
G01X13413Y5337D01*
G01X13410Y5333D01*
G01X13407Y5329D01*
G01X13404Y5325D01*
G01X13401Y5320D01*
G01X13399Y5316D01*
G01X13396Y5312D01*
G01X13394Y5307D01*
G01X13392Y5302D01*
G01X13390Y5298D01*
G01X13388Y5293D01*
G01X13387Y5288D01*
G01X13385Y5283D01*
G01X13384Y5278D01*
G01X13383Y5273D01*
G01X13382Y5268D01*
G01X13381Y5263D01*
G01X13380Y5258D01*
G01X13380Y5253D01*
G01X13380Y5248D01*
G01X13380Y5242D01*
G01X13380Y4698D01*
G01X13364Y4683D01*
G01X13364Y5253D01*
G01X13364Y5258D01*
G01X13364Y5262D01*
G01X13364Y5266D01*
G01X13363Y5270D01*
G01X13362Y5274D01*
G01X13361Y5278D01*
G01X13360Y5282D01*
G01X13359Y5286D01*
G01X13358Y5290D01*
G01X13356Y5294D01*
G01X13354Y5297D01*
G01X13352Y5301D01*
G01X13350Y5305D01*
G01X13348Y5308D01*
G01X13346Y5312D01*
G01X13343Y5315D01*
G01X13341Y5318D01*
G01X13338Y5321D01*
G01X13335Y5324D01*
G01X13332Y5327D01*
G01X13329Y5330D01*
G01X13326Y5332D01*
G01X13323Y5335D01*
G01X13319Y5337D01*
G01X13316Y5339D01*
G01X13312Y5341D01*
G01X13308Y5343D01*
G01X13305Y5345D01*
G01X13301Y5347D01*
G01X13297Y5348D01*
G01X13293Y5349D01*
G01X13289Y5350D01*
G01X13285Y5351D01*
G01X13281Y5352D01*
G01X13277Y5353D01*
G01X13273Y5353D01*
G01X13269Y5353D01*
G01X13264Y5353D01*
G01X12707Y5353D01*
G01X12550Y5511D01*
G01X12550Y10200D01*
G01X12549Y10205D01*
G01X12549Y10210D01*
G01X12549Y10215D01*
G01X12548Y10220D01*
G01X12547Y10225D01*
G01X12546Y10230D01*
G01X12545Y10235D01*
G01X12544Y10240D01*
G01X12542Y10245D01*
G01X12541Y10250D01*
G01X12539Y10255D01*
G01X12537Y10259D01*
G01X12535Y10264D01*
G01X12533Y10269D01*
G01X12530Y10273D01*
G01X12528Y10277D01*
G01X12525Y10282D01*
G01X12522Y10286D01*
G01X12519Y10290D01*
G01X12516Y10294D01*
G01X12513Y10298D01*
G01X12509Y10302D01*
G01X12506Y10306D01*
G01X11116Y11696D01*
G01X11112Y11699D01*
G01X11108Y11703D01*
G01X11104Y11706D01*
G01X11100Y11709D01*
G01X11096Y11712D01*
G01X11092Y11715D01*
G01X11087Y11718D01*
G01X11083Y11720D01*
G01X11079Y11723D01*
G01X11074Y11725D01*
G01X11069Y11727D01*
G01X11065Y11729D01*
G01X11060Y11731D01*
G01X11055Y11732D01*
G01X11050Y11734D01*
G01X11045Y11735D01*
G01X11040Y11736D01*
G01X11035Y11737D01*
G01X11030Y11738D01*
G01X11025Y11739D01*
G01X11020Y11739D01*
G01X11015Y11739D01*
G01X11010Y11740D01*
G01X10246Y11740D01*
G01X10246Y11786D01*
G01X10246Y11791D01*
G01X10246Y11795D01*
G01X10245Y11799D01*
G01X10245Y11803D01*
G01X10244Y11807D01*
G01X10243Y11811D01*
G01X10242Y11815D01*
G01X10241Y11819D01*
G01X10239Y11823D01*
G01X10238Y11827D01*
G01X10236Y11830D01*
G01X10234Y11834D01*
G01X10232Y11838D01*
G01X10230Y11841D01*
G01X10227Y11845D01*
G01X10225Y11848D01*
G01X10222Y11851D01*
G01X10220Y11854D01*
G01X10217Y11857D01*
G01X10214Y11860D01*
G01X10211Y11863D01*
G01X10207Y11865D01*
G01X10204Y11868D01*
G01X10201Y11870D01*
G01X10197Y11872D01*
G01X10194Y11874D01*
G01X10190Y11876D01*
G01X10186Y11878D01*
G01X10182Y11880D01*
G01X10178Y11881D01*
G01X10175Y11882D01*
G01X10171Y11883D01*
G01X10167Y11884D01*
G01X10162Y11885D01*
G01X10158Y11886D01*
G01X10154Y11886D01*
G01X10150Y11886D01*
G01X10146Y11886D01*
G01X9555Y11886D01*
G01X9551Y11886D01*
G01X9547Y11886D01*
G01X9543Y11886D01*
G01X9539Y11885D01*
G01X9534Y11884D01*
G01X9530Y11883D01*
G01X9526Y11882D01*
G01X9523Y11881D01*
G01X9519Y11880D01*
G01X9515Y11878D01*
G01X9511Y11876D01*
G01X9507Y11874D01*
G01X9504Y11872D01*
G01X9500Y11870D01*
G01X9497Y11868D01*
G01X9494Y11865D01*
G01X9490Y11863D01*
G01X9487Y11860D01*
G01X9484Y11857D01*
G01X9481Y11854D01*
G01X9479Y11851D01*
G01X9476Y11848D01*
G01X9474Y11845D01*
G01X9471Y11841D01*
G01X9469Y11838D01*
G01X9467Y11834D01*
G01X9465Y11830D01*
G01X9463Y11827D01*
G01X9462Y11823D01*
G01X9460Y11819D01*
G01X9459Y11815D01*
G01X9458Y11811D01*
G01X9457Y11807D01*
G01X9456Y11803D01*
G01X9456Y11799D01*
G01X9455Y11795D01*
G01X9455Y11791D01*
G01X9455Y11786D01*
G01X9455Y11740D01*
G01X7865Y11740D01*
G01X7860Y11739D01*
G01X7855Y11739D01*
G01X7850Y11739D01*
G01X7845Y11738D01*
G01X7840Y11737D01*
G01X7835Y11736D01*
G01X7830Y11735D01*
G01X7825Y11734D01*
G01X7820Y11732D01*
G01X7815Y11731D01*
G01X7810Y11729D01*
G01X7806Y11727D01*
G01X7801Y11725D01*
G01X7796Y11723D01*
G01X7792Y11720D01*
G01X7788Y11718D01*
G01X7783Y11715D01*
G01X7779Y11712D01*
G01X7775Y11709D01*
G01X7771Y11706D01*
G01X7767Y11703D01*
G01X7763Y11699D01*
G01X7759Y11696D01*
G01X7076Y11012D01*
G01X7064Y11023D01*
G01X7064Y11154D01*
G01X7064Y11158D01*
G01X7064Y11162D01*
G01X7064Y11166D01*
G01X7063Y11170D01*
G01X7062Y11175D01*
G01X7061Y11179D01*
G01X7060Y11183D01*
G01X7059Y11186D01*
G01X7058Y11190D01*
G01X7056Y11194D01*
G01X7054Y11198D01*
G01X7052Y11202D01*
G01X7050Y11205D01*
G01X7048Y11209D01*
G01X7046Y11212D01*
G01X7043Y11215D01*
G01X7041Y11219D01*
G01X7038Y11222D01*
G01X7035Y11225D01*
G01X7032Y11228D01*
G01X7029Y11230D01*
G01X7026Y11233D01*
G01X7023Y11235D01*
G01X7019Y11238D01*
G01X7016Y11240D01*
G01X7012Y11242D01*
G01X7008Y11244D01*
G01X7005Y11246D01*
G01X7001Y11247D01*
G01X6997Y11249D01*
G01X6993Y11250D01*
G01X6989Y11251D01*
G01X6985Y11252D01*
G01X6981Y11253D01*
G01X6977Y11253D01*
G01X6973Y11254D01*
G01X6969Y11254D01*
G01X6964Y11254D01*
G01X6833Y11254D01*
G01X5782Y12306D01*
G01X5778Y12309D01*
G01X5774Y12313D01*
G01X5770Y12316D01*
G01X5766Y12319D01*
G01X5762Y12322D01*
G01X5758Y12325D01*
G01X5753Y12328D01*
G01X5749Y12330D01*
G01X5745Y12333D01*
G01X5740Y12335D01*
G01X5735Y12337D01*
G01X5731Y12339D01*
G01X5726Y12341D01*
G01X5721Y12342D01*
G01X5716Y12344D01*
G01X5711Y12345D01*
G01X5706Y12346D01*
G01X5701Y12347D01*
G01X5696Y12348D01*
G01X5691Y12349D01*
G01X5686Y12349D01*
G01X5681Y12349D01*
G01X5676Y12350D01*
G01X3681Y12350D01*
G01X3677Y12359D01*
G01X3660Y12396D01*
G01X3638Y12430D01*
G01X3614Y12463D01*
G01X3586Y12493D01*
G01X3555Y12520D01*
G01X3522Y12544D01*
G01X3487Y12564D01*
G01X3449Y12581D01*
G01X3411Y12594D01*
G01X3371Y12603D01*
G01X3330Y12608D01*
G01X3289Y12609D01*
G01X3249Y12606D01*
G01X3208Y12599D01*
G01X3169Y12588D01*
G01X3131Y12573D01*
G01X3094Y12555D01*
G01X3060Y12532D01*
G01X3028Y12507D01*
G01X2999Y12478D01*
G01X2973Y12447D01*
G01X2950Y12413D01*
G01X2930Y12377D01*
G01X2914Y12340D01*
G01X2902Y12301D01*
G01X2894Y12261D01*
G01X2890Y12220D01*
G01X2890Y12179D01*
G01X2894Y12138D01*
G01X2902Y12098D01*
G01X2914Y12059D01*
G01X2924Y12036D01*
G01X2762Y11875D01*
G01X2759Y11871D01*
G01X2755Y11867D01*
G01X2752Y11863D01*
G01X2749Y11859D01*
G01X2746Y11855D01*
G01X2743Y11851D01*
G01X2740Y11846D01*
G01X2738Y11842D01*
G01X2735Y11838D01*
G01X2733Y11833D01*
G01X2731Y11828D01*
G01X2729Y11824D01*
G01X2727Y11819D01*
G01X2726Y11814D01*
G01X2724Y11809D01*
G01X2723Y11804D01*
G01X2722Y11799D01*
G01X2721Y11794D01*
G01X2720Y11789D01*
G01X2719Y11784D01*
G01X2719Y11779D01*
G01X2719Y11774D01*
G01X2719Y11769D01*
G01X2719Y8769D01*
G01X2719Y8763D01*
G01X2719Y8758D01*
G01X2719Y8753D01*
G01X2720Y8748D01*
G01X2721Y8743D01*
G01X2722Y8738D01*
G01X2723Y8733D01*
G01X2724Y8728D01*
G01X2726Y8723D01*
G01X2727Y8718D01*
G01X2729Y8713D01*
G01X2731Y8709D01*
G01X2733Y8704D01*
G01X2735Y8699D01*
G01X2738Y8695D01*
G01X2740Y8691D01*
G01X2743Y8686D01*
G01X2746Y8682D01*
G01X2749Y8678D01*
G01X2752Y8674D01*
G01X2755Y8670D01*
G01X2759Y8666D01*
G01X2762Y8662D01*
G01X4531Y6893D01*
G01X4535Y6890D01*
G01X4539Y6886D01*
G01X4543Y6883D01*
G01X4547Y6880D01*
G01X4551Y6877D01*
G01X4555Y6874D01*
G01X4560Y6871D01*
G01X4564Y6869D01*
G01X4568Y6866D01*
G01X4573Y6864D01*
G01X4578Y6862D01*
G01X4582Y6860D01*
G01X4587Y6858D01*
G01X4592Y6857D01*
G01X4597Y6855D01*
G01X4602Y6854D01*
G01X4607Y6853D01*
G01X4612Y6852D01*
G01X4617Y6851D01*
G01X4622Y6850D01*
G01X4627Y6850D01*
G01X4632Y6850D01*
G01X4638Y6850D01*
G01X6029Y6850D01*
G01X6039Y6826D01*
G01X6058Y6791D01*
G01X6081Y6758D01*
G01X6106Y6727D01*
G01X6135Y6700D01*
G01X6166Y6675D01*
G01X6200Y6653D01*
G01X6235Y6635D01*
G01X6272Y6620D01*
G01X6310Y6610D01*
G01X6350Y6603D01*
G01X6390Y6600D01*
G01X6429Y6601D01*
G01X6469Y6606D01*
G01X6508Y6614D01*
G01X6546Y6627D01*
G01X6555Y6632D01*
G01X9069Y4117D01*
G01X9073Y4114D01*
G01X9077Y4110D01*
G01X9081Y4107D01*
G01X9085Y4104D01*
G01X9089Y4101D01*
G01X9093Y4098D01*
G01X9098Y4095D01*
G01X9102Y4093D01*
G01X9106Y4090D01*
G01X9111Y4088D01*
G01X9116Y4086D01*
G01X9120Y4084D01*
G01X9125Y4082D01*
G01X9130Y4081D01*
G01X9135Y4079D01*
G01X9140Y4078D01*
G01X9145Y4077D01*
G01X9150Y4076D01*
G01X9155Y4075D01*
G01X9160Y4074D01*
G01X9165Y4074D01*
G01X9170Y4074D01*
G01X9176Y4073D01*
G01X12727Y4073D01*
G01X12733Y4074D01*
G01X12738Y4074D01*
G01X12743Y4074D01*
G01X12748Y4075D01*
G01X12753Y4076D01*
G01X12758Y4077D01*
G01X12758Y4077D01*
G01X10858Y2178D01*
G01X9627Y2178D01*
G01X9622Y2177D01*
G01X9617Y2177D01*
G01X9612Y2177D01*
G01X9607Y2176D01*
G01X9602Y2175D01*
G01X9597Y2174D01*
G01X9592Y2173D01*
G01X9587Y2172D01*
G01X9582Y2170D01*
G01X9577Y2169D01*
G01X9572Y2167D01*
G01X9568Y2165D01*
G01X9563Y2163D01*
G01X9558Y2161D01*
G01X9554Y2158D01*
G01X9550Y2156D01*
G01X9545Y2153D01*
G01X9541Y2150D01*
G01X9537Y2147D01*
G01X9533Y2144D01*
G01X9529Y2141D01*
G01X9525Y2137D01*
G01X9521Y2134D01*
G01X8963Y1575D01*
G01X8949Y1581D01*
G01X8911Y1594D01*
G01X8871Y1603D01*
G01X8830Y1608D01*
G01X8789Y1609D01*
G01X8749Y1606D01*
G01X8708Y1599D01*
G01X8669Y1588D01*
G01X8631Y1573D01*
G01X8594Y1555D01*
G01X8560Y1532D01*
G01X8528Y1507D01*
G01X8499Y1478D01*
G01X8473Y1447D01*
G01X8450Y1413D01*
G01X8430Y1377D01*
G01X8414Y1340D01*
G01X8402Y1301D01*
G01X8394Y1261D01*
G01X8390Y1220D01*
G01X8390Y1179D01*
G01X8394Y1138D01*
G01X8402Y1098D01*
G01X8414Y1059D01*
G01X8430Y1022D01*
G01X8450Y986D01*
G01X8473Y952D01*
G01X8499Y921D01*
G01X8528Y892D01*
G01X8560Y867D01*
G01X8594Y844D01*
G01X8631Y826D01*
G01X8669Y811D01*
G01X8708Y800D01*
G01X8749Y793D01*
G01X8789Y790D01*
G01X8830Y791D01*
G01X8871Y796D01*
G01X8911Y805D01*
G01X8949Y818D01*
G01X8987Y835D01*
G01X9022Y855D01*
G01X9055Y879D01*
G01X9086Y906D01*
G01X9114Y936D01*
G01X9138Y969D01*
G01X9160Y1003D01*
G01X9177Y1040D01*
G01X9191Y1079D01*
G01X9201Y1118D01*
G01X9207Y1159D01*
G01X9210Y1200D01*
G01X9207Y1240D01*
G01X9201Y1281D01*
G01X9191Y1320D01*
G01X9177Y1359D01*
G01X9175Y1363D01*
G01X9690Y1878D01*
G01X10921Y1878D01*
G01X10926Y1878D01*
G01X10931Y1878D01*
G01X10936Y1878D01*
G01X10941Y1879D01*
G01X10946Y1880D01*
G01X10951Y1881D01*
G01X10956Y1882D01*
G01X10961Y1883D01*
G01X10966Y1885D01*
G01X10971Y1886D01*
G01X10976Y1888D01*
G01X10980Y1890D01*
G01X10985Y1892D01*
G01X10989Y1894D01*
G01X10994Y1897D01*
G01X10998Y1899D01*
G01X11003Y1902D01*
G01X11007Y1905D01*
G01X11011Y1908D01*
G01X11015Y1911D01*
G01X11019Y1914D01*
G01X11023Y1918D01*
G01X11027Y1921D01*
G01X13636Y4529D01*
G01X13636Y4530D01*
G01X13636Y4528D01*
G01X13637Y4524D01*
G01X13638Y4520D01*
G01X13639Y4516D01*
G01X13640Y4512D01*
G01X13641Y4508D01*
G01X13643Y4504D01*
G01X13645Y4501D01*
G01X13647Y4497D01*
G01X13649Y4493D01*
G01X13651Y4490D01*
G01X13653Y4486D01*
G01X13656Y4483D01*
G01X13658Y4480D01*
G01X13661Y4477D01*
G01X13664Y4474D01*
G01X13667Y4471D01*
G01X13670Y4468D01*
G01X13673Y4466D01*
G01X13676Y4463D01*
G01X13680Y4461D01*
G01X13683Y4459D01*
G01X13687Y4457D01*
G01X13691Y4455D01*
G01X13694Y4453D01*
G01X13698Y4451D01*
G01X13702Y4450D01*
G01X13706Y4449D01*
G01X13710Y4448D01*
G01X13714Y4447D01*
G01X13718Y4446D01*
G01X13722Y4445D01*
G01X13726Y4445D01*
G01X13730Y4445D01*
G01X13735Y4444D01*
G01X14281Y4444D01*
G01X11680Y1844D01*
G01X10293Y1844D01*
G01X10288Y1843D01*
G01X10283Y1843D01*
G01X10278Y1843D01*
G01X10273Y1842D01*
G01X10268Y1841D01*
G01X10263Y1840D01*
G01X10258Y1839D01*
G01X10253Y1838D01*
G01X10248Y1836D01*
G01X10243Y1835D01*
G01X10238Y1833D01*
G01X10234Y1831D01*
G01X10229Y1829D01*
G01X10224Y1827D01*
G01X10220Y1824D01*
G01X10216Y1822D01*
G01X10211Y1819D01*
G01X10207Y1816D01*
G01X10203Y1813D01*
G01X10199Y1810D01*
G01X10195Y1807D01*
G01X10191Y1803D01*
G01X10187Y1800D01*
G01X9963Y1575D01*
G01X9949Y1581D01*
G01X9911Y1594D01*
G01X9871Y1603D01*
G01X9830Y1608D01*
G01X9789Y1609D01*
G01X9749Y1606D01*
G01X9708Y1599D01*
G01X9669Y1588D01*
G01X9631Y1573D01*
G01X9594Y1555D01*
G01X9560Y1532D01*
G01X9528Y1507D01*
G01X9499Y1478D01*
G01X9473Y1447D01*
G01X9450Y1413D01*
G01X9430Y1377D01*
G01X9414Y1340D01*
G01X9402Y1301D01*
G01X9394Y1261D01*
G01X9390Y1220D01*
G01X9390Y1179D01*
G01X9394Y1138D01*
G01X9402Y1098D01*
G01X9414Y1059D01*
G01X9430Y1022D01*
G01X9450Y986D01*
G01X9473Y952D01*
G01X9499Y921D01*
G01X9528Y892D01*
G01X9560Y867D01*
G01X9594Y844D01*
G01X9631Y826D01*
G01X9669Y811D01*
G01X9708Y800D01*
G01X9749Y793D01*
G01X9789Y790D01*
G01X9830Y791D01*
G01X9871Y796D01*
G01X9911Y805D01*
G01X9949Y818D01*
G01X9987Y835D01*
G01X10022Y855D01*
G01X10055Y879D01*
G01X10086Y906D01*
G01X10114Y936D01*
G01X10138Y969D01*
G01X10160Y1003D01*
G01X10177Y1040D01*
G01X10191Y1079D01*
G01X10201Y1118D01*
G01X10207Y1159D01*
G01X10210Y1200D01*
G01X10207Y1240D01*
G01X10201Y1281D01*
G01X10191Y1320D01*
G01X10177Y1359D01*
G01X10175Y1363D01*
G01X10356Y1544D01*
G01X10577Y1544D01*
G01X10560Y1532D01*
G01X10528Y1507D01*
G01X10499Y1478D01*
G01X10473Y1447D01*
G01X10450Y1413D01*
G01X10430Y1377D01*
G01X10414Y1340D01*
G01X10402Y1301D01*
G01X10394Y1261D01*
G01X10390Y1220D01*
G01X10390Y1179D01*
G01X10394Y1138D01*
G01X10402Y1098D01*
G01X10414Y1059D01*
G01X10430Y1022D01*
G01X10450Y986D01*
G01X10473Y952D01*
G01X10499Y921D01*
G01X10528Y892D01*
G01X10560Y867D01*
G01X10594Y844D01*
G01X10631Y826D01*
G01X10669Y811D01*
G01X10708Y800D01*
G01X10749Y793D01*
G01X10789Y790D01*
G01X10830Y791D01*
G01X10871Y796D01*
G01X10911Y805D01*
G01X10949Y818D01*
G01X10963Y824D01*
G01X11129Y657D01*
G01X11133Y654D01*
G01X11137Y650D01*
G01X11141Y647D01*
G01X11145Y644D01*
G01X11149Y641D01*
G01X11153Y638D01*
G01X11158Y635D01*
G01X11162Y633D01*
G01X11166Y630D01*
G01X11171Y628D01*
G01X11176Y626D01*
G01X11180Y624D01*
G01X11185Y622D01*
G01X11190Y621D01*
G01X11195Y619D01*
G01X11200Y618D01*
G01X11205Y617D01*
G01X11210Y616D01*
G01X11215Y615D01*
G01X11220Y614D01*
G01X11225Y614D01*
G01X11230Y614D01*
G01X11235Y613D01*
G01X14984Y613D01*
G01X14989Y614D01*
G01X14994Y614D01*
G01X14999Y614D01*
G01X15004Y615D01*
G01X15009Y616D01*
G01X15014Y617D01*
G01X15019Y618D01*
G01X15024Y619D01*
G01X15029Y621D01*
G01X15034Y622D01*
G01X15039Y624D01*
G01X15043Y626D01*
G01X15048Y628D01*
G01X15053Y630D01*
G01X15057Y633D01*
G01X15061Y635D01*
G01X15066Y638D01*
G01X15070Y641D01*
G01X15074Y644D01*
G01X15078Y647D01*
G01X15082Y650D01*
G01X15086Y654D01*
G01X15090Y657D01*
G01X15207Y774D01*
G01X15209Y776D01*
G01X15210Y778D01*
G01X15211Y779D01*
G01X15212Y780D01*
G01X15213Y782D01*
G01X15215Y784D01*
G01X15216Y785D01*
G01X15217Y786D01*
G01X15218Y788D01*
G01X15220Y790D01*
G01X15221Y791D01*
G01X15221Y791D01*
G01X15223Y794D01*
G01X15224Y796D01*
G01X15225Y797D01*
G01X15225Y798D01*
G01X15227Y800D01*
G01X15228Y802D01*
G01X15229Y803D01*
G01X15229Y804D01*
G01X15231Y806D01*
G01X15232Y809D01*
G01X15233Y810D01*
G01X15233Y810D01*
G01X15235Y813D01*
G01X15236Y815D01*
G01X15236Y816D01*
G01X15236Y817D01*
G01X15238Y820D01*
G01X15239Y822D01*
G01X15239Y823D01*
G01X15239Y824D01*
G01X15241Y827D01*
G01X15241Y829D01*
G01X15242Y830D01*
G01X15242Y831D01*
G01X15243Y834D01*
G01X15244Y836D01*
G01X15244Y837D01*
G01X15244Y838D01*
G01X15245Y841D01*
G01X15246Y843D01*
G01X15246Y844D01*
G01X15246Y845D01*
G01X15247Y848D01*
G01X15248Y851D01*
G01X15248Y852D01*
G01X15248Y853D01*
G01X15248Y855D01*
G01X15249Y858D01*
G01X15249Y859D01*
G01X15249Y860D01*
G01X15249Y863D01*
G01X15250Y866D01*
G01X15250Y866D01*
G01X15250Y867D01*
G01X15250Y871D01*
G01X15250Y873D01*
G01X15250Y874D01*
G01X15250Y875D01*
G01X15250Y878D01*
G01X15251Y880D01*
G01X15251Y892D01*
G01X15336Y892D01*
G01X15341Y892D01*
G01X15345Y892D01*
G01X15349Y892D01*
G01X15353Y893D01*
G01X15357Y894D01*
G01X15361Y895D01*
G01X15365Y896D01*
G01X15369Y897D01*
G01X15373Y898D01*
G01X15377Y900D01*
G01X15380Y902D01*
G01X15384Y904D01*
G01X15388Y906D01*
G01X15391Y908D01*
G01X15395Y910D01*
G01X15398Y913D01*
G01X15401Y915D01*
G01X15404Y918D01*
G01X15407Y921D01*
G01X15410Y924D01*
G01X15413Y927D01*
G01X15415Y930D01*
G01X15418Y933D01*
G01X15420Y937D01*
G01X15422Y940D01*
G01X15424Y944D01*
G01X15426Y948D01*
G01X15428Y951D01*
G01X15430Y955D01*
G01X15431Y959D01*
G01X15432Y963D01*
G01X15433Y967D01*
G01X15434Y971D01*
G01X15435Y975D01*
G01X15436Y979D01*
G01X15436Y983D01*
G01X15436Y987D01*
G01X15436Y992D01*
G01X15436Y1455D01*
G01X15436Y1460D01*
G01X15436Y1464D01*
G01X15436Y1468D01*
G01X15435Y1472D01*
G01X15434Y1476D01*
G01X15433Y1480D01*
G01X15432Y1484D01*
G01X15431Y1488D01*
G01X15430Y1492D01*
G01X15428Y1496D01*
G01X15427Y1499D01*
G01X15428Y1502D01*
G01X15430Y1506D01*
G01X15431Y1510D01*
G01X15432Y1514D01*
G01X15433Y1518D01*
G01X15434Y1522D01*
G01X15435Y1526D01*
G01X15436Y1530D01*
G01X15436Y1534D01*
G01X15436Y1538D01*
G01X15436Y1542D01*
G01X15436Y1625D01*
G01X16016Y1625D01*
G01X16482Y1158D01*
G01X16484Y1157D01*
G01X16486Y1155D01*
G01X16487Y1154D01*
G01X16488Y1153D01*
G01X16490Y1152D01*
G01X16492Y1150D01*
G01X16493Y1149D01*
G01X16494Y1148D01*
G01X16496Y1147D01*
G01X16498Y1145D01*
G01X16499Y1144D01*
G01X16499Y1144D01*
G01X16502Y1142D01*
G01X16504Y1141D01*
G01X16505Y1140D01*
G01X16506Y1140D01*
G01X16508Y1138D01*
G01X16510Y1137D01*
G01X16511Y1136D01*
G01X16512Y1136D01*
G01X16514Y1134D01*
G01X16517Y1133D01*
G01X16518Y1132D01*
G01X16518Y1132D01*
G01X16521Y1131D01*
G01X16523Y1129D01*
G01X16524Y1129D01*
G01X16525Y1129D01*
G01X16528Y1127D01*
G01X16530Y1126D01*
G01X16531Y1126D01*
G01X16532Y1126D01*
G01X16535Y1124D01*
G01X16537Y1124D01*
G01X16538Y1123D01*
G01X16539Y1123D01*
G01X16542Y1122D01*
G01X16544Y1121D01*
G01X16545Y1121D01*
G01X16546Y1121D01*
G01X16549Y1120D01*
G01X16551Y1119D01*
G01X16552Y1119D01*
G01X16553Y1119D01*
G01X16556Y1118D01*
G01X16559Y1117D01*
G01X16560Y1117D01*
G01X16561Y1117D01*
G01X16563Y1117D01*
G01X16566Y1116D01*
G01X16567Y1116D01*
G01X16568Y1116D01*
G01X16571Y1116D01*
G01X16574Y1115D01*
G01X16574Y1115D01*
G01X16575Y1115D01*
G01X16579Y1115D01*
G01X16581Y1115D01*
G01X16582Y1115D01*
G01X16583Y1115D01*
G01X16586Y1115D01*
G01X16589Y1115D01*
G01X16610Y1115D01*
G01X16610Y478D01*
G01X16610Y473D01*
G01X16610Y469D01*
G01X16610Y465D01*
G01X16611Y461D01*
G01X16612Y457D01*
G01X16613Y453D01*
G01X16614Y449D01*
G01X16615Y445D01*
G01X16616Y441D01*
G01X16618Y437D01*
G01X16620Y434D01*
G01X16622Y430D01*
G01X16624Y426D01*
G01X16626Y423D01*
G01X16628Y419D01*
G01X16631Y416D01*
G01X16633Y413D01*
G01X16636Y410D01*
G01X16639Y407D01*
G01X16642Y404D01*
G01X16645Y401D01*
G01X16648Y399D01*
G01X16651Y396D01*
G01X16655Y394D01*
G01X16658Y392D01*
G01X16662Y390D01*
G01X16666Y388D01*
G01X16669Y386D01*
G01X16673Y384D01*
G01X16677Y383D01*
G01X16681Y382D01*
G01X16685Y381D01*
G01X16689Y380D01*
G01X16693Y379D01*
G01X16697Y378D01*
G01X16701Y378D01*
G01X16705Y378D01*
G01X16710Y378D01*
G37*
G36*
G01X18465Y12846D02*
G01X18721Y12846D01*
G01X18702Y12886D01*
G01X18676Y12928D01*
G01X18647Y12967D01*
G01X18613Y13003D01*
G01X18576Y13035D01*
G01X18536Y13064D01*
G01X18494Y13089D01*
G01X18465Y13102D01*
G01X18465Y12846D01*
G37*
G36*
G01X7489Y790D02*
G01X8110Y790D01*
G01X8114Y790D01*
G01X8118Y790D01*
G01X8122Y790D01*
G01X8126Y791D01*
G01X8130Y792D01*
G01X8134Y793D01*
G01X8138Y794D01*
G01X8142Y795D01*
G01X8146Y796D01*
G01X8150Y798D01*
G01X8153Y800D01*
G01X8157Y802D01*
G01X8161Y804D01*
G01X8164Y806D01*
G01X8168Y808D01*
G01X8171Y811D01*
G01X8174Y813D01*
G01X8177Y816D01*
G01X8180Y819D01*
G01X8183Y822D01*
G01X8186Y825D01*
G01X8188Y828D01*
G01X8191Y831D01*
G01X8193Y835D01*
G01X8195Y838D01*
G01X8197Y842D01*
G01X8199Y846D01*
G01X8201Y849D01*
G01X8203Y853D01*
G01X8204Y857D01*
G01X8205Y861D01*
G01X8206Y865D01*
G01X8207Y869D01*
G01X8208Y873D01*
G01X8209Y877D01*
G01X8209Y881D01*
G01X8209Y885D01*
G01X8210Y890D01*
G01X8210Y1509D01*
G01X8209Y1514D01*
G01X8209Y1518D01*
G01X8209Y1522D01*
G01X8208Y1526D01*
G01X8207Y1530D01*
G01X8206Y1534D01*
G01X8205Y1538D01*
G01X8204Y1542D01*
G01X8203Y1546D01*
G01X8201Y1550D01*
G01X8199Y1553D01*
G01X8197Y1557D01*
G01X8195Y1561D01*
G01X8193Y1564D01*
G01X8191Y1568D01*
G01X8188Y1571D01*
G01X8186Y1574D01*
G01X8183Y1577D01*
G01X8180Y1580D01*
G01X8177Y1583D01*
G01X8174Y1586D01*
G01X8171Y1588D01*
G01X8168Y1591D01*
G01X8164Y1593D01*
G01X8161Y1595D01*
G01X8157Y1597D01*
G01X8153Y1599D01*
G01X8150Y1601D01*
G01X8146Y1603D01*
G01X8142Y1604D01*
G01X8138Y1605D01*
G01X8134Y1606D01*
G01X8130Y1607D01*
G01X8126Y1608D01*
G01X8122Y1609D01*
G01X8118Y1609D01*
G01X8114Y1609D01*
G01X8110Y1609D01*
G01X7489Y1609D01*
G01X7485Y1609D01*
G01X7481Y1609D01*
G01X7477Y1609D01*
G01X7473Y1608D01*
G01X7469Y1607D01*
G01X7465Y1606D01*
G01X7461Y1605D01*
G01X7457Y1604D01*
G01X7453Y1603D01*
G01X7449Y1601D01*
G01X7446Y1599D01*
G01X7442Y1597D01*
G01X7438Y1595D01*
G01X7435Y1593D01*
G01X7431Y1591D01*
G01X7428Y1588D01*
G01X7425Y1586D01*
G01X7422Y1583D01*
G01X7419Y1580D01*
G01X7416Y1577D01*
G01X7413Y1574D01*
G01X7411Y1571D01*
G01X7408Y1568D01*
G01X7406Y1564D01*
G01X7404Y1561D01*
G01X7402Y1557D01*
G01X7400Y1553D01*
G01X7398Y1550D01*
G01X7396Y1546D01*
G01X7395Y1542D01*
G01X7394Y1538D01*
G01X7393Y1534D01*
G01X7392Y1530D01*
G01X7391Y1526D01*
G01X7390Y1522D01*
G01X7390Y1518D01*
G01X7390Y1514D01*
G01X7389Y1509D01*
G01X7389Y890D01*
G01X7390Y885D01*
G01X7390Y881D01*
G01X7390Y877D01*
G01X7391Y873D01*
G01X7392Y869D01*
G01X7393Y865D01*
G01X7394Y861D01*
G01X7395Y857D01*
G01X7396Y853D01*
G01X7398Y849D01*
G01X7400Y846D01*
G01X7402Y842D01*
G01X7404Y838D01*
G01X7406Y835D01*
G01X7408Y831D01*
G01X7411Y828D01*
G01X7413Y825D01*
G01X7416Y822D01*
G01X7419Y819D01*
G01X7422Y816D01*
G01X7425Y813D01*
G01X7428Y811D01*
G01X7431Y808D01*
G01X7435Y806D01*
G01X7438Y804D01*
G01X7442Y802D01*
G01X7446Y800D01*
G01X7449Y798D01*
G01X7453Y796D01*
G01X7457Y795D01*
G01X7461Y794D01*
G01X7465Y793D01*
G01X7469Y792D01*
G01X7473Y791D01*
G01X7477Y790D01*
G01X7481Y790D01*
G01X7485Y790D01*
G01X7489Y790D01*
G37*
G36*
G01X787Y12300D02*
G01X837Y12301D01*
G01X886Y12307D01*
G01X935Y12318D01*
G01X982Y12334D01*
G01X1028Y12355D01*
G01X1071Y12379D01*
G01X1111Y12409D01*
G01X1149Y12442D01*
G01X1183Y12478D01*
G01X1213Y12518D01*
G01X1239Y12560D01*
G01X1260Y12605D01*
G01X1277Y12652D01*
G01X1290Y12700D01*
G01X1297Y12750D01*
G01X1300Y12800D01*
G01X1297Y12849D01*
G01X1290Y12899D01*
G01X1277Y12947D01*
G01X1260Y12994D01*
G01X1239Y13039D01*
G01X1213Y13081D01*
G01X1183Y13121D01*
G01X1149Y13157D01*
G01X1111Y13190D01*
G01X1071Y13220D01*
G01X1028Y13244D01*
G01X982Y13265D01*
G01X935Y13281D01*
G01X886Y13292D01*
G01X837Y13298D01*
G01X787Y13299D01*
G01X737Y13296D01*
G01X688Y13287D01*
G01X640Y13273D01*
G01X594Y13255D01*
G01X550Y13233D01*
G01X508Y13205D01*
G01X469Y13174D01*
G01X433Y13140D01*
G01X401Y13101D01*
G01X373Y13060D01*
G01X349Y13016D01*
G01X330Y12971D01*
G01X315Y12923D01*
G01X305Y12874D01*
G01X300Y12824D01*
G01X300Y12775D01*
G01X305Y12725D01*
G01X315Y12676D01*
G01X330Y12628D01*
G01X349Y12583D01*
G01X373Y12539D01*
G01X401Y12498D01*
G01X433Y12459D01*
G01X469Y12425D01*
G01X508Y12394D01*
G01X550Y12366D01*
G01X594Y12344D01*
G01X640Y12326D01*
G01X688Y12312D01*
G01X737Y12303D01*
G01X787Y12300D01*
G37*
G36*
G01X19687Y12300D02*
G01X19737Y12301D01*
G01X19786Y12307D01*
G01X19835Y12318D01*
G01X19882Y12334D01*
G01X19928Y12355D01*
G01X19971Y12379D01*
G01X20011Y12409D01*
G01X20049Y12442D01*
G01X20083Y12478D01*
G01X20113Y12518D01*
G01X20139Y12560D01*
G01X20160Y12605D01*
G01X20177Y12652D01*
G01X20190Y12700D01*
G01X20197Y12750D01*
G01X20200Y12800D01*
G01X20197Y12849D01*
G01X20190Y12899D01*
G01X20177Y12947D01*
G01X20160Y12994D01*
G01X20139Y13039D01*
G01X20113Y13081D01*
G01X20083Y13121D01*
G01X20049Y13157D01*
G01X20011Y13190D01*
G01X19971Y13220D01*
G01X19928Y13244D01*
G01X19882Y13265D01*
G01X19835Y13281D01*
G01X19786Y13292D01*
G01X19737Y13298D01*
G01X19687Y13299D01*
G01X19637Y13296D01*
G01X19588Y13287D01*
G01X19540Y13273D01*
G01X19494Y13255D01*
G01X19450Y13233D01*
G01X19408Y13205D01*
G01X19369Y13174D01*
G01X19333Y13140D01*
G01X19301Y13101D01*
G01X19273Y13060D01*
G01X19249Y13016D01*
G01X19230Y12971D01*
G01X19215Y12923D01*
G01X19205Y12874D01*
G01X19200Y12824D01*
G01X19200Y12775D01*
G01X19205Y12725D01*
G01X19215Y12676D01*
G01X19230Y12628D01*
G01X19249Y12583D01*
G01X19273Y12539D01*
G01X19301Y12498D01*
G01X19333Y12459D01*
G01X19369Y12425D01*
G01X19408Y12394D01*
G01X19450Y12366D01*
G01X19494Y12344D01*
G01X19540Y12326D01*
G01X19588Y12312D01*
G01X19637Y12303D01*
G01X19687Y12300D01*
G37*
G36*
G01X18465Y12197D02*
G01X18494Y12210D01*
G01X18536Y12235D01*
G01X18576Y12264D01*
G01X18613Y12296D01*
G01X18647Y12332D01*
G01X18676Y12371D01*
G01X18702Y12413D01*
G01X18721Y12453D01*
G01X18465Y12453D01*
G01X18465Y12197D01*
G37*
G36*
G01X4865Y818D02*
G01X4914Y819D01*
G01X4963Y825D01*
G01X5011Y836D01*
G01X5058Y852D01*
G01X5103Y872D01*
G01X5145Y897D01*
G01X5185Y926D01*
G01X5222Y958D01*
G01X5256Y994D01*
G01X5285Y1033D01*
G01X5311Y1075D01*
G01X5332Y1120D01*
G01X5349Y1166D01*
G01X5361Y1214D01*
G01X5369Y1262D01*
G01X5371Y1311D01*
G01X5369Y1361D01*
G01X5361Y1409D01*
G01X5349Y1457D01*
G01X5332Y1503D01*
G01X5316Y1538D01*
G01X7178Y3400D01*
G01X9546Y3400D01*
G01X9546Y3234D01*
G01X9546Y3230D01*
G01X9546Y3226D01*
G01X9546Y3222D01*
G01X9547Y3218D01*
G01X9548Y3214D01*
G01X9549Y3210D01*
G01X9550Y3206D01*
G01X9551Y3202D01*
G01X9552Y3198D01*
G01X9554Y3194D01*
G01X9556Y3191D01*
G01X9558Y3187D01*
G01X9560Y3183D01*
G01X9562Y3180D01*
G01X9564Y3176D01*
G01X9567Y3173D01*
G01X9569Y3170D01*
G01X9572Y3167D01*
G01X9575Y3164D01*
G01X9578Y3161D01*
G01X9581Y3158D01*
G01X9584Y3156D01*
G01X9587Y3153D01*
G01X9591Y3151D01*
G01X9594Y3149D01*
G01X9598Y3147D01*
G01X9602Y3145D01*
G01X9605Y3143D01*
G01X9609Y3141D01*
G01X9613Y3140D01*
G01X9617Y3139D01*
G01X9621Y3138D01*
G01X9625Y3137D01*
G01X9629Y3136D01*
G01X9633Y3135D01*
G01X9637Y3135D01*
G01X9641Y3135D01*
G01X9646Y3134D01*
G01X10355Y3134D01*
G01X10359Y3135D01*
G01X10363Y3135D01*
G01X10367Y3135D01*
G01X10371Y3136D01*
G01X10375Y3137D01*
G01X10379Y3138D01*
G01X10383Y3139D01*
G01X10387Y3140D01*
G01X10391Y3141D01*
G01X10395Y3143D01*
G01X10398Y3145D01*
G01X10402Y3147D01*
G01X10406Y3149D01*
G01X10409Y3151D01*
G01X10413Y3153D01*
G01X10416Y3156D01*
G01X10419Y3158D01*
G01X10422Y3161D01*
G01X10425Y3164D01*
G01X10428Y3167D01*
G01X10431Y3170D01*
G01X10433Y3173D01*
G01X10436Y3176D01*
G01X10438Y3180D01*
G01X10440Y3183D01*
G01X10442Y3187D01*
G01X10444Y3191D01*
G01X10446Y3194D01*
G01X10448Y3198D01*
G01X10449Y3202D01*
G01X10450Y3206D01*
G01X10451Y3210D01*
G01X10452Y3214D01*
G01X10453Y3218D01*
G01X10454Y3222D01*
G01X10454Y3226D01*
G01X10454Y3230D01*
G01X10455Y3234D01*
G01X10455Y3865D01*
G01X10454Y3869D01*
G01X10454Y3873D01*
G01X10454Y3877D01*
G01X10453Y3881D01*
G01X10452Y3885D01*
G01X10451Y3889D01*
G01X10450Y3893D01*
G01X10449Y3897D01*
G01X10448Y3901D01*
G01X10446Y3905D01*
G01X10444Y3908D01*
G01X10442Y3912D01*
G01X10440Y3916D01*
G01X10438Y3919D01*
G01X10436Y3923D01*
G01X10433Y3926D01*
G01X10431Y3929D01*
G01X10428Y3932D01*
G01X10425Y3935D01*
G01X10422Y3938D01*
G01X10419Y3941D01*
G01X10416Y3943D01*
G01X10413Y3946D01*
G01X10409Y3948D01*
G01X10406Y3950D01*
G01X10402Y3952D01*
G01X10398Y3954D01*
G01X10395Y3956D01*
G01X10391Y3958D01*
G01X10387Y3959D01*
G01X10383Y3960D01*
G01X10379Y3961D01*
G01X10375Y3962D01*
G01X10371Y3963D01*
G01X10367Y3964D01*
G01X10363Y3964D01*
G01X10359Y3964D01*
G01X10355Y3965D01*
G01X9646Y3965D01*
G01X9641Y3964D01*
G01X9637Y3964D01*
G01X9633Y3964D01*
G01X9629Y3963D01*
G01X9625Y3962D01*
G01X9621Y3961D01*
G01X9617Y3960D01*
G01X9613Y3959D01*
G01X9609Y3958D01*
G01X9605Y3956D01*
G01X9602Y3954D01*
G01X9598Y3952D01*
G01X9594Y3950D01*
G01X9591Y3948D01*
G01X9587Y3946D01*
G01X9584Y3943D01*
G01X9581Y3941D01*
G01X9578Y3938D01*
G01X9575Y3935D01*
G01X9572Y3932D01*
G01X9569Y3929D01*
G01X9567Y3926D01*
G01X9564Y3923D01*
G01X9562Y3919D01*
G01X9560Y3916D01*
G01X9558Y3912D01*
G01X9556Y3908D01*
G01X9554Y3905D01*
G01X9552Y3901D01*
G01X9551Y3897D01*
G01X9550Y3893D01*
G01X9549Y3889D01*
G01X9548Y3885D01*
G01X9547Y3881D01*
G01X9546Y3877D01*
G01X9546Y3873D01*
G01X9546Y3869D01*
G01X9546Y3865D01*
G01X9546Y3700D01*
G01X7115Y3700D01*
G01X7110Y3699D01*
G01X7105Y3699D01*
G01X7100Y3699D01*
G01X7095Y3698D01*
G01X7090Y3697D01*
G01X7085Y3696D01*
G01X7080Y3695D01*
G01X7075Y3694D01*
G01X7070Y3692D01*
G01X7065Y3691D01*
G01X7060Y3689D01*
G01X7056Y3687D01*
G01X7051Y3685D01*
G01X7046Y3683D01*
G01X7042Y3680D01*
G01X7038Y3678D01*
G01X7033Y3675D01*
G01X7029Y3672D01*
G01X7025Y3669D01*
G01X7021Y3666D01*
G01X7017Y3663D01*
G01X7013Y3659D01*
G01X7009Y3656D01*
G01X5104Y1750D01*
G01X5103Y1751D01*
G01X5058Y1771D01*
G01X5011Y1787D01*
G01X4963Y1798D01*
G01X4914Y1804D01*
G01X4865Y1805D01*
G01X4816Y1801D01*
G01X4768Y1793D01*
G01X4720Y1779D01*
G01X4674Y1762D01*
G01X4631Y1739D01*
G01X4589Y1712D01*
G01X4551Y1682D01*
G01X4516Y1647D01*
G01X4484Y1610D01*
G01X4456Y1569D01*
G01X4433Y1526D01*
G01X4414Y1480D01*
G01X4399Y1433D01*
G01X4389Y1385D01*
G01X4384Y1336D01*
G01X4384Y1287D01*
G01X4389Y1238D01*
G01X4399Y1190D01*
G01X4414Y1143D01*
G01X4433Y1097D01*
G01X4456Y1054D01*
G01X4484Y1013D01*
G01X4516Y976D01*
G01X4551Y941D01*
G01X4589Y911D01*
G01X4631Y884D01*
G01X4674Y861D01*
G01X4720Y844D01*
G01X4768Y830D01*
G01X4816Y822D01*
G01X4865Y818D01*
G37*
G36*
G01X2109Y818D02*
G01X2158Y819D01*
G01X2207Y825D01*
G01X2255Y836D01*
G01X2302Y852D01*
G01X2347Y872D01*
G01X2389Y897D01*
G01X2429Y926D01*
G01X2466Y958D01*
G01X2500Y994D01*
G01X2529Y1033D01*
G01X2555Y1075D01*
G01X2576Y1120D01*
G01X2593Y1166D01*
G01X2605Y1214D01*
G01X2613Y1262D01*
G01X2615Y1311D01*
G01X2613Y1361D01*
G01X2605Y1409D01*
G01X2593Y1457D01*
G01X2576Y1503D01*
G01X2555Y1548D01*
G01X2529Y1590D01*
G01X2500Y1629D01*
G01X2466Y1665D01*
G01X2429Y1697D01*
G01X2389Y1726D01*
G01X2347Y1751D01*
G01X2302Y1771D01*
G01X2255Y1787D01*
G01X2207Y1798D01*
G01X2158Y1804D01*
G01X2109Y1805D01*
G01X2060Y1801D01*
G01X2012Y1793D01*
G01X1964Y1779D01*
G01X1918Y1762D01*
G01X1875Y1739D01*
G01X1833Y1712D01*
G01X1795Y1682D01*
G01X1760Y1647D01*
G01X1728Y1610D01*
G01X1700Y1569D01*
G01X1677Y1526D01*
G01X1658Y1480D01*
G01X1643Y1433D01*
G01X1633Y1385D01*
G01X1628Y1336D01*
G01X1628Y1287D01*
G01X1633Y1238D01*
G01X1643Y1190D01*
G01X1658Y1143D01*
G01X1677Y1097D01*
G01X1700Y1054D01*
G01X1728Y1013D01*
G01X1760Y976D01*
G01X1795Y941D01*
G01X1833Y911D01*
G01X1875Y884D01*
G01X1918Y861D01*
G01X1964Y844D01*
G01X2012Y830D01*
G01X2060Y822D01*
G01X2109Y818D01*
G37*
G36*
G01X18072Y12197D02*
G01X18072Y12453D01*
G01X17816Y12453D01*
G01X17824Y12435D01*
G01X17847Y12392D01*
G01X17875Y12351D01*
G01X17907Y12314D01*
G01X17942Y12279D01*
G01X17980Y12249D01*
G01X18022Y12222D01*
G01X18065Y12199D01*
G01X18072Y12197D01*
G37*
G36*
G01X16287Y12156D02*
G01X16336Y12157D01*
G01X16385Y12163D01*
G01X16433Y12174D01*
G01X16480Y12190D01*
G01X16525Y12210D01*
G01X16567Y12235D01*
G01X16607Y12264D01*
G01X16644Y12296D01*
G01X16678Y12332D01*
G01X16707Y12371D01*
G01X16733Y12413D01*
G01X16754Y12458D01*
G01X16771Y12504D01*
G01X16783Y12552D01*
G01X16791Y12600D01*
G01X16793Y12650D01*
G01X16791Y12699D01*
G01X16783Y12747D01*
G01X16771Y12795D01*
G01X16754Y12841D01*
G01X16733Y12886D01*
G01X16707Y12928D01*
G01X16678Y12967D01*
G01X16644Y13003D01*
G01X16607Y13035D01*
G01X16567Y13064D01*
G01X16525Y13089D01*
G01X16480Y13109D01*
G01X16433Y13125D01*
G01X16385Y13136D01*
G01X16336Y13142D01*
G01X16287Y13143D01*
G01X16238Y13139D01*
G01X16190Y13131D01*
G01X16142Y13117D01*
G01X16096Y13100D01*
G01X16053Y13077D01*
G01X16011Y13050D01*
G01X15973Y13020D01*
G01X15938Y12985D01*
G01X15906Y12948D01*
G01X15878Y12907D01*
G01X15855Y12864D01*
G01X15836Y12818D01*
G01X15821Y12771D01*
G01X15811Y12723D01*
G01X15806Y12674D01*
G01X15806Y12625D01*
G01X15811Y12576D01*
G01X15821Y12528D01*
G01X15836Y12481D01*
G01X15855Y12435D01*
G01X15878Y12392D01*
G01X15906Y12351D01*
G01X15938Y12314D01*
G01X15973Y12279D01*
G01X16011Y12249D01*
G01X16053Y12222D01*
G01X16096Y12199D01*
G01X16142Y12182D01*
G01X16190Y12168D01*
G01X16238Y12160D01*
G01X16287Y12156D01*
G37*
G36*
G01X14515Y11292D02*
G01X15106Y11292D01*
G01X15110Y11293D01*
G01X15114Y11293D01*
G01X15118Y11293D01*
G01X15122Y11294D01*
G01X15127Y11295D01*
G01X15131Y11296D01*
G01X15135Y11297D01*
G01X15138Y11298D01*
G01X15142Y11299D01*
G01X15146Y11301D01*
G01X15150Y11303D01*
G01X15154Y11305D01*
G01X15157Y11307D01*
G01X15161Y11309D01*
G01X15164Y11311D01*
G01X15167Y11314D01*
G01X15171Y11316D01*
G01X15174Y11319D01*
G01X15177Y11322D01*
G01X15180Y11325D01*
G01X15182Y11328D01*
G01X15185Y11331D01*
G01X15187Y11334D01*
G01X15190Y11338D01*
G01X15192Y11341D01*
G01X15194Y11345D01*
G01X15196Y11349D01*
G01X15198Y11352D01*
G01X15199Y11356D01*
G01X15201Y11360D01*
G01X15202Y11364D01*
G01X15203Y11368D01*
G01X15204Y11372D01*
G01X15205Y11376D01*
G01X15205Y11380D01*
G01X15206Y11384D01*
G01X15206Y11388D01*
G01X15206Y11392D01*
G01X15206Y11786D01*
G01X15206Y11791D01*
G01X15206Y11795D01*
G01X15205Y11799D01*
G01X15205Y11803D01*
G01X15204Y11807D01*
G01X15203Y11811D01*
G01X15202Y11815D01*
G01X15201Y11819D01*
G01X15199Y11823D01*
G01X15198Y11827D01*
G01X15196Y11830D01*
G01X15194Y11834D01*
G01X15192Y11838D01*
G01X15190Y11841D01*
G01X15187Y11845D01*
G01X15185Y11848D01*
G01X15182Y11851D01*
G01X15180Y11854D01*
G01X15177Y11857D01*
G01X15174Y11860D01*
G01X15171Y11863D01*
G01X15167Y11865D01*
G01X15164Y11868D01*
G01X15161Y11870D01*
G01X15157Y11872D01*
G01X15154Y11874D01*
G01X15150Y11876D01*
G01X15146Y11878D01*
G01X15142Y11880D01*
G01X15138Y11881D01*
G01X15135Y11882D01*
G01X15131Y11883D01*
G01X15127Y11884D01*
G01X15122Y11885D01*
G01X15118Y11886D01*
G01X15114Y11886D01*
G01X15110Y11886D01*
G01X15106Y11886D01*
G01X14515Y11886D01*
G01X14511Y11886D01*
G01X14507Y11886D01*
G01X14503Y11886D01*
G01X14499Y11885D01*
G01X14494Y11884D01*
G01X14490Y11883D01*
G01X14486Y11882D01*
G01X14483Y11881D01*
G01X14479Y11880D01*
G01X14475Y11878D01*
G01X14471Y11876D01*
G01X14467Y11874D01*
G01X14464Y11872D01*
G01X14460Y11870D01*
G01X14457Y11868D01*
G01X14454Y11865D01*
G01X14450Y11863D01*
G01X14447Y11860D01*
G01X14444Y11857D01*
G01X14441Y11854D01*
G01X14439Y11851D01*
G01X14436Y11848D01*
G01X14434Y11845D01*
G01X14431Y11841D01*
G01X14429Y11838D01*
G01X14427Y11834D01*
G01X14425Y11830D01*
G01X14423Y11827D01*
G01X14422Y11823D01*
G01X14420Y11819D01*
G01X14419Y11815D01*
G01X14418Y11811D01*
G01X14417Y11807D01*
G01X14416Y11803D01*
G01X14416Y11799D01*
G01X14415Y11795D01*
G01X14415Y11791D01*
G01X14415Y11786D01*
G01X14415Y11392D01*
G01X14415Y11388D01*
G01X14415Y11384D01*
G01X14416Y11380D01*
G01X14416Y11376D01*
G01X14417Y11372D01*
G01X14418Y11368D01*
G01X14419Y11364D01*
G01X14420Y11360D01*
G01X14422Y11356D01*
G01X14423Y11352D01*
G01X14425Y11349D01*
G01X14427Y11345D01*
G01X14429Y11341D01*
G01X14431Y11338D01*
G01X14434Y11334D01*
G01X14436Y11331D01*
G01X14439Y11328D01*
G01X14441Y11325D01*
G01X14444Y11322D01*
G01X14447Y11319D01*
G01X14450Y11316D01*
G01X14454Y11314D01*
G01X14457Y11311D01*
G01X14460Y11309D01*
G01X14464Y11307D01*
G01X14467Y11305D01*
G01X14471Y11303D01*
G01X14475Y11301D01*
G01X14479Y11299D01*
G01X14483Y11298D01*
G01X14486Y11297D01*
G01X14490Y11296D01*
G01X14494Y11295D01*
G01X14499Y11294D01*
G01X14503Y11293D01*
G01X14507Y11293D01*
G01X14511Y11293D01*
G01X14515Y11292D01*
G37*
G36*
G01X14415Y6968D02*
G01X14663Y6968D01*
G01X14663Y7167D01*
G01X14515Y7167D01*
G01X14511Y7166D01*
G01X14507Y7166D01*
G01X14503Y7166D01*
G01X14499Y7165D01*
G01X14494Y7164D01*
G01X14490Y7163D01*
G01X14486Y7162D01*
G01X14483Y7161D01*
G01X14479Y7160D01*
G01X14475Y7158D01*
G01X14471Y7156D01*
G01X14467Y7154D01*
G01X14464Y7152D01*
G01X14460Y7150D01*
G01X14457Y7148D01*
G01X14454Y7145D01*
G01X14450Y7143D01*
G01X14447Y7140D01*
G01X14444Y7137D01*
G01X14441Y7134D01*
G01X14439Y7131D01*
G01X14436Y7128D01*
G01X14434Y7125D01*
G01X14431Y7121D01*
G01X14429Y7118D01*
G01X14427Y7114D01*
G01X14425Y7110D01*
G01X14423Y7107D01*
G01X14422Y7103D01*
G01X14420Y7099D01*
G01X14419Y7095D01*
G01X14418Y7091D01*
G01X14417Y7087D01*
G01X14416Y7083D01*
G01X14416Y7079D01*
G01X14415Y7075D01*
G01X14415Y7071D01*
G01X14415Y7067D01*
G01X14415Y6968D01*
G37*
G36*
G01X19687Y200D02*
G01X19737Y201D01*
G01X19786Y207D01*
G01X19835Y218D01*
G01X19882Y234D01*
G01X19928Y255D01*
G01X19971Y279D01*
G01X20011Y309D01*
G01X20049Y342D01*
G01X20083Y378D01*
G01X20113Y418D01*
G01X20139Y460D01*
G01X20160Y505D01*
G01X20177Y552D01*
G01X20190Y600D01*
G01X20197Y650D01*
G01X20200Y700D01*
G01X20197Y749D01*
G01X20190Y799D01*
G01X20177Y847D01*
G01X20160Y894D01*
G01X20139Y939D01*
G01X20113Y981D01*
G01X20083Y1021D01*
G01X20049Y1057D01*
G01X20011Y1090D01*
G01X19971Y1120D01*
G01X19928Y1144D01*
G01X19882Y1165D01*
G01X19835Y1181D01*
G01X19786Y1192D01*
G01X19737Y1198D01*
G01X19687Y1199D01*
G01X19637Y1196D01*
G01X19588Y1187D01*
G01X19540Y1173D01*
G01X19494Y1155D01*
G01X19450Y1133D01*
G01X19408Y1105D01*
G01X19369Y1074D01*
G01X19333Y1040D01*
G01X19301Y1001D01*
G01X19273Y960D01*
G01X19249Y916D01*
G01X19230Y871D01*
G01X19215Y823D01*
G01X19205Y774D01*
G01X19200Y724D01*
G01X19200Y675D01*
G01X19205Y625D01*
G01X19215Y576D01*
G01X19230Y528D01*
G01X19249Y483D01*
G01X19273Y439D01*
G01X19301Y398D01*
G01X19333Y359D01*
G01X19369Y325D01*
G01X19408Y294D01*
G01X19450Y266D01*
G01X19494Y244D01*
G01X19540Y226D01*
G01X19588Y212D01*
G01X19637Y203D01*
G01X19687Y200D01*
G37*
G36*
G01X12955Y1355D02*
G01X13179Y1355D01*
G01X13177Y1359D01*
G01X13160Y1396D01*
G01X13138Y1430D01*
G01X13114Y1463D01*
G01X13086Y1493D01*
G01X13055Y1520D01*
G01X13022Y1544D01*
G01X12987Y1564D01*
G01X12955Y1579D01*
G01X12955Y1355D01*
G37*
G36*
G01X12420Y1355D02*
G01X12644Y1355D01*
G01X12644Y1579D01*
G01X12631Y1573D01*
G01X12594Y1555D01*
G01X12560Y1532D01*
G01X12528Y1507D01*
G01X12499Y1478D01*
G01X12473Y1447D01*
G01X12450Y1413D01*
G01X12430Y1377D01*
G01X12420Y1355D01*
G37*
G36*
G01X16710Y6242D02*
G01X17890Y6242D01*
G01X17895Y6243D01*
G01X17899Y6243D01*
G01X17903Y6243D01*
G01X17907Y6244D01*
G01X17911Y6245D01*
G01X17915Y6246D01*
G01X17919Y6247D01*
G01X17923Y6248D01*
G01X17927Y6249D01*
G01X17931Y6251D01*
G01X17934Y6253D01*
G01X17938Y6255D01*
G01X17942Y6257D01*
G01X17945Y6259D01*
G01X17949Y6261D01*
G01X17952Y6264D01*
G01X17955Y6266D01*
G01X17958Y6269D01*
G01X17961Y6272D01*
G01X17964Y6275D01*
G01X17967Y6278D01*
G01X17969Y6281D01*
G01X17972Y6284D01*
G01X17974Y6288D01*
G01X17976Y6291D01*
G01X17978Y6295D01*
G01X17980Y6299D01*
G01X17982Y6302D01*
G01X17984Y6306D01*
G01X17985Y6310D01*
G01X17986Y6314D01*
G01X17987Y6318D01*
G01X17988Y6322D01*
G01X17989Y6326D01*
G01X17990Y6330D01*
G01X17990Y6334D01*
G01X17990Y6338D01*
G01X17990Y6342D01*
G01X17990Y10123D01*
G01X17990Y10127D01*
G01X17990Y10131D01*
G01X17990Y10135D01*
G01X17989Y10139D01*
G01X17988Y10143D01*
G01X17987Y10147D01*
G01X17986Y10151D01*
G01X17985Y10155D01*
G01X17984Y10159D01*
G01X17982Y10163D01*
G01X17980Y10166D01*
G01X17978Y10170D01*
G01X17976Y10174D01*
G01X17974Y10177D01*
G01X17972Y10181D01*
G01X17969Y10184D01*
G01X17967Y10187D01*
G01X17964Y10190D01*
G01X17961Y10193D01*
G01X17958Y10196D01*
G01X17955Y10199D01*
G01X17952Y10201D01*
G01X17949Y10204D01*
G01X17945Y10206D01*
G01X17942Y10208D01*
G01X17938Y10210D01*
G01X17934Y10212D01*
G01X17931Y10214D01*
G01X17927Y10216D01*
G01X17923Y10217D01*
G01X17919Y10218D01*
G01X17915Y10219D01*
G01X17911Y10220D01*
G01X17907Y10221D01*
G01X17903Y10222D01*
G01X17899Y10222D01*
G01X17895Y10222D01*
G01X17890Y10223D01*
G01X16710Y10223D01*
G01X16705Y10222D01*
G01X16701Y10222D01*
G01X16697Y10222D01*
G01X16693Y10221D01*
G01X16689Y10220D01*
G01X16685Y10219D01*
G01X16681Y10218D01*
G01X16677Y10217D01*
G01X16673Y10216D01*
G01X16669Y10214D01*
G01X16666Y10212D01*
G01X16662Y10210D01*
G01X16658Y10208D01*
G01X16655Y10206D01*
G01X16651Y10204D01*
G01X16648Y10201D01*
G01X16645Y10199D01*
G01X16642Y10196D01*
G01X16639Y10193D01*
G01X16636Y10190D01*
G01X16633Y10187D01*
G01X16631Y10184D01*
G01X16628Y10181D01*
G01X16626Y10177D01*
G01X16624Y10174D01*
G01X16622Y10170D01*
G01X16620Y10166D01*
G01X16618Y10163D01*
G01X16616Y10159D01*
G01X16615Y10155D01*
G01X16614Y10151D01*
G01X16613Y10147D01*
G01X16612Y10143D01*
G01X16611Y10139D01*
G01X16610Y10135D01*
G01X16610Y10131D01*
G01X16610Y10127D01*
G01X16610Y10123D01*
G01X16610Y6342D01*
G01X16610Y6338D01*
G01X16610Y6334D01*
G01X16610Y6330D01*
G01X16611Y6326D01*
G01X16612Y6322D01*
G01X16613Y6318D01*
G01X16614Y6314D01*
G01X16615Y6310D01*
G01X16616Y6306D01*
G01X16618Y6302D01*
G01X16620Y6299D01*
G01X16622Y6295D01*
G01X16624Y6291D01*
G01X16626Y6288D01*
G01X16628Y6284D01*
G01X16631Y6281D01*
G01X16633Y6278D01*
G01X16636Y6275D01*
G01X16639Y6272D01*
G01X16642Y6269D01*
G01X16645Y6266D01*
G01X16648Y6264D01*
G01X16651Y6261D01*
G01X16655Y6259D01*
G01X16658Y6257D01*
G01X16662Y6255D01*
G01X16666Y6253D01*
G01X16669Y6251D01*
G01X16673Y6249D01*
G01X16677Y6248D01*
G01X16681Y6247D01*
G01X16685Y6246D01*
G01X16689Y6245D01*
G01X16693Y6244D01*
G01X16697Y6243D01*
G01X16701Y6243D01*
G01X16705Y6243D01*
G01X16710Y6242D01*
G37*
G36*
G01X17143Y4513D02*
G01X17518Y4513D01*
G01X17523Y4514D01*
G01X17527Y4514D01*
G01X17531Y4514D01*
G01X17535Y4515D01*
G01X17539Y4516D01*
G01X17543Y4517D01*
G01X17547Y4518D01*
G01X17551Y4519D01*
G01X17555Y4520D01*
G01X17559Y4522D01*
G01X17562Y4524D01*
G01X17566Y4526D01*
G01X17570Y4528D01*
G01X17573Y4530D01*
G01X17577Y4532D01*
G01X17580Y4535D01*
G01X17583Y4537D01*
G01X17586Y4540D01*
G01X17589Y4543D01*
G01X17592Y4546D01*
G01X17595Y4549D01*
G01X17597Y4552D01*
G01X17600Y4555D01*
G01X17602Y4559D01*
G01X17604Y4562D01*
G01X17606Y4566D01*
G01X17608Y4570D01*
G01X17610Y4573D01*
G01X17612Y4577D01*
G01X17613Y4581D01*
G01X17614Y4585D01*
G01X17615Y4589D01*
G01X17616Y4593D01*
G01X17617Y4597D01*
G01X17618Y4601D01*
G01X17618Y4605D01*
G01X17618Y4609D01*
G01X17618Y4613D01*
G01X17618Y5935D01*
G01X17618Y5939D01*
G01X17618Y5943D01*
G01X17618Y5947D01*
G01X17617Y5951D01*
G01X17616Y5955D01*
G01X17615Y5959D01*
G01X17614Y5963D01*
G01X17613Y5967D01*
G01X17612Y5971D01*
G01X17610Y5975D01*
G01X17608Y5978D01*
G01X17606Y5982D01*
G01X17604Y5986D01*
G01X17602Y5989D01*
G01X17600Y5993D01*
G01X17597Y5996D01*
G01X17595Y5999D01*
G01X17592Y6002D01*
G01X17589Y6005D01*
G01X17586Y6008D01*
G01X17583Y6011D01*
G01X17580Y6013D01*
G01X17577Y6016D01*
G01X17573Y6018D01*
G01X17570Y6020D01*
G01X17566Y6022D01*
G01X17562Y6024D01*
G01X17559Y6026D01*
G01X17555Y6028D01*
G01X17551Y6029D01*
G01X17547Y6030D01*
G01X17543Y6031D01*
G01X17539Y6032D01*
G01X17535Y6033D01*
G01X17531Y6034D01*
G01X17527Y6034D01*
G01X17523Y6034D01*
G01X17518Y6035D01*
G01X17143Y6035D01*
G01X17138Y6034D01*
G01X17134Y6034D01*
G01X17130Y6034D01*
G01X17126Y6033D01*
G01X17122Y6032D01*
G01X17118Y6031D01*
G01X17114Y6030D01*
G01X17110Y6029D01*
G01X17106Y6028D01*
G01X17102Y6026D01*
G01X17099Y6024D01*
G01X17095Y6022D01*
G01X17091Y6020D01*
G01X17088Y6018D01*
G01X17084Y6016D01*
G01X17081Y6013D01*
G01X17078Y6011D01*
G01X17075Y6008D01*
G01X17072Y6005D01*
G01X17069Y6002D01*
G01X17066Y5999D01*
G01X17064Y5996D01*
G01X17061Y5993D01*
G01X17059Y5989D01*
G01X17057Y5986D01*
G01X17055Y5982D01*
G01X17053Y5978D01*
G01X17051Y5975D01*
G01X17049Y5971D01*
G01X17048Y5967D01*
G01X17047Y5963D01*
G01X17046Y5959D01*
G01X17045Y5955D01*
G01X17044Y5951D01*
G01X17043Y5947D01*
G01X17043Y5943D01*
G01X17043Y5939D01*
G01X17043Y5935D01*
G01X17043Y4613D01*
G01X17043Y4609D01*
G01X17043Y4605D01*
G01X17043Y4601D01*
G01X17044Y4597D01*
G01X17045Y4593D01*
G01X17046Y4589D01*
G01X17047Y4585D01*
G01X17048Y4581D01*
G01X17049Y4577D01*
G01X17051Y4573D01*
G01X17053Y4570D01*
G01X17055Y4566D01*
G01X17057Y4562D01*
G01X17059Y4559D01*
G01X17061Y4555D01*
G01X17064Y4552D01*
G01X17066Y4549D01*
G01X17069Y4546D01*
G01X17072Y4543D01*
G01X17075Y4540D01*
G01X17078Y4537D01*
G01X17081Y4535D01*
G01X17084Y4532D01*
G01X17088Y4530D01*
G01X17091Y4528D01*
G01X17095Y4526D01*
G01X17099Y4524D01*
G01X17102Y4522D01*
G01X17106Y4520D01*
G01X17110Y4519D01*
G01X17114Y4518D01*
G01X17118Y4517D01*
G01X17122Y4516D01*
G01X17126Y4515D01*
G01X17130Y4514D01*
G01X17134Y4514D01*
G01X17138Y4514D01*
G01X17143Y4513D01*
G37*
G36*
G01X1669Y3045D02*
G01X1925Y3045D01*
G01X1925Y3301D01*
G01X1918Y3299D01*
G01X1875Y3276D01*
G01X1833Y3249D01*
G01X1795Y3219D01*
G01X1760Y3184D01*
G01X1728Y3147D01*
G01X1700Y3106D01*
G01X1677Y3063D01*
G01X1669Y3045D01*
G37*
G36*
G01X2318Y3045D02*
G01X2574Y3045D01*
G01X2555Y3085D01*
G01X2529Y3127D01*
G01X2500Y3166D01*
G01X2466Y3202D01*
G01X2429Y3234D01*
G01X2389Y3263D01*
G01X2347Y3288D01*
G01X2318Y3301D01*
G01X2318Y3045D01*
G37*
G36*
G01X2318Y2396D02*
G01X2347Y2409D01*
G01X2389Y2434D01*
G01X2429Y2463D01*
G01X2466Y2495D01*
G01X2500Y2531D01*
G01X2529Y2570D01*
G01X2555Y2612D01*
G01X2574Y2652D01*
G01X2318Y2652D01*
G01X2318Y2396D01*
G37*
G36*
G01X4865Y2355D02*
G01X4914Y2356D01*
G01X4963Y2362D01*
G01X5011Y2373D01*
G01X5058Y2389D01*
G01X5103Y2409D01*
G01X5145Y2434D01*
G01X5185Y2463D01*
G01X5222Y2495D01*
G01X5256Y2531D01*
G01X5285Y2570D01*
G01X5311Y2612D01*
G01X5332Y2657D01*
G01X5349Y2703D01*
G01X5361Y2751D01*
G01X5369Y2799D01*
G01X5371Y2848D01*
G01X5369Y2898D01*
G01X5361Y2946D01*
G01X5349Y2994D01*
G01X5332Y3040D01*
G01X5311Y3085D01*
G01X5285Y3127D01*
G01X5256Y3166D01*
G01X5222Y3202D01*
G01X5185Y3234D01*
G01X5145Y3263D01*
G01X5103Y3288D01*
G01X5058Y3308D01*
G01X5011Y3324D01*
G01X4963Y3335D01*
G01X4914Y3341D01*
G01X4865Y3342D01*
G01X4816Y3338D01*
G01X4768Y3330D01*
G01X4720Y3316D01*
G01X4674Y3299D01*
G01X4631Y3276D01*
G01X4589Y3249D01*
G01X4551Y3219D01*
G01X4516Y3184D01*
G01X4484Y3147D01*
G01X4456Y3106D01*
G01X4433Y3063D01*
G01X4414Y3017D01*
G01X4399Y2970D01*
G01X4389Y2922D01*
G01X4384Y2873D01*
G01X4384Y2824D01*
G01X4389Y2775D01*
G01X4399Y2727D01*
G01X4414Y2680D01*
G01X4433Y2634D01*
G01X4456Y2591D01*
G01X4484Y2550D01*
G01X4516Y2513D01*
G01X4551Y2478D01*
G01X4589Y2448D01*
G01X4631Y2421D01*
G01X4674Y2398D01*
G01X4720Y2381D01*
G01X4768Y2367D01*
G01X4816Y2359D01*
G01X4865Y2355D01*
G37*
G36*
G01X1925Y2396D02*
G01X1925Y2652D01*
G01X1669Y2652D01*
G01X1677Y2634D01*
G01X1700Y2591D01*
G01X1728Y2550D01*
G01X1760Y2513D01*
G01X1795Y2478D01*
G01X1833Y2448D01*
G01X1875Y2421D01*
G01X1918Y2398D01*
G01X1925Y2396D01*
G37*

%LPD*%
G36*
G01X10455Y4373D02*
G01X10455Y4965D01*
G01X10454Y4969D01*
G01X10454Y4973D01*
G01X10454Y4977D01*
G01X10453Y4981D01*
G01X10452Y4985D01*
G01X10451Y4989D01*
G01X10450Y4993D01*
G01X10449Y4997D01*
G01X10448Y5001D01*
G01X10446Y5005D01*
G01X10444Y5008D01*
G01X10442Y5012D01*
G01X10440Y5016D01*
G01X10438Y5019D01*
G01X10436Y5023D01*
G01X10433Y5026D01*
G01X10431Y5029D01*
G01X10428Y5032D01*
G01X10425Y5035D01*
G01X10422Y5038D01*
G01X10419Y5041D01*
G01X10416Y5043D01*
G01X10413Y5046D01*
G01X10409Y5048D01*
G01X10406Y5050D01*
G01X10402Y5052D01*
G01X10398Y5054D01*
G01X10395Y5056D01*
G01X10391Y5058D01*
G01X10387Y5059D01*
G01X10383Y5060D01*
G01X10379Y5061D01*
G01X10375Y5062D01*
G01X10371Y5063D01*
G01X10367Y5064D01*
G01X10363Y5064D01*
G01X10359Y5064D01*
G01X10355Y5065D01*
G01X10151Y5065D01*
G01X10151Y6392D01*
G01X10227Y6392D01*
G01X10233Y6393D01*
G01X10238Y6393D01*
G01X10243Y6393D01*
G01X10248Y6394D01*
G01X10254Y6395D01*
G01X10259Y6396D01*
G01X10264Y6397D01*
G01X10269Y6398D01*
G01X10274Y6400D01*
G01X10279Y6402D01*
G01X10284Y6403D01*
G01X10288Y6405D01*
G01X10293Y6408D01*
G01X10298Y6410D01*
G01X10302Y6413D01*
G01X10307Y6415D01*
G01X10311Y6418D01*
G01X10316Y6421D01*
G01X10320Y6424D01*
G01X10324Y6428D01*
G01X10328Y6431D01*
G01X10332Y6435D01*
G01X10335Y6438D01*
G01X10364Y6468D01*
G01X10368Y6472D01*
G01X10371Y6476D01*
G01X10375Y6480D01*
G01X10378Y6484D01*
G01X10381Y6489D01*
G01X10384Y6493D01*
G01X10386Y6497D01*
G01X10389Y6502D01*
G01X10391Y6507D01*
G01X10394Y6511D01*
G01X10396Y6516D01*
G01X10397Y6521D01*
G01X10399Y6526D01*
G01X10401Y6531D01*
G01X10402Y6536D01*
G01X10403Y6541D01*
G01X10404Y6546D01*
G01X10405Y6552D01*
G01X10406Y6557D01*
G01X10406Y6562D01*
G01X10406Y6567D01*
G01X10406Y6573D01*
G01X10406Y6869D01*
G01X10406Y6872D01*
G01X10406Y6873D01*
G01X10406Y6875D01*
G01X10406Y6877D01*
G01X10406Y6879D01*
G01X10406Y6881D01*
G01X10406Y6883D01*
G01X10406Y6884D01*
G01X10406Y6886D01*
G01X10405Y6888D01*
G01X10405Y6890D01*
G01X10405Y6892D01*
G01X10405Y6894D01*
G01X10404Y6896D01*
G01X10404Y6897D01*
G01X10404Y6899D01*
G01X10403Y6901D01*
G01X10403Y6903D01*
G01X10402Y6905D01*
G01X10402Y6907D01*
G01X10401Y6908D01*
G01X10401Y6910D01*
G01X10400Y6912D01*
G01X10400Y6914D01*
G01X10399Y6916D01*
G01X10399Y6917D01*
G01X10398Y6919D01*
G01X10397Y6921D01*
G01X10397Y6922D01*
G01X10396Y6924D01*
G01X10395Y6926D01*
G01X10395Y6928D01*
G01X10394Y6929D01*
G01X10393Y6931D01*
G01X10392Y6933D01*
G01X10392Y6935D01*
G01X10391Y6936D01*
G01X10390Y6938D01*
G01X10389Y6940D01*
G01X10388Y6941D01*
G01X10387Y6943D01*
G01X10386Y6944D01*
G01X10385Y6946D01*
G01X10384Y6948D01*
G01X10383Y6949D01*
G01X10382Y6951D01*
G01X10382Y6952D01*
G01X10380Y6954D01*
G01X10379Y6956D01*
G01X10378Y6957D01*
G01X10377Y6958D01*
G01X10376Y6960D01*
G01X10375Y6962D01*
G01X10374Y6963D01*
G01X10373Y6964D01*
G01X10371Y6966D01*
G01X10370Y6967D01*
G01X10369Y6969D01*
G01X10368Y6970D01*
G01X10366Y6972D01*
G01X10365Y6973D01*
G01X10364Y6974D01*
G01X10363Y6976D01*
G01X10361Y6977D01*
G01X10360Y6978D01*
G01X10359Y6979D01*
G01X10357Y6981D01*
G01X10356Y6982D01*
G01X10354Y6983D01*
G01X10353Y6984D01*
G01X10351Y6986D01*
G01X10350Y6987D01*
G01X10349Y6988D01*
G01X10347Y6989D01*
G01X10345Y6990D01*
G01X10344Y6991D01*
G01X10343Y6992D01*
G01X10341Y6993D01*
G01X10339Y6995D01*
G01X10338Y6996D01*
G01X10336Y6996D01*
G01X10335Y6997D01*
G01X10333Y6998D01*
G01X10331Y6999D01*
G01X10330Y7000D01*
G01X10328Y7001D01*
G01X10327Y7002D01*
G01X10325Y7003D01*
G01X10323Y7004D01*
G01X10322Y7005D01*
G01X10320Y7005D01*
G01X10318Y7006D01*
G01X10316Y7007D01*
G01X10315Y7008D01*
G01X10313Y7008D01*
G01X10311Y7009D01*
G01X10309Y7010D01*
G01X10308Y7010D01*
G01X10306Y7011D01*
G01X10304Y7012D01*
G01X10303Y7012D01*
G01X10301Y7013D01*
G01X10299Y7013D01*
G01X10297Y7014D01*
G01X10295Y7014D01*
G01X10294Y7015D01*
G01X10292Y7015D01*
G01X10290Y7016D01*
G01X10288Y7016D01*
G01X10286Y7017D01*
G01X10284Y7017D01*
G01X10283Y7017D01*
G01X10281Y7018D01*
G01X10279Y7018D01*
G01X10277Y7018D01*
G01X10275Y7018D01*
G01X10273Y7019D01*
G01X10271Y7019D01*
G01X10270Y7019D01*
G01X10268Y7019D01*
G01X10266Y7019D01*
G01X10264Y7019D01*
G01X10262Y7019D01*
G01X10260Y7019D01*
G01X10258Y7019D01*
G01X10256Y7019D01*
G01X10246Y7019D01*
G01X10246Y7067D01*
G01X10246Y7071D01*
G01X10246Y7075D01*
G01X10245Y7079D01*
G01X10245Y7083D01*
G01X10244Y7087D01*
G01X10243Y7091D01*
G01X10242Y7095D01*
G01X10241Y7099D01*
G01X10239Y7103D01*
G01X10238Y7107D01*
G01X10236Y7110D01*
G01X10234Y7114D01*
G01X10232Y7118D01*
G01X10230Y7121D01*
G01X10227Y7125D01*
G01X10225Y7128D01*
G01X10222Y7131D01*
G01X10220Y7134D01*
G01X10217Y7137D01*
G01X10214Y7140D01*
G01X10211Y7143D01*
G01X10207Y7145D01*
G01X10204Y7148D01*
G01X10201Y7150D01*
G01X10197Y7152D01*
G01X10194Y7154D01*
G01X10190Y7156D01*
G01X10186Y7158D01*
G01X10182Y7160D01*
G01X10178Y7161D01*
G01X10175Y7162D01*
G01X10171Y7163D01*
G01X10167Y7164D01*
G01X10162Y7165D01*
G01X10158Y7166D01*
G01X10154Y7166D01*
G01X10150Y7166D01*
G01X10146Y7167D01*
G01X9555Y7167D01*
G01X9551Y7166D01*
G01X9547Y7166D01*
G01X9543Y7166D01*
G01X9539Y7165D01*
G01X9534Y7164D01*
G01X9530Y7163D01*
G01X9526Y7162D01*
G01X9523Y7161D01*
G01X9519Y7160D01*
G01X9515Y7158D01*
G01X9511Y7156D01*
G01X9507Y7154D01*
G01X9504Y7152D01*
G01X9500Y7150D01*
G01X9497Y7148D01*
G01X9494Y7145D01*
G01X9490Y7143D01*
G01X9487Y7140D01*
G01X9484Y7137D01*
G01X9481Y7134D01*
G01X9479Y7131D01*
G01X9476Y7128D01*
G01X9474Y7125D01*
G01X9471Y7121D01*
G01X9469Y7118D01*
G01X9467Y7114D01*
G01X9465Y7110D01*
G01X9463Y7107D01*
G01X9462Y7103D01*
G01X9460Y7099D01*
G01X9459Y7095D01*
G01X9458Y7091D01*
G01X9457Y7087D01*
G01X9456Y7083D01*
G01X9456Y7079D01*
G01X9455Y7075D01*
G01X9455Y7071D01*
G01X9455Y7067D01*
G01X9455Y6692D01*
G01X8055Y6692D01*
G01X8079Y6713D01*
G01X8106Y6742D01*
G01X8130Y6774D01*
G01X8151Y6808D01*
G01X8168Y6844D01*
G01X8170Y6850D01*
G01X7950Y6850D01*
G01X7950Y6692D01*
G01X7707Y6692D01*
G01X7650Y6750D01*
G01X7650Y6850D01*
G01X7550Y6850D01*
G01X5700Y8701D01*
G01X5700Y8845D01*
G01X5864Y8845D01*
G01X5869Y8845D01*
G01X5873Y8845D01*
G01X5877Y8846D01*
G01X5881Y8846D01*
G01X5885Y8847D01*
G01X5889Y8848D01*
G01X5893Y8849D01*
G01X5897Y8850D01*
G01X5901Y8852D01*
G01X5905Y8853D01*
G01X5908Y8855D01*
G01X5912Y8857D01*
G01X5916Y8859D01*
G01X5919Y8861D01*
G01X5923Y8864D01*
G01X5926Y8866D01*
G01X5929Y8869D01*
G01X5932Y8871D01*
G01X5935Y8874D01*
G01X5938Y8877D01*
G01X5941Y8880D01*
G01X5943Y8884D01*
G01X5946Y8887D01*
G01X5948Y8890D01*
G01X5950Y8894D01*
G01X5952Y8897D01*
G01X5953Y8899D01*
G01X7308Y7543D01*
G01X7312Y7540D01*
G01X7316Y7536D01*
G01X7320Y7533D01*
G01X7324Y7530D01*
G01X7328Y7527D01*
G01X7332Y7524D01*
G01X7337Y7521D01*
G01X7341Y7519D01*
G01X7345Y7516D01*
G01X7350Y7514D01*
G01X7355Y7512D01*
G01X7359Y7510D01*
G01X7364Y7508D01*
G01X7369Y7507D01*
G01X7374Y7505D01*
G01X7379Y7504D01*
G01X7384Y7503D01*
G01X7389Y7502D01*
G01X7394Y7501D01*
G01X7399Y7500D01*
G01X7404Y7500D01*
G01X7409Y7500D01*
G01X7414Y7500D01*
G01X9455Y7500D01*
G01X9455Y7453D01*
G01X9455Y7448D01*
G01X9455Y7444D01*
G01X9456Y7440D01*
G01X9456Y7436D01*
G01X9457Y7432D01*
G01X9458Y7428D01*
G01X9459Y7424D01*
G01X9460Y7420D01*
G01X9462Y7416D01*
G01X9463Y7412D01*
G01X9465Y7409D01*
G01X9467Y7405D01*
G01X9469Y7401D01*
G01X9471Y7398D01*
G01X9474Y7394D01*
G01X9476Y7391D01*
G01X9479Y7388D01*
G01X9481Y7385D01*
G01X9484Y7382D01*
G01X9487Y7379D01*
G01X9490Y7376D01*
G01X9494Y7374D01*
G01X9497Y7371D01*
G01X9500Y7369D01*
G01X9504Y7367D01*
G01X9507Y7365D01*
G01X9511Y7363D01*
G01X9515Y7361D01*
G01X9519Y7359D01*
G01X9523Y7358D01*
G01X9526Y7357D01*
G01X9530Y7356D01*
G01X9534Y7355D01*
G01X9539Y7354D01*
G01X9543Y7353D01*
G01X9547Y7353D01*
G01X9551Y7353D01*
G01X9555Y7353D01*
G01X10146Y7353D01*
G01X10150Y7353D01*
G01X10154Y7353D01*
G01X10158Y7353D01*
G01X10162Y7354D01*
G01X10167Y7355D01*
G01X10171Y7356D01*
G01X10175Y7357D01*
G01X10178Y7358D01*
G01X10182Y7359D01*
G01X10186Y7361D01*
G01X10190Y7363D01*
G01X10194Y7365D01*
G01X10197Y7367D01*
G01X10201Y7369D01*
G01X10204Y7371D01*
G01X10207Y7374D01*
G01X10211Y7376D01*
G01X10214Y7379D01*
G01X10217Y7382D01*
G01X10220Y7385D01*
G01X10222Y7388D01*
G01X10225Y7391D01*
G01X10227Y7394D01*
G01X10230Y7398D01*
G01X10232Y7401D01*
G01X10234Y7405D01*
G01X10236Y7409D01*
G01X10238Y7412D01*
G01X10239Y7416D01*
G01X10241Y7420D01*
G01X10242Y7424D01*
G01X10243Y7428D01*
G01X10244Y7432D01*
G01X10245Y7436D01*
G01X10245Y7440D01*
G01X10246Y7444D01*
G01X10246Y7448D01*
G01X10246Y7453D01*
G01X10246Y7846D01*
G01X10246Y7851D01*
G01X10246Y7855D01*
G01X10245Y7859D01*
G01X10245Y7863D01*
G01X10244Y7867D01*
G01X10243Y7871D01*
G01X10242Y7875D01*
G01X10241Y7879D01*
G01X10239Y7883D01*
G01X10238Y7887D01*
G01X10236Y7890D01*
G01X10234Y7894D01*
G01X10232Y7898D01*
G01X10230Y7901D01*
G01X10227Y7905D01*
G01X10225Y7908D01*
G01X10222Y7911D01*
G01X10220Y7914D01*
G01X10217Y7917D01*
G01X10214Y7920D01*
G01X10211Y7923D01*
G01X10207Y7925D01*
G01X10204Y7928D01*
G01X10201Y7930D01*
G01X10197Y7932D01*
G01X10194Y7934D01*
G01X10190Y7936D01*
G01X10186Y7938D01*
G01X10182Y7940D01*
G01X10178Y7941D01*
G01X10175Y7942D01*
G01X10171Y7943D01*
G01X10167Y7944D01*
G01X10162Y7945D01*
G01X10158Y7946D01*
G01X10154Y7946D01*
G01X10150Y7946D01*
G01X10146Y7946D01*
G01X9555Y7946D01*
G01X9551Y7946D01*
G01X9547Y7946D01*
G01X9543Y7946D01*
G01X9539Y7945D01*
G01X9534Y7944D01*
G01X9530Y7943D01*
G01X9526Y7942D01*
G01X9523Y7941D01*
G01X9519Y7940D01*
G01X9515Y7938D01*
G01X9511Y7936D01*
G01X9507Y7934D01*
G01X9504Y7932D01*
G01X9500Y7930D01*
G01X9497Y7928D01*
G01X9494Y7925D01*
G01X9490Y7923D01*
G01X9487Y7920D01*
G01X9484Y7917D01*
G01X9481Y7914D01*
G01X9479Y7911D01*
G01X9476Y7908D01*
G01X9474Y7905D01*
G01X9471Y7901D01*
G01X9469Y7898D01*
G01X9467Y7894D01*
G01X9465Y7890D01*
G01X9463Y7887D01*
G01X9462Y7883D01*
G01X9460Y7879D01*
G01X9459Y7875D01*
G01X9458Y7871D01*
G01X9457Y7867D01*
G01X9456Y7863D01*
G01X9456Y7859D01*
G01X9455Y7855D01*
G01X9455Y7851D01*
G01X9455Y7846D01*
G01X9455Y7800D01*
G01X7477Y7800D01*
G01X6431Y8845D01*
G01X6964Y8845D01*
G01X6969Y8845D01*
G01X6973Y8845D01*
G01X6977Y8846D01*
G01X6981Y8846D01*
G01X6985Y8847D01*
G01X6989Y8848D01*
G01X6993Y8849D01*
G01X6997Y8850D01*
G01X7001Y8852D01*
G01X7005Y8853D01*
G01X7008Y8855D01*
G01X7012Y8857D01*
G01X7016Y8859D01*
G01X7019Y8861D01*
G01X7023Y8864D01*
G01X7026Y8866D01*
G01X7029Y8869D01*
G01X7032Y8871D01*
G01X7035Y8874D01*
G01X7038Y8877D01*
G01X7041Y8880D01*
G01X7043Y8884D01*
G01X7046Y8887D01*
G01X7048Y8890D01*
G01X7050Y8894D01*
G01X7052Y8897D01*
G01X7054Y8901D01*
G01X7056Y8905D01*
G01X7058Y8909D01*
G01X7059Y8913D01*
G01X7060Y8916D01*
G01X7061Y8920D01*
G01X7062Y8924D01*
G01X7063Y8929D01*
G01X7064Y8933D01*
G01X7064Y8937D01*
G01X7064Y8941D01*
G01X7064Y8945D01*
G01X7064Y9654D01*
G01X7064Y9658D01*
G01X7064Y9662D01*
G01X7064Y9666D01*
G01X7063Y9670D01*
G01X7062Y9675D01*
G01X7061Y9679D01*
G01X7060Y9683D01*
G01X7059Y9686D01*
G01X7058Y9690D01*
G01X7056Y9694D01*
G01X7054Y9698D01*
G01X7052Y9702D01*
G01X7050Y9705D01*
G01X7048Y9709D01*
G01X7046Y9712D01*
G01X7043Y9715D01*
G01X7041Y9719D01*
G01X7038Y9722D01*
G01X7035Y9725D01*
G01X7032Y9728D01*
G01X7029Y9730D01*
G01X7026Y9733D01*
G01X7023Y9735D01*
G01X7019Y9738D01*
G01X7016Y9740D01*
G01X7012Y9742D01*
G01X7008Y9744D01*
G01X7005Y9746D01*
G01X7001Y9747D01*
G01X6997Y9749D01*
G01X6993Y9750D01*
G01X6989Y9751D01*
G01X6985Y9752D01*
G01X6981Y9753D01*
G01X6977Y9753D01*
G01X6973Y9754D01*
G01X6969Y9754D01*
G01X6964Y9754D01*
G01X6800Y9754D01*
G01X6800Y10345D01*
G01X6964Y10345D01*
G01X6969Y10345D01*
G01X6973Y10345D01*
G01X6977Y10346D01*
G01X6981Y10346D01*
G01X6985Y10347D01*
G01X6989Y10348D01*
G01X6993Y10349D01*
G01X6997Y10350D01*
G01X7001Y10352D01*
G01X7005Y10353D01*
G01X7008Y10355D01*
G01X7012Y10357D01*
G01X7016Y10359D01*
G01X7019Y10361D01*
G01X7023Y10364D01*
G01X7026Y10366D01*
G01X7029Y10369D01*
G01X7032Y10371D01*
G01X7035Y10374D01*
G01X7038Y10377D01*
G01X7041Y10380D01*
G01X7043Y10384D01*
G01X7046Y10387D01*
G01X7048Y10390D01*
G01X7050Y10394D01*
G01X7052Y10397D01*
G01X7054Y10401D01*
G01X7056Y10405D01*
G01X7058Y10409D01*
G01X7059Y10413D01*
G01X7060Y10416D01*
G01X7061Y10420D01*
G01X7062Y10424D01*
G01X7063Y10429D01*
G01X7064Y10433D01*
G01X7064Y10437D01*
G01X7064Y10441D01*
G01X7064Y10445D01*
G01X7064Y10650D01*
G01X7076Y10650D01*
G01X7076Y10650D01*
G01X7077Y10650D01*
G01X7079Y10650D01*
G01X7081Y10650D01*
G01X7082Y10650D01*
G01X7083Y10650D01*
G01X7084Y10650D01*
G01X7085Y10650D01*
G01X7087Y10650D01*
G01X7089Y10650D01*
G01X7090Y10650D01*
G01X7090Y10650D01*
G01X7091Y10650D01*
G01X7092Y10650D01*
G01X7094Y10651D01*
G01X7096Y10651D01*
G01X7097Y10651D01*
G01X7098Y10651D01*
G01X7099Y10651D01*
G01X7100Y10651D01*
G01X7101Y10652D01*
G01X7103Y10652D01*
G01X7104Y10652D01*
G01X7105Y10652D01*
G01X7106Y10653D01*
G01X7107Y10653D01*
G01X7109Y10653D01*
G01X7111Y10654D01*
G01X7112Y10654D01*
G01X7113Y10654D01*
G01X7113Y10654D01*
G01X7114Y10655D01*
G01X7116Y10655D01*
G01X7118Y10656D01*
G01X7119Y10656D01*
G01X7120Y10656D01*
G01X7121Y10656D01*
G01X7122Y10657D01*
G01X7123Y10657D01*
G01X7125Y10658D01*
G01X7126Y10658D01*
G01X7127Y10659D01*
G01X7128Y10659D01*
G01X7129Y10659D01*
G01X7130Y10660D01*
G01X7132Y10661D01*
G01X7133Y10661D01*
G01X7134Y10661D01*
G01X7135Y10662D01*
G01X7135Y10662D01*
G01X7137Y10663D01*
G01X7139Y10664D01*
G01X7140Y10664D01*
G01X7141Y10664D01*
G01X7142Y10665D01*
G01X7142Y10665D01*
G01X7144Y10666D01*
G01X7146Y10667D01*
G01X7146Y10667D01*
G01X7147Y10668D01*
G01X7148Y10668D01*
G01X7149Y10669D01*
G01X7150Y10670D01*
G01X7152Y10671D01*
G01X7153Y10671D01*
G01X7154Y10672D01*
G01X7155Y10672D01*
G01X7155Y10672D01*
G01X7157Y10673D01*
G01X7158Y10675D01*
G01X7159Y10675D01*
G01X7160Y10676D01*
G01X7161Y10676D01*
G01X7162Y10677D01*
G01X7163Y10678D01*
G01X7165Y10679D01*
G01X7165Y10679D01*
G01X7166Y10680D01*
G01X7167Y10681D01*
G01X7168Y10681D01*
G01X7169Y10682D01*
G01X7170Y10683D01*
G01X7171Y10684D01*
G01X7172Y10685D01*
G01X7173Y10685D01*
G01X7173Y10686D01*
G01X7175Y10687D01*
G01X7176Y10688D01*
G01X7177Y10689D01*
G01X7178Y10690D01*
G01X7178Y10690D01*
G01X7179Y10691D01*
G01X7180Y10692D01*
G01X7182Y10693D01*
G01X7928Y11440D01*
G01X9455Y11440D01*
G01X9455Y11392D01*
G01X9455Y11388D01*
G01X9455Y11384D01*
G01X9456Y11380D01*
G01X9456Y11376D01*
G01X9457Y11372D01*
G01X9458Y11368D01*
G01X9459Y11364D01*
G01X9460Y11360D01*
G01X9462Y11356D01*
G01X9463Y11352D01*
G01X9465Y11349D01*
G01X9467Y11345D01*
G01X9469Y11341D01*
G01X9471Y11338D01*
G01X9474Y11334D01*
G01X9476Y11331D01*
G01X9479Y11328D01*
G01X9481Y11325D01*
G01X9484Y11322D01*
G01X9487Y11319D01*
G01X9490Y11316D01*
G01X9494Y11314D01*
G01X9497Y11311D01*
G01X9500Y11309D01*
G01X9504Y11307D01*
G01X9507Y11305D01*
G01X9511Y11303D01*
G01X9515Y11301D01*
G01X9519Y11299D01*
G01X9523Y11298D01*
G01X9526Y11297D01*
G01X9530Y11296D01*
G01X9534Y11295D01*
G01X9539Y11294D01*
G01X9543Y11293D01*
G01X9547Y11293D01*
G01X9551Y11293D01*
G01X9555Y11292D01*
G01X10146Y11292D01*
G01X10150Y11293D01*
G01X10154Y11293D01*
G01X10158Y11293D01*
G01X10162Y11294D01*
G01X10167Y11295D01*
G01X10171Y11296D01*
G01X10175Y11297D01*
G01X10178Y11298D01*
G01X10182Y11299D01*
G01X10186Y11301D01*
G01X10190Y11303D01*
G01X10194Y11305D01*
G01X10197Y11307D01*
G01X10201Y11309D01*
G01X10204Y11311D01*
G01X10207Y11314D01*
G01X10211Y11316D01*
G01X10214Y11319D01*
G01X10217Y11322D01*
G01X10220Y11325D01*
G01X10222Y11328D01*
G01X10225Y11331D01*
G01X10227Y11334D01*
G01X10230Y11338D01*
G01X10232Y11341D01*
G01X10234Y11345D01*
G01X10236Y11349D01*
G01X10238Y11352D01*
G01X10239Y11356D01*
G01X10241Y11360D01*
G01X10242Y11364D01*
G01X10243Y11368D01*
G01X10244Y11372D01*
G01X10245Y11376D01*
G01X10245Y11380D01*
G01X10246Y11384D01*
G01X10246Y11388D01*
G01X10246Y11392D01*
G01X10246Y11440D01*
G01X10947Y11440D01*
G01X12250Y10137D01*
G01X12250Y5449D01*
G01X12250Y5444D01*
G01X12250Y5439D01*
G01X12250Y5434D01*
G01X12251Y5429D01*
G01X12252Y5424D01*
G01X12253Y5418D01*
G01X12254Y5413D01*
G01X12255Y5409D01*
G01X12257Y5404D01*
G01X12258Y5399D01*
G01X12260Y5394D01*
G01X12262Y5389D01*
G01X12264Y5385D01*
G01X12266Y5380D01*
G01X12269Y5375D01*
G01X12271Y5371D01*
G01X12274Y5367D01*
G01X12277Y5363D01*
G01X12280Y5358D01*
G01X12283Y5354D01*
G01X12286Y5350D01*
G01X12290Y5347D01*
G01X12293Y5343D01*
G01X12535Y5102D01*
G01X12535Y4544D01*
G01X12535Y4540D01*
G01X12535Y4536D01*
G01X12535Y4532D01*
G01X12536Y4528D01*
G01X12537Y4524D01*
G01X12538Y4520D01*
G01X12539Y4516D01*
G01X12540Y4512D01*
G01X12541Y4508D01*
G01X12543Y4504D01*
G01X12545Y4501D01*
G01X12547Y4497D01*
G01X12549Y4493D01*
G01X12551Y4490D01*
G01X12553Y4486D01*
G01X12556Y4483D01*
G01X12558Y4480D01*
G01X12561Y4477D01*
G01X12564Y4474D01*
G01X12567Y4471D01*
G01X12570Y4468D01*
G01X12573Y4466D01*
G01X12576Y4463D01*
G01X12580Y4461D01*
G01X12583Y4459D01*
G01X12587Y4457D01*
G01X12591Y4455D01*
G01X12594Y4453D01*
G01X12598Y4451D01*
G01X12602Y4450D01*
G01X12606Y4449D01*
G01X12610Y4448D01*
G01X12614Y4447D01*
G01X12618Y4446D01*
G01X12622Y4445D01*
G01X12626Y4445D01*
G01X12630Y4445D01*
G01X12635Y4444D01*
G01X12661Y4444D01*
G01X12658Y4436D01*
G01X12651Y4415D01*
G01X12647Y4393D01*
G01X12645Y4373D01*
G01X10455Y4373D01*
G37*

%LPC*%
G36*
G01X9555Y10503D02*
G01X10146Y10503D01*
G01X10150Y10503D01*
G01X10154Y10503D01*
G01X10158Y10503D01*
G01X10162Y10504D01*
G01X10167Y10505D01*
G01X10171Y10506D01*
G01X10175Y10507D01*
G01X10178Y10508D01*
G01X10182Y10509D01*
G01X10186Y10511D01*
G01X10190Y10513D01*
G01X10194Y10515D01*
G01X10197Y10517D01*
G01X10201Y10519D01*
G01X10204Y10521D01*
G01X10207Y10524D01*
G01X10211Y10526D01*
G01X10214Y10529D01*
G01X10217Y10532D01*
G01X10220Y10535D01*
G01X10222Y10538D01*
G01X10225Y10541D01*
G01X10227Y10544D01*
G01X10230Y10548D01*
G01X10232Y10551D01*
G01X10234Y10555D01*
G01X10236Y10559D01*
G01X10238Y10562D01*
G01X10239Y10566D01*
G01X10241Y10570D01*
G01X10242Y10574D01*
G01X10243Y10578D01*
G01X10244Y10582D01*
G01X10245Y10586D01*
G01X10245Y10590D01*
G01X10246Y10594D01*
G01X10246Y10598D01*
G01X10246Y10603D01*
G01X10246Y10996D01*
G01X10246Y11001D01*
G01X10246Y11005D01*
G01X10245Y11009D01*
G01X10245Y11013D01*
G01X10244Y11017D01*
G01X10243Y11021D01*
G01X10242Y11025D01*
G01X10241Y11029D01*
G01X10239Y11033D01*
G01X10238Y11037D01*
G01X10236Y11040D01*
G01X10234Y11044D01*
G01X10232Y11048D01*
G01X10230Y11051D01*
G01X10227Y11055D01*
G01X10225Y11058D01*
G01X10222Y11061D01*
G01X10220Y11064D01*
G01X10217Y11067D01*
G01X10214Y11070D01*
G01X10211Y11073D01*
G01X10207Y11075D01*
G01X10204Y11078D01*
G01X10201Y11080D01*
G01X10197Y11082D01*
G01X10194Y11084D01*
G01X10190Y11086D01*
G01X10186Y11088D01*
G01X10182Y11090D01*
G01X10178Y11091D01*
G01X10175Y11092D01*
G01X10171Y11093D01*
G01X10167Y11094D01*
G01X10162Y11095D01*
G01X10158Y11096D01*
G01X10154Y11096D01*
G01X10150Y11096D01*
G01X10146Y11096D01*
G01X9555Y11096D01*
G01X9551Y11096D01*
G01X9547Y11096D01*
G01X9543Y11096D01*
G01X9539Y11095D01*
G01X9534Y11094D01*
G01X9530Y11093D01*
G01X9526Y11092D01*
G01X9523Y11091D01*
G01X9519Y11090D01*
G01X9515Y11088D01*
G01X9511Y11086D01*
G01X9507Y11084D01*
G01X9504Y11082D01*
G01X9500Y11080D01*
G01X9497Y11078D01*
G01X9494Y11075D01*
G01X9490Y11073D01*
G01X9487Y11070D01*
G01X9484Y11067D01*
G01X9481Y11064D01*
G01X9479Y11061D01*
G01X9476Y11058D01*
G01X9474Y11055D01*
G01X9471Y11051D01*
G01X9469Y11048D01*
G01X9467Y11044D01*
G01X9465Y11040D01*
G01X9463Y11037D01*
G01X9462Y11033D01*
G01X9460Y11029D01*
G01X9459Y11025D01*
G01X9458Y11021D01*
G01X9457Y11017D01*
G01X9456Y11013D01*
G01X9456Y11009D01*
G01X9455Y11005D01*
G01X9455Y11001D01*
G01X9455Y10996D01*
G01X9455Y10603D01*
G01X9455Y10598D01*
G01X9455Y10594D01*
G01X9456Y10590D01*
G01X9456Y10586D01*
G01X9457Y10582D01*
G01X9458Y10578D01*
G01X9459Y10574D01*
G01X9460Y10570D01*
G01X9462Y10566D01*
G01X9463Y10562D01*
G01X9465Y10559D01*
G01X9467Y10555D01*
G01X9469Y10551D01*
G01X9471Y10548D01*
G01X9474Y10544D01*
G01X9476Y10541D01*
G01X9479Y10538D01*
G01X9481Y10535D01*
G01X9484Y10532D01*
G01X9487Y10529D01*
G01X9490Y10526D01*
G01X9494Y10524D01*
G01X9497Y10521D01*
G01X9500Y10519D01*
G01X9504Y10517D01*
G01X9507Y10515D01*
G01X9511Y10513D01*
G01X9515Y10511D01*
G01X9519Y10509D01*
G01X9523Y10508D01*
G01X9526Y10507D01*
G01X9530Y10506D01*
G01X9534Y10505D01*
G01X9539Y10504D01*
G01X9543Y10503D01*
G01X9547Y10503D01*
G01X9551Y10503D01*
G01X9555Y10503D01*
G37*
G36*
G01X9555Y9713D02*
G01X10146Y9713D01*
G01X10150Y9713D01*
G01X10154Y9713D01*
G01X10158Y9713D01*
G01X10162Y9714D01*
G01X10167Y9715D01*
G01X10171Y9716D01*
G01X10175Y9717D01*
G01X10178Y9718D01*
G01X10182Y9719D01*
G01X10186Y9721D01*
G01X10190Y9723D01*
G01X10194Y9725D01*
G01X10197Y9727D01*
G01X10201Y9729D01*
G01X10204Y9731D01*
G01X10207Y9734D01*
G01X10211Y9736D01*
G01X10214Y9739D01*
G01X10217Y9742D01*
G01X10220Y9745D01*
G01X10222Y9748D01*
G01X10225Y9751D01*
G01X10227Y9754D01*
G01X10230Y9758D01*
G01X10232Y9761D01*
G01X10234Y9765D01*
G01X10236Y9769D01*
G01X10238Y9772D01*
G01X10239Y9776D01*
G01X10241Y9780D01*
G01X10242Y9784D01*
G01X10243Y9788D01*
G01X10244Y9792D01*
G01X10245Y9796D01*
G01X10245Y9800D01*
G01X10246Y9804D01*
G01X10246Y9808D01*
G01X10246Y9813D01*
G01X10246Y10207D01*
G01X10246Y10211D01*
G01X10246Y10215D01*
G01X10245Y10219D01*
G01X10245Y10223D01*
G01X10244Y10227D01*
G01X10243Y10231D01*
G01X10242Y10235D01*
G01X10241Y10239D01*
G01X10239Y10243D01*
G01X10238Y10247D01*
G01X10236Y10250D01*
G01X10234Y10254D01*
G01X10232Y10258D01*
G01X10230Y10261D01*
G01X10227Y10265D01*
G01X10225Y10268D01*
G01X10222Y10271D01*
G01X10220Y10274D01*
G01X10217Y10277D01*
G01X10214Y10280D01*
G01X10211Y10283D01*
G01X10207Y10285D01*
G01X10204Y10288D01*
G01X10201Y10290D01*
G01X10197Y10292D01*
G01X10194Y10294D01*
G01X10190Y10296D01*
G01X10186Y10298D01*
G01X10182Y10300D01*
G01X10178Y10301D01*
G01X10175Y10302D01*
G01X10171Y10303D01*
G01X10167Y10304D01*
G01X10162Y10305D01*
G01X10158Y10306D01*
G01X10154Y10306D01*
G01X10150Y10306D01*
G01X10146Y10307D01*
G01X9555Y10307D01*
G01X9551Y10306D01*
G01X9547Y10306D01*
G01X9543Y10306D01*
G01X9539Y10305D01*
G01X9534Y10304D01*
G01X9530Y10303D01*
G01X9526Y10302D01*
G01X9523Y10301D01*
G01X9519Y10300D01*
G01X9515Y10298D01*
G01X9511Y10296D01*
G01X9507Y10294D01*
G01X9504Y10292D01*
G01X9500Y10290D01*
G01X9497Y10288D01*
G01X9494Y10285D01*
G01X9490Y10283D01*
G01X9487Y10280D01*
G01X9484Y10277D01*
G01X9481Y10274D01*
G01X9479Y10271D01*
G01X9476Y10268D01*
G01X9474Y10265D01*
G01X9471Y10261D01*
G01X9469Y10258D01*
G01X9467Y10254D01*
G01X9465Y10250D01*
G01X9463Y10247D01*
G01X9462Y10243D01*
G01X9460Y10239D01*
G01X9459Y10235D01*
G01X9458Y10231D01*
G01X9457Y10227D01*
G01X9456Y10223D01*
G01X9456Y10219D01*
G01X9455Y10215D01*
G01X9455Y10211D01*
G01X9455Y10207D01*
G01X9455Y9813D01*
G01X9455Y9808D01*
G01X9455Y9804D01*
G01X9456Y9800D01*
G01X9456Y9796D01*
G01X9457Y9792D01*
G01X9458Y9788D01*
G01X9459Y9784D01*
G01X9460Y9780D01*
G01X9462Y9776D01*
G01X9463Y9772D01*
G01X9465Y9769D01*
G01X9467Y9765D01*
G01X9469Y9761D01*
G01X9471Y9758D01*
G01X9474Y9754D01*
G01X9476Y9751D01*
G01X9479Y9748D01*
G01X9481Y9745D01*
G01X9484Y9742D01*
G01X9487Y9739D01*
G01X9490Y9736D01*
G01X9494Y9734D01*
G01X9497Y9731D01*
G01X9500Y9729D01*
G01X9504Y9727D01*
G01X9507Y9725D01*
G01X9511Y9723D01*
G01X9515Y9721D01*
G01X9519Y9719D01*
G01X9523Y9718D01*
G01X9526Y9717D01*
G01X9530Y9716D01*
G01X9534Y9715D01*
G01X9539Y9714D01*
G01X9543Y9713D01*
G01X9547Y9713D01*
G01X9551Y9713D01*
G01X9555Y9713D01*
G37*
G36*
G01X9555Y8932D02*
G01X10146Y8932D01*
G01X10150Y8933D01*
G01X10154Y8933D01*
G01X10158Y8933D01*
G01X10162Y8934D01*
G01X10167Y8935D01*
G01X10171Y8936D01*
G01X10175Y8937D01*
G01X10178Y8938D01*
G01X10182Y8939D01*
G01X10186Y8941D01*
G01X10190Y8943D01*
G01X10194Y8945D01*
G01X10197Y8947D01*
G01X10201Y8949D01*
G01X10204Y8951D01*
G01X10207Y8954D01*
G01X10211Y8956D01*
G01X10214Y8959D01*
G01X10217Y8962D01*
G01X10220Y8965D01*
G01X10222Y8968D01*
G01X10225Y8971D01*
G01X10227Y8974D01*
G01X10230Y8978D01*
G01X10232Y8981D01*
G01X10234Y8985D01*
G01X10236Y8989D01*
G01X10238Y8992D01*
G01X10239Y8996D01*
G01X10241Y9000D01*
G01X10242Y9004D01*
G01X10243Y9008D01*
G01X10244Y9012D01*
G01X10245Y9016D01*
G01X10245Y9020D01*
G01X10246Y9024D01*
G01X10246Y9028D01*
G01X10246Y9032D01*
G01X10246Y9426D01*
G01X10246Y9431D01*
G01X10246Y9435D01*
G01X10245Y9439D01*
G01X10245Y9443D01*
G01X10244Y9447D01*
G01X10243Y9451D01*
G01X10242Y9455D01*
G01X10241Y9459D01*
G01X10239Y9463D01*
G01X10238Y9467D01*
G01X10236Y9470D01*
G01X10234Y9474D01*
G01X10232Y9478D01*
G01X10230Y9481D01*
G01X10227Y9485D01*
G01X10225Y9488D01*
G01X10222Y9491D01*
G01X10220Y9494D01*
G01X10217Y9497D01*
G01X10214Y9500D01*
G01X10211Y9503D01*
G01X10207Y9505D01*
G01X10204Y9508D01*
G01X10201Y9510D01*
G01X10197Y9512D01*
G01X10194Y9514D01*
G01X10190Y9516D01*
G01X10186Y9518D01*
G01X10182Y9520D01*
G01X10178Y9521D01*
G01X10175Y9522D01*
G01X10171Y9523D01*
G01X10167Y9524D01*
G01X10162Y9525D01*
G01X10158Y9526D01*
G01X10154Y9526D01*
G01X10150Y9526D01*
G01X10146Y9526D01*
G01X9555Y9526D01*
G01X9551Y9526D01*
G01X9547Y9526D01*
G01X9543Y9526D01*
G01X9539Y9525D01*
G01X9534Y9524D01*
G01X9530Y9523D01*
G01X9526Y9522D01*
G01X9523Y9521D01*
G01X9519Y9520D01*
G01X9515Y9518D01*
G01X9511Y9516D01*
G01X9507Y9514D01*
G01X9504Y9512D01*
G01X9500Y9510D01*
G01X9497Y9508D01*
G01X9494Y9505D01*
G01X9490Y9503D01*
G01X9487Y9500D01*
G01X9484Y9497D01*
G01X9481Y9494D01*
G01X9479Y9491D01*
G01X9476Y9488D01*
G01X9474Y9485D01*
G01X9471Y9481D01*
G01X9469Y9478D01*
G01X9467Y9474D01*
G01X9465Y9470D01*
G01X9463Y9467D01*
G01X9462Y9463D01*
G01X9460Y9459D01*
G01X9459Y9455D01*
G01X9458Y9451D01*
G01X9457Y9447D01*
G01X9456Y9443D01*
G01X9456Y9439D01*
G01X9455Y9435D01*
G01X9455Y9431D01*
G01X9455Y9426D01*
G01X9455Y9032D01*
G01X9455Y9028D01*
G01X9455Y9024D01*
G01X9456Y9020D01*
G01X9456Y9016D01*
G01X9457Y9012D01*
G01X9458Y9008D01*
G01X9459Y9004D01*
G01X9460Y9000D01*
G01X9462Y8996D01*
G01X9463Y8992D01*
G01X9465Y8989D01*
G01X9467Y8985D01*
G01X9469Y8981D01*
G01X9471Y8978D01*
G01X9474Y8974D01*
G01X9476Y8971D01*
G01X9479Y8968D01*
G01X9481Y8965D01*
G01X9484Y8962D01*
G01X9487Y8959D01*
G01X9490Y8956D01*
G01X9494Y8954D01*
G01X9497Y8951D01*
G01X9500Y8949D01*
G01X9504Y8947D01*
G01X9507Y8945D01*
G01X9511Y8943D01*
G01X9515Y8941D01*
G01X9519Y8939D01*
G01X9523Y8938D01*
G01X9526Y8937D01*
G01X9530Y8936D01*
G01X9534Y8935D01*
G01X9539Y8934D01*
G01X9543Y8933D01*
G01X9547Y8933D01*
G01X9551Y8933D01*
G01X9555Y8932D01*
G37*
G36*
G01X7950Y7150D02*
G01X8170Y7150D01*
G01X8168Y7155D01*
G01X8151Y7191D01*
G01X8130Y7225D01*
G01X8106Y7257D01*
G01X8079Y7286D01*
G01X8049Y7312D01*
G01X8017Y7336D01*
G01X7982Y7355D01*
G01X7950Y7370D01*
G01X7950Y7150D01*
G37*
G36*
G01X7429Y7150D02*
G01X7650Y7150D01*
G01X7650Y7370D01*
G01X7635Y7364D01*
G01X7600Y7346D01*
G01X7566Y7324D01*
G01X7535Y7299D01*
G01X7506Y7272D01*
G01X7481Y7241D01*
G01X7458Y7208D01*
G01X7439Y7173D01*
G01X7429Y7150D01*
G37*
G36*
G01X9998Y8142D02*
G01X10146Y8142D01*
G01X10150Y8143D01*
G01X10154Y8143D01*
G01X10158Y8143D01*
G01X10162Y8144D01*
G01X10167Y8145D01*
G01X10171Y8146D01*
G01X10175Y8147D01*
G01X10178Y8148D01*
G01X10182Y8149D01*
G01X10186Y8151D01*
G01X10190Y8153D01*
G01X10194Y8155D01*
G01X10197Y8157D01*
G01X10201Y8159D01*
G01X10204Y8161D01*
G01X10207Y8164D01*
G01X10211Y8166D01*
G01X10214Y8169D01*
G01X10217Y8172D01*
G01X10220Y8175D01*
G01X10222Y8178D01*
G01X10225Y8181D01*
G01X10227Y8184D01*
G01X10230Y8188D01*
G01X10232Y8191D01*
G01X10234Y8195D01*
G01X10236Y8199D01*
G01X10238Y8202D01*
G01X10239Y8206D01*
G01X10241Y8210D01*
G01X10242Y8214D01*
G01X10243Y8218D01*
G01X10244Y8222D01*
G01X10245Y8226D01*
G01X10245Y8230D01*
G01X10246Y8234D01*
G01X10246Y8238D01*
G01X10246Y8242D01*
G01X10246Y8341D01*
G01X9998Y8341D01*
G01X9998Y8142D01*
G37*
G36*
G01X9998Y8538D02*
G01X10246Y8538D01*
G01X10246Y8636D01*
G01X10246Y8641D01*
G01X10246Y8645D01*
G01X10245Y8649D01*
G01X10245Y8653D01*
G01X10244Y8657D01*
G01X10243Y8661D01*
G01X10242Y8665D01*
G01X10241Y8669D01*
G01X10239Y8673D01*
G01X10238Y8677D01*
G01X10236Y8680D01*
G01X10234Y8684D01*
G01X10232Y8688D01*
G01X10230Y8691D01*
G01X10227Y8695D01*
G01X10225Y8698D01*
G01X10222Y8701D01*
G01X10220Y8704D01*
G01X10217Y8707D01*
G01X10214Y8710D01*
G01X10211Y8713D01*
G01X10207Y8715D01*
G01X10204Y8718D01*
G01X10201Y8720D01*
G01X10197Y8722D01*
G01X10194Y8724D01*
G01X10190Y8726D01*
G01X10186Y8728D01*
G01X10182Y8730D01*
G01X10178Y8731D01*
G01X10175Y8732D01*
G01X10171Y8733D01*
G01X10167Y8734D01*
G01X10162Y8735D01*
G01X10158Y8736D01*
G01X10154Y8736D01*
G01X10150Y8736D01*
G01X10146Y8736D01*
G01X9998Y8736D01*
G01X9998Y8538D01*
G37*
G36*
G01X9555Y8142D02*
G01X9703Y8142D01*
G01X9703Y8341D01*
G01X9455Y8341D01*
G01X9455Y8242D01*
G01X9455Y8238D01*
G01X9455Y8234D01*
G01X9456Y8230D01*
G01X9456Y8226D01*
G01X9457Y8222D01*
G01X9458Y8218D01*
G01X9459Y8214D01*
G01X9460Y8210D01*
G01X9462Y8206D01*
G01X9463Y8202D01*
G01X9465Y8199D01*
G01X9467Y8195D01*
G01X9469Y8191D01*
G01X9471Y8188D01*
G01X9474Y8184D01*
G01X9476Y8181D01*
G01X9479Y8178D01*
G01X9481Y8175D01*
G01X9484Y8172D01*
G01X9487Y8169D01*
G01X9490Y8166D01*
G01X9494Y8164D01*
G01X9497Y8161D01*
G01X9500Y8159D01*
G01X9504Y8157D01*
G01X9507Y8155D01*
G01X9511Y8153D01*
G01X9515Y8151D01*
G01X9519Y8149D01*
G01X9523Y8148D01*
G01X9526Y8147D01*
G01X9530Y8146D01*
G01X9534Y8145D01*
G01X9539Y8144D01*
G01X9543Y8143D01*
G01X9547Y8143D01*
G01X9551Y8143D01*
G01X9555Y8142D01*
G37*
G36*
G01X9455Y8538D02*
G01X9703Y8538D01*
G01X9703Y8736D01*
G01X9555Y8736D01*
G01X9551Y8736D01*
G01X9547Y8736D01*
G01X9543Y8736D01*
G01X9539Y8735D01*
G01X9534Y8734D01*
G01X9530Y8733D01*
G01X9526Y8732D01*
G01X9523Y8731D01*
G01X9519Y8730D01*
G01X9515Y8728D01*
G01X9511Y8726D01*
G01X9507Y8724D01*
G01X9504Y8722D01*
G01X9500Y8720D01*
G01X9497Y8718D01*
G01X9494Y8715D01*
G01X9490Y8713D01*
G01X9487Y8710D01*
G01X9484Y8707D01*
G01X9481Y8704D01*
G01X9479Y8701D01*
G01X9476Y8698D01*
G01X9474Y8695D01*
G01X9471Y8691D01*
G01X9469Y8688D01*
G01X9467Y8684D01*
G01X9465Y8680D01*
G01X9463Y8677D01*
G01X9462Y8673D01*
G01X9460Y8669D01*
G01X9459Y8665D01*
G01X9458Y8661D01*
G01X9457Y8657D01*
G01X9456Y8653D01*
G01X9456Y8649D01*
G01X9455Y8645D01*
G01X9455Y8641D01*
G01X9455Y8636D01*
G01X9455Y8538D01*
G37*

%LPD*%
G36*
G01X6235Y9042D02*
G01X6131Y9145D01*
G01X6131Y9736D01*
G01X6131Y9741D01*
G01X6131Y9746D01*
G01X6131Y9751D01*
G01X6130Y9756D01*
G01X6129Y9761D01*
G01X6128Y9766D01*
G01X6127Y9771D01*
G01X6126Y9776D01*
G01X6124Y9781D01*
G01X6123Y9786D01*
G01X6121Y9791D01*
G01X6119Y9795D01*
G01X6117Y9800D01*
G01X6115Y9805D01*
G01X6112Y9809D01*
G01X6110Y9813D01*
G01X6107Y9818D01*
G01X6104Y9822D01*
G01X6101Y9826D01*
G01X6098Y9830D01*
G01X6095Y9834D01*
G01X6091Y9838D01*
G01X6088Y9842D01*
G01X6059Y9871D01*
G01X6055Y9874D01*
G01X6051Y9878D01*
G01X6047Y9881D01*
G01X6043Y9884D01*
G01X6039Y9887D01*
G01X6035Y9890D01*
G01X6030Y9893D01*
G01X6026Y9895D01*
G01X6022Y9898D01*
G01X6017Y9900D01*
G01X6012Y9902D01*
G01X6008Y9904D01*
G01X6003Y9906D01*
G01X5998Y9907D01*
G01X5993Y9909D01*
G01X5988Y9910D01*
G01X5983Y9911D01*
G01X5978Y9912D01*
G01X5973Y9913D01*
G01X5968Y9914D01*
G01X5963Y9914D01*
G01X5958Y9914D01*
G01X5952Y9915D01*
G01X5860Y9915D01*
G01X5429Y10345D01*
G01X5864Y10345D01*
G01X5869Y10345D01*
G01X5873Y10345D01*
G01X5877Y10346D01*
G01X5881Y10346D01*
G01X5885Y10347D01*
G01X5889Y10348D01*
G01X5893Y10349D01*
G01X5897Y10350D01*
G01X5901Y10352D01*
G01X5905Y10353D01*
G01X5908Y10355D01*
G01X5912Y10357D01*
G01X5916Y10359D01*
G01X5919Y10361D01*
G01X5923Y10364D01*
G01X5926Y10366D01*
G01X5929Y10369D01*
G01X5932Y10371D01*
G01X5935Y10374D01*
G01X5938Y10377D01*
G01X5941Y10380D01*
G01X5943Y10384D01*
G01X5946Y10387D01*
G01X5948Y10390D01*
G01X5950Y10394D01*
G01X5952Y10397D01*
G01X5954Y10401D01*
G01X5956Y10405D01*
G01X5958Y10409D01*
G01X5959Y10413D01*
G01X5960Y10416D01*
G01X5961Y10420D01*
G01X5962Y10424D01*
G01X5963Y10429D01*
G01X5964Y10433D01*
G01X5964Y10437D01*
G01X5964Y10441D01*
G01X5964Y10445D01*
G01X5964Y11154D01*
G01X5964Y11158D01*
G01X5964Y11162D01*
G01X5964Y11166D01*
G01X5963Y11170D01*
G01X5962Y11175D01*
G01X5961Y11179D01*
G01X5960Y11183D01*
G01X5959Y11186D01*
G01X5958Y11190D01*
G01X5956Y11194D01*
G01X5954Y11198D01*
G01X5952Y11202D01*
G01X5950Y11205D01*
G01X5948Y11209D01*
G01X5946Y11212D01*
G01X5943Y11215D01*
G01X5941Y11219D01*
G01X5938Y11222D01*
G01X5935Y11225D01*
G01X5932Y11228D01*
G01X5929Y11230D01*
G01X5926Y11233D01*
G01X5923Y11235D01*
G01X5919Y11238D01*
G01X5916Y11240D01*
G01X5912Y11242D01*
G01X5908Y11244D01*
G01X5905Y11246D01*
G01X5901Y11247D01*
G01X5897Y11249D01*
G01X5893Y11250D01*
G01X5889Y11251D01*
G01X5885Y11252D01*
G01X5881Y11253D01*
G01X5877Y11253D01*
G01X5873Y11254D01*
G01X5869Y11254D01*
G01X5864Y11254D01*
G01X5235Y11254D01*
G01X5230Y11254D01*
G01X5226Y11254D01*
G01X5222Y11253D01*
G01X5218Y11253D01*
G01X5214Y11252D01*
G01X5210Y11251D01*
G01X5206Y11250D01*
G01X5202Y11249D01*
G01X5198Y11247D01*
G01X5194Y11246D01*
G01X5191Y11244D01*
G01X5187Y11242D01*
G01X5183Y11240D01*
G01X5180Y11238D01*
G01X5176Y11235D01*
G01X5173Y11233D01*
G01X5170Y11230D01*
G01X5167Y11228D01*
G01X5164Y11225D01*
G01X5161Y11222D01*
G01X5158Y11219D01*
G01X5156Y11215D01*
G01X5153Y11212D01*
G01X5151Y11209D01*
G01X5149Y11205D01*
G01X5147Y11202D01*
G01X5145Y11198D01*
G01X5143Y11194D01*
G01X5141Y11190D01*
G01X5140Y11186D01*
G01X5139Y11183D01*
G01X5138Y11179D01*
G01X5137Y11175D01*
G01X5136Y11170D01*
G01X5135Y11166D01*
G01X5135Y11162D01*
G01X5135Y11158D01*
G01X5135Y11154D01*
G01X5135Y10950D01*
G01X5123Y10950D01*
G01X5122Y10949D01*
G01X5120Y10949D01*
G01X5118Y10949D01*
G01X5116Y10949D01*
G01X5114Y10949D01*
G01X5112Y10949D01*
G01X5110Y10949D01*
G01X5109Y10949D01*
G01X5107Y10949D01*
G01X5105Y10948D01*
G01X5103Y10948D01*
G01X5101Y10948D01*
G01X5099Y10948D01*
G01X5097Y10947D01*
G01X5096Y10947D01*
G01X5094Y10947D01*
G01X5092Y10946D01*
G01X5090Y10946D01*
G01X5088Y10945D01*
G01X5086Y10945D01*
G01X5085Y10944D01*
G01X5083Y10944D01*
G01X5081Y10943D01*
G01X5079Y10943D01*
G01X5077Y10942D01*
G01X5076Y10942D01*
G01X5074Y10941D01*
G01X5072Y10940D01*
G01X5071Y10940D01*
G01X5069Y10939D01*
G01X5067Y10938D01*
G01X5065Y10938D01*
G01X5064Y10937D01*
G01X5062Y10936D01*
G01X5060Y10935D01*
G01X5058Y10935D01*
G01X5057Y10934D01*
G01X5055Y10933D01*
G01X5053Y10932D01*
G01X5052Y10931D01*
G01X5050Y10930D01*
G01X5048Y10929D01*
G01X5047Y10928D01*
G01X5045Y10927D01*
G01X5044Y10926D01*
G01X5042Y10926D01*
G01X5041Y10925D01*
G01X5039Y10923D01*
G01X5037Y10922D01*
G01X5036Y10921D01*
G01X5035Y10920D01*
G01X5033Y10919D01*
G01X5031Y10918D01*
G01X5030Y10917D01*
G01X5029Y10916D01*
G01X5027Y10914D01*
G01X5026Y10913D01*
G01X5024Y10912D01*
G01X5023Y10911D01*
G01X5021Y10909D01*
G01X5020Y10908D01*
G01X5019Y10907D01*
G01X5017Y10906D01*
G01X5016Y10904D01*
G01X5015Y10903D01*
G01X5014Y10902D01*
G01X5012Y10900D01*
G01X5011Y10899D01*
G01X5010Y10897D01*
G01X5009Y10896D01*
G01X5007Y10894D01*
G01X5006Y10893D01*
G01X5005Y10892D01*
G01X5004Y10890D01*
G01X5003Y10888D01*
G01X5002Y10887D01*
G01X5001Y10886D01*
G01X5000Y10884D01*
G01X4998Y10882D01*
G01X4997Y10881D01*
G01X4997Y10879D01*
G01X4996Y10878D01*
G01X4995Y10876D01*
G01X4994Y10875D01*
G01X4993Y10873D01*
G01X4992Y10871D01*
G01X4991Y10870D01*
G01X4990Y10868D01*
G01X4989Y10866D01*
G01X4988Y10865D01*
G01X4988Y10863D01*
G01X4987Y10861D01*
G01X4986Y10859D01*
G01X4985Y10858D01*
G01X4985Y10856D01*
G01X4984Y10854D01*
G01X4983Y10852D01*
G01X4983Y10851D01*
G01X4982Y10849D01*
G01X4981Y10847D01*
G01X4981Y10846D01*
G01X4980Y10844D01*
G01X4980Y10842D01*
G01X4979Y10840D01*
G01X4979Y10838D01*
G01X4978Y10837D01*
G01X4978Y10835D01*
G01X4977Y10833D01*
G01X4977Y10831D01*
G01X4976Y10829D01*
G01X4976Y10827D01*
G01X4976Y10826D01*
G01X4975Y10824D01*
G01X4975Y10822D01*
G01X4975Y10820D01*
G01X4975Y10818D01*
G01X4974Y10816D01*
G01X4974Y10814D01*
G01X4974Y10813D01*
G01X4974Y10811D01*
G01X4974Y10809D01*
G01X4974Y10807D01*
G01X4974Y10805D01*
G01X4974Y10803D01*
G01X4974Y10801D01*
G01X4973Y10800D01*
G01X4973Y10501D01*
G01X4822Y10350D01*
G01X3681Y10350D01*
G01X3677Y10359D01*
G01X3660Y10396D01*
G01X3638Y10430D01*
G01X3614Y10463D01*
G01X3586Y10493D01*
G01X3555Y10520D01*
G01X3522Y10544D01*
G01X3487Y10564D01*
G01X3449Y10581D01*
G01X3411Y10594D01*
G01X3371Y10603D01*
G01X3330Y10608D01*
G01X3289Y10609D01*
G01X3249Y10606D01*
G01X3208Y10599D01*
G01X3169Y10588D01*
G01X3131Y10573D01*
G01X3094Y10555D01*
G01X3060Y10532D01*
G01X3028Y10507D01*
G01X3019Y10497D01*
G01X3019Y10902D01*
G01X3028Y10892D01*
G01X3060Y10867D01*
G01X3094Y10844D01*
G01X3131Y10826D01*
G01X3144Y10820D01*
G01X3144Y11044D01*
G01X3019Y11044D01*
G01X3019Y11355D01*
G01X3144Y11355D01*
G01X3144Y11579D01*
G01X3131Y11573D01*
G01X3094Y11555D01*
G01X3060Y11532D01*
G01X3028Y11507D01*
G01X3019Y11497D01*
G01X3019Y11706D01*
G01X3136Y11824D01*
G01X3169Y11811D01*
G01X3208Y11800D01*
G01X3249Y11793D01*
G01X3289Y11790D01*
G01X3330Y11791D01*
G01X3371Y11796D01*
G01X3411Y11805D01*
G01X3449Y11818D01*
G01X3487Y11835D01*
G01X3522Y11855D01*
G01X3555Y11879D01*
G01X3586Y11906D01*
G01X3614Y11936D01*
G01X3638Y11969D01*
G01X3660Y12003D01*
G01X3677Y12040D01*
G01X3681Y12050D01*
G01X5613Y12050D01*
G01X6409Y11254D01*
G01X6335Y11254D01*
G01X6330Y11254D01*
G01X6326Y11254D01*
G01X6322Y11253D01*
G01X6318Y11253D01*
G01X6314Y11252D01*
G01X6310Y11251D01*
G01X6306Y11250D01*
G01X6302Y11249D01*
G01X6298Y11247D01*
G01X6294Y11246D01*
G01X6291Y11244D01*
G01X6287Y11242D01*
G01X6283Y11240D01*
G01X6280Y11238D01*
G01X6276Y11235D01*
G01X6273Y11233D01*
G01X6270Y11230D01*
G01X6267Y11228D01*
G01X6264Y11225D01*
G01X6261Y11222D01*
G01X6258Y11219D01*
G01X6256Y11215D01*
G01X6253Y11212D01*
G01X6251Y11209D01*
G01X6249Y11205D01*
G01X6247Y11202D01*
G01X6245Y11198D01*
G01X6243Y11194D01*
G01X6241Y11190D01*
G01X6240Y11186D01*
G01X6239Y11183D01*
G01X6238Y11179D01*
G01X6237Y11175D01*
G01X6236Y11170D01*
G01X6235Y11166D01*
G01X6235Y11162D01*
G01X6235Y11158D01*
G01X6235Y11154D01*
G01X6235Y10445D01*
G01X6235Y10441D01*
G01X6235Y10437D01*
G01X6235Y10433D01*
G01X6236Y10429D01*
G01X6237Y10424D01*
G01X6238Y10420D01*
G01X6239Y10416D01*
G01X6240Y10413D01*
G01X6241Y10409D01*
G01X6243Y10405D01*
G01X6245Y10401D01*
G01X6247Y10397D01*
G01X6249Y10394D01*
G01X6251Y10390D01*
G01X6253Y10387D01*
G01X6256Y10384D01*
G01X6258Y10380D01*
G01X6261Y10377D01*
G01X6264Y10374D01*
G01X6267Y10371D01*
G01X6270Y10369D01*
G01X6273Y10366D01*
G01X6276Y10364D01*
G01X6280Y10361D01*
G01X6283Y10359D01*
G01X6287Y10357D01*
G01X6291Y10355D01*
G01X6294Y10353D01*
G01X6298Y10352D01*
G01X6302Y10350D01*
G01X6306Y10349D01*
G01X6310Y10348D01*
G01X6314Y10347D01*
G01X6318Y10346D01*
G01X6322Y10346D01*
G01X6326Y10345D01*
G01X6330Y10345D01*
G01X6335Y10345D01*
G01X6500Y10345D01*
G01X6500Y9754D01*
G01X6335Y9754D01*
G01X6330Y9754D01*
G01X6326Y9754D01*
G01X6322Y9753D01*
G01X6318Y9753D01*
G01X6314Y9752D01*
G01X6310Y9751D01*
G01X6306Y9750D01*
G01X6302Y9749D01*
G01X6298Y9747D01*
G01X6294Y9746D01*
G01X6291Y9744D01*
G01X6287Y9742D01*
G01X6283Y9740D01*
G01X6280Y9738D01*
G01X6276Y9735D01*
G01X6273Y9733D01*
G01X6270Y9730D01*
G01X6267Y9728D01*
G01X6264Y9725D01*
G01X6261Y9722D01*
G01X6258Y9719D01*
G01X6256Y9715D01*
G01X6253Y9712D01*
G01X6251Y9709D01*
G01X6249Y9705D01*
G01X6247Y9702D01*
G01X6245Y9698D01*
G01X6243Y9694D01*
G01X6241Y9690D01*
G01X6240Y9686D01*
G01X6239Y9683D01*
G01X6238Y9679D01*
G01X6237Y9675D01*
G01X6236Y9670D01*
G01X6235Y9666D01*
G01X6235Y9662D01*
G01X6235Y9658D01*
G01X6235Y9654D01*
G01X6235Y9042D01*
G37*

%LPC*%
G36*
G01X3455Y10820D02*
G01X3487Y10835D01*
G01X3522Y10855D01*
G01X3555Y10879D01*
G01X3586Y10906D01*
G01X3614Y10936D01*
G01X3638Y10969D01*
G01X3660Y11003D01*
G01X3677Y11040D01*
G01X3679Y11044D01*
G01X3455Y11044D01*
G01X3455Y10820D01*
G37*
G36*
G01X3455Y11355D02*
G01X3679Y11355D01*
G01X3677Y11359D01*
G01X3660Y11396D01*
G01X3638Y11430D01*
G01X3614Y11463D01*
G01X3586Y11493D01*
G01X3555Y11520D01*
G01X3522Y11544D01*
G01X3487Y11564D01*
G01X3455Y11579D01*
G01X3455Y11355D01*
G37*

%LPD*%
G54D10*
G01X10256Y8440D02*
G01X10776Y7921D01*
G01X10776Y7921D02*
G01X10196Y7342D01*
G01X8142Y7342D01*
G01X7800Y7000D01*
G01X9851Y8440D02*
G01X10256Y8440D01*
G01X14050Y4898D02*
G01X14476Y4898D01*
G01X14810Y10800D02*
G01X14405Y10800D01*
G01X14405Y10800D02*
G01X14405Y8951D01*
G01X14606Y8748D01*
G01X15193Y8748D01*
G01X15389Y8553D01*
G01X15389Y5813D01*
G01X14476Y4898D01*
G01X3300Y12200D02*
G01X2869Y11769D01*
G01X2869Y8769D01*
G01X4638Y7000D01*
G01X6400Y7000D01*
G01X7076Y10800D02*
G01X5676Y12200D01*
G01X3300Y12200D01*
G01X6650Y9300D02*
G01X6650Y10800D01*
G01X6400Y7000D02*
G01X9176Y4223D01*
G01X12727Y4223D01*
G01X12864Y4361D01*
G01X12950Y4898D02*
G01X12950Y4434D01*
G01X12950Y4434D02*
G01X12938Y4434D01*
G01X12864Y4361D01*
G01X17301Y1265D02*
G01X16589Y1265D01*
G01X16589Y1265D02*
G01X16078Y1775D01*
G01X15101Y1775D01*
G01X9851Y11590D02*
G01X7865Y11590D01*
G01X7076Y10800D01*
G01X6650Y10800D02*
G01X7076Y10800D01*
G01X4877Y1311D02*
G01X7115Y3550D01*
G01X10001Y3550D01*
G01X10001Y6542D02*
G01X7644Y6542D01*
G01X5550Y8638D01*
G01X5550Y9300D01*
G01X10256Y6869D02*
G01X10256Y6573D01*
G01X10227Y6542D01*
G01X10001Y6542D01*
G01X10001Y6542D02*
G01X10001Y5076D01*
G01X5550Y9300D02*
G01X3830Y9300D01*
G01X3730Y9200D01*
G01X3300Y9200D02*
G01X3730Y9200D01*
G01X10001Y4650D02*
G01X10001Y5076D01*
G01X9851Y6869D02*
G01X10256Y6869D01*
G01X15101Y1223D02*
G01X15101Y880D01*
G01X15101Y880D02*
G01X14984Y763D01*
G01X11235Y763D01*
G01X10800Y1200D01*
G01X15217Y9230D02*
G01X15561Y8886D01*
G01X15561Y5513D01*
G01X11743Y1694D01*
G01X10293Y1694D01*
G01X9800Y1200D01*
G01X14810Y9230D02*
G01X15217Y9230D01*
G01X15217Y8440D02*
G01X15217Y6590D01*
G01X15188Y6561D01*
G01X14848Y6561D01*
G01X13530Y5242D01*
G01X13530Y4636D01*
G01X10921Y2028D01*
G01X9627Y2028D01*
G01X8800Y1200D01*
G01X14810Y8440D02*
G01X15217Y8440D01*
G01X5123Y10438D02*
G01X4885Y10200D01*
G01X3300Y10200D01*
G01X5123Y10800D02*
G01X5123Y10438D01*
G01X9851Y7650D02*
G01X7414Y7650D01*
G01X5981Y9082D01*
G01X5981Y9736D01*
G01X5952Y9765D01*
G01X5797Y9765D01*
G01X5123Y10438D01*
G01X5550Y10800D02*
G01X5123Y10800D01*
G01X9851Y11590D02*
G01X11010Y11590D01*
G01X12400Y10200D01*
G01X12400Y5449D01*
G01X12950Y4899D01*
G54D11*
G01X17143Y4613D02*
G01X17518Y4613D01*
G01X17143Y4613D02*
G01X17143Y4846D01*
G01X17322Y4613D02*
G01X17322Y4757D01*
G01X17143Y4965D02*
G01X17411Y4965D01*
G01X17464Y4982D01*
G01X17501Y5017D01*
G01X17518Y5071D01*
G01X17518Y5107D01*
G01X17501Y5161D01*
G01X17464Y5196D01*
G01X17411Y5215D01*
G01X17143Y5215D01*
G01X17197Y5584D02*
G01X17160Y5548D01*
G01X17143Y5494D01*
G01X17143Y5423D01*
G01X17160Y5369D01*
G01X17197Y5332D01*
G01X17232Y5332D01*
G01X17268Y5351D01*
G01X17285Y5369D01*
G01X17303Y5405D01*
G01X17339Y5511D01*
G01X17357Y5548D01*
G01X17376Y5565D01*
G01X17411Y5584D01*
G01X17464Y5584D01*
G01X17501Y5548D01*
G01X17518Y5494D01*
G01X17518Y5423D01*
G01X17501Y5369D01*
G01X17464Y5332D01*
G01X17143Y5701D02*
G01X17518Y5701D01*
G01X17143Y5701D02*
G01X17143Y5934D01*
G01X17322Y5701D02*
G01X17322Y5844D01*
G01X17518Y5701D02*
G01X17518Y5934D01*
G54D13*
G01X14050Y4899D03*
G01X12950Y4899D03*
G54D14*
G01X10000Y3550D03*
G01X10000Y4650D03*
G54D15*
G01X15101Y1223D03*
G01X15101Y1775D03*
G54D13*
G01X5550Y9300D03*
G01X6650Y9300D03*
G01X5550Y10800D03*
G01X6650Y10800D03*
G54D16*
G01X9851Y11590D03*
G01X9851Y10800D03*
G01X9851Y10009D03*
G01X9851Y9230D03*
G01X9851Y8440D03*
G01X9851Y7650D03*
G01X9851Y6869D03*
G01X14810Y11590D03*
G01X14810Y10800D03*
G01X14810Y10009D03*
G01X14810Y9230D03*
G01X14810Y8440D03*
G01X14810Y7650D03*
G01X14810Y6869D03*
G54D17*
G01X12800Y1200D03*
G01X11800Y1200D03*
G01X10800Y1200D03*
G01X9800Y1200D03*
G01X8800Y1200D03*
G54D18*
G01X7800Y1200D03*
G01X3300Y9200D03*
G54D17*
G01X3300Y10200D03*
G01X3300Y11200D03*
G01X3300Y12200D03*
G54D19*
G01X16300Y12650D03*
G01X18268Y12650D03*
G54D20*
G01X17300Y9335D03*
G01X17300Y1265D03*
G54D21*
G01X17300Y7523D03*
G01X17300Y3076D03*
G54D19*
G01X4877Y2848D03*
G01X2121Y2848D03*
G01X2121Y1311D03*
G01X4877Y1311D03*
G54D22*
G01X6400Y7000D03*
G01X7800Y7000D03*
G54D12*
G01X12864Y4361D03*
M00*
M02*
