G04 EAGLE Gerber RS-274X export*
G75*
%MOMM*%
%FSLAX34Y34*%
%LPD*%
%INLötstopmaske Lötseite*%
%IPPOS*%
%AMOC8*
5,1,8,0,0,1.08239X$1,22.5*%
G01*
%ADD10C,0.000000*%
%ADD11R,1.308000X1.308000*%
%ADD12C,1.308000*%
%ADD13C,3.316000*%
%ADD14C,1.428000*%
%ADD15P,1.429621X8X112.500000*%
%ADD16P,1.429621X8X292.500000*%
%ADD17C,1.320800*%
%ADD18P,1.415766X8X22.500000*%
%ADD19C,1.524000*%
%ADD20P,1.429621X8X202.500000*%
%ADD21C,1.422400*%
%ADD22C,1.676400*%


D10*
X0Y698500D02*
X596700Y698500D01*
X596700Y1012700D01*
X0Y1012700D01*
X0Y698500D01*
D11*
X362725Y965350D03*
X362725Y889150D03*
D12*
X362725Y939950D03*
X362725Y914550D03*
X337325Y914550D03*
X337325Y939950D03*
X337325Y965350D03*
X337325Y889150D03*
D13*
X38100Y961900D03*
X38100Y841500D03*
D14*
X85200Y914200D03*
X65200Y914200D03*
X85200Y889200D03*
X65200Y889200D03*
D15*
X127000Y889000D03*
X127000Y914400D03*
D16*
X266700Y762000D03*
X266700Y736600D03*
D17*
X127000Y971296D02*
X127000Y984504D01*
X152400Y984504D02*
X152400Y971296D01*
X177800Y971296D02*
X177800Y984504D01*
X203200Y984504D02*
X203200Y971296D01*
X228600Y971296D02*
X228600Y984504D01*
X254000Y984504D02*
X254000Y971296D01*
D18*
X469900Y762000D03*
D12*
X495300Y762000D03*
X520700Y762000D03*
X546100Y762000D03*
D15*
X177800Y838200D03*
X177800Y863600D03*
D16*
X228600Y939800D03*
X228600Y838200D03*
D19*
X302768Y784606D02*
X318008Y784606D01*
X318008Y739394D02*
X302768Y739394D01*
X367792Y784606D02*
X383032Y784606D01*
X383032Y739394D02*
X367792Y739394D01*
D20*
X368300Y812800D03*
X266700Y812800D03*
D16*
X266700Y939800D03*
X266700Y838200D03*
D21*
X184912Y927100D02*
X170688Y927100D01*
X170688Y901700D02*
X184912Y901700D01*
D22*
X194818Y736600D02*
X211582Y736600D01*
X211582Y762000D02*
X194818Y762000D01*
X194818Y787400D02*
X211582Y787400D01*
D10*
X36830Y762000D02*
X36835Y762405D01*
X36850Y762810D01*
X36875Y763215D01*
X36910Y763618D01*
X36954Y764021D01*
X37009Y764423D01*
X37073Y764823D01*
X37147Y765221D01*
X37231Y765617D01*
X37325Y766012D01*
X37428Y766403D01*
X37541Y766793D01*
X37663Y767179D01*
X37795Y767562D01*
X37936Y767942D01*
X38087Y768318D01*
X38246Y768691D01*
X38415Y769059D01*
X38593Y769423D01*
X38779Y769783D01*
X38975Y770138D01*
X39179Y770488D01*
X39391Y770833D01*
X39612Y771172D01*
X39842Y771507D01*
X40079Y771835D01*
X40324Y772157D01*
X40578Y772474D01*
X40838Y772784D01*
X41107Y773087D01*
X41383Y773384D01*
X41666Y773674D01*
X41956Y773957D01*
X42253Y774233D01*
X42556Y774502D01*
X42866Y774762D01*
X43183Y775016D01*
X43505Y775261D01*
X43833Y775498D01*
X44168Y775728D01*
X44507Y775949D01*
X44852Y776161D01*
X45202Y776365D01*
X45557Y776561D01*
X45917Y776747D01*
X46281Y776925D01*
X46649Y777094D01*
X47022Y777253D01*
X47398Y777404D01*
X47778Y777545D01*
X48161Y777677D01*
X48547Y777799D01*
X48937Y777912D01*
X49328Y778015D01*
X49723Y778109D01*
X50119Y778193D01*
X50517Y778267D01*
X50917Y778331D01*
X51319Y778386D01*
X51722Y778430D01*
X52125Y778465D01*
X52530Y778490D01*
X52935Y778505D01*
X53340Y778510D01*
X53745Y778505D01*
X54150Y778490D01*
X54555Y778465D01*
X54958Y778430D01*
X55361Y778386D01*
X55763Y778331D01*
X56163Y778267D01*
X56561Y778193D01*
X56957Y778109D01*
X57352Y778015D01*
X57743Y777912D01*
X58133Y777799D01*
X58519Y777677D01*
X58902Y777545D01*
X59282Y777404D01*
X59658Y777253D01*
X60031Y777094D01*
X60399Y776925D01*
X60763Y776747D01*
X61123Y776561D01*
X61478Y776365D01*
X61828Y776161D01*
X62173Y775949D01*
X62512Y775728D01*
X62847Y775498D01*
X63175Y775261D01*
X63497Y775016D01*
X63814Y774762D01*
X64124Y774502D01*
X64427Y774233D01*
X64724Y773957D01*
X65014Y773674D01*
X65297Y773384D01*
X65573Y773087D01*
X65842Y772784D01*
X66102Y772474D01*
X66356Y772157D01*
X66601Y771835D01*
X66838Y771507D01*
X67068Y771172D01*
X67289Y770833D01*
X67501Y770488D01*
X67705Y770138D01*
X67901Y769783D01*
X68087Y769423D01*
X68265Y769059D01*
X68434Y768691D01*
X68593Y768318D01*
X68744Y767942D01*
X68885Y767562D01*
X69017Y767179D01*
X69139Y766793D01*
X69252Y766403D01*
X69355Y766012D01*
X69449Y765617D01*
X69533Y765221D01*
X69607Y764823D01*
X69671Y764423D01*
X69726Y764021D01*
X69770Y763618D01*
X69805Y763215D01*
X69830Y762810D01*
X69845Y762405D01*
X69850Y762000D01*
X69845Y761595D01*
X69830Y761190D01*
X69805Y760785D01*
X69770Y760382D01*
X69726Y759979D01*
X69671Y759577D01*
X69607Y759177D01*
X69533Y758779D01*
X69449Y758383D01*
X69355Y757988D01*
X69252Y757597D01*
X69139Y757207D01*
X69017Y756821D01*
X68885Y756438D01*
X68744Y756058D01*
X68593Y755682D01*
X68434Y755309D01*
X68265Y754941D01*
X68087Y754577D01*
X67901Y754217D01*
X67705Y753862D01*
X67501Y753512D01*
X67289Y753167D01*
X67068Y752828D01*
X66838Y752493D01*
X66601Y752165D01*
X66356Y751843D01*
X66102Y751526D01*
X65842Y751216D01*
X65573Y750913D01*
X65297Y750616D01*
X65014Y750326D01*
X64724Y750043D01*
X64427Y749767D01*
X64124Y749498D01*
X63814Y749238D01*
X63497Y748984D01*
X63175Y748739D01*
X62847Y748502D01*
X62512Y748272D01*
X62173Y748051D01*
X61828Y747839D01*
X61478Y747635D01*
X61123Y747439D01*
X60763Y747253D01*
X60399Y747075D01*
X60031Y746906D01*
X59658Y746747D01*
X59282Y746596D01*
X58902Y746455D01*
X58519Y746323D01*
X58133Y746201D01*
X57743Y746088D01*
X57352Y745985D01*
X56957Y745891D01*
X56561Y745807D01*
X56163Y745733D01*
X55763Y745669D01*
X55361Y745614D01*
X54958Y745570D01*
X54555Y745535D01*
X54150Y745510D01*
X53745Y745495D01*
X53340Y745490D01*
X52935Y745495D01*
X52530Y745510D01*
X52125Y745535D01*
X51722Y745570D01*
X51319Y745614D01*
X50917Y745669D01*
X50517Y745733D01*
X50119Y745807D01*
X49723Y745891D01*
X49328Y745985D01*
X48937Y746088D01*
X48547Y746201D01*
X48161Y746323D01*
X47778Y746455D01*
X47398Y746596D01*
X47022Y746747D01*
X46649Y746906D01*
X46281Y747075D01*
X45917Y747253D01*
X45557Y747439D01*
X45202Y747635D01*
X44852Y747839D01*
X44507Y748051D01*
X44168Y748272D01*
X43833Y748502D01*
X43505Y748739D01*
X43183Y748984D01*
X42866Y749238D01*
X42556Y749498D01*
X42253Y749767D01*
X41956Y750043D01*
X41666Y750326D01*
X41383Y750616D01*
X41107Y750913D01*
X40838Y751216D01*
X40578Y751526D01*
X40324Y751843D01*
X40079Y752165D01*
X39842Y752493D01*
X39612Y752828D01*
X39391Y753167D01*
X39179Y753512D01*
X38975Y753862D01*
X38779Y754217D01*
X38593Y754577D01*
X38415Y754941D01*
X38246Y755309D01*
X38087Y755682D01*
X37936Y756058D01*
X37795Y756438D01*
X37663Y756821D01*
X37541Y757207D01*
X37428Y757597D01*
X37325Y757988D01*
X37231Y758383D01*
X37147Y758779D01*
X37073Y759177D01*
X37009Y759577D01*
X36954Y759979D01*
X36910Y760382D01*
X36875Y760785D01*
X36850Y761190D01*
X36835Y761595D01*
X36830Y762000D01*
M02*
