M48
;GenerationSoftware,Autodesk,EAGLE,9.2.2*%
;CreationDate,2018-11-25T15:49:31Z*%
FMAT,2
ICI,OFF
METRIC,TZ,000.000
T8C0.800
T7C0.813
T6C0.914
T5C0.920
T4C1.016
T3C1.118
T2C2.300
T1C3.302
%
G90
M71
T1
X5334Y76200
T2
X3810Y84150
X3810Y96190
T3
X20320Y78740
X20320Y76200
X20320Y73660
T4
X37541Y73939
X37541Y78461
X31039Y73939
X31039Y78461
T5
X8520Y91420
X6520Y91420
X8520Y88920
X6520Y88920
T6
X17780Y90170
X17780Y92710
T7
X22860Y97790
X26670Y83820
X26670Y93980
X12700Y88900
X12700Y91440
X26670Y76200
X26670Y73660
X12700Y97790
X15240Y97790
X17780Y97790
X20320Y97790
X26670Y81280
X25400Y97790
X36830Y81280
X17780Y83820
X17780Y86360
X22860Y93980
X22860Y83820
T8
X54610Y76200
X52070Y76200
X49530Y76200
X36273Y91455
X36273Y93995
X36273Y96535
X36273Y88915
X33733Y88915
X33733Y96535
X33733Y93995
X33733Y91455
X46990Y76200
M30